G04 #@! TF.GenerationSoftware,KiCad,Pcbnew,5.1.5*
G04 #@! TF.CreationDate,2020-02-16T17:08:25+01:00*
G04 #@! TF.ProjectId,feuchtraumabzweigdose,66657563-6874-4726-9175-6d61627a7765,rev?*
G04 #@! TF.SameCoordinates,Original*
G04 #@! TF.FileFunction,Soldermask,Top*
G04 #@! TF.FilePolarity,Negative*
%FSLAX46Y46*%
G04 Gerber Fmt 4.6, Leading zero omitted, Abs format (unit mm)*
G04 Created by KiCad (PCBNEW 5.1.5) date 2020-02-16 17:08:25*
%MOMM*%
%LPD*%
G04 APERTURE LIST*
%ADD10C,0.100000*%
G04 APERTURE END LIST*
D10*
G36*
X162128468Y-111655565D02*
G01*
X162167138Y-111667296D01*
X162202777Y-111686346D01*
X162234017Y-111711983D01*
X162259654Y-111743223D01*
X162278704Y-111778862D01*
X162290435Y-111817532D01*
X162295000Y-111863888D01*
X162295000Y-112515112D01*
X162290435Y-112561468D01*
X162278704Y-112600138D01*
X162259654Y-112635777D01*
X162234017Y-112667017D01*
X162202777Y-112692654D01*
X162167138Y-112711704D01*
X162128468Y-112723435D01*
X162082112Y-112728000D01*
X161005888Y-112728000D01*
X160959532Y-112723435D01*
X160920862Y-112711704D01*
X160885223Y-112692654D01*
X160853983Y-112667017D01*
X160828346Y-112635777D01*
X160809296Y-112600138D01*
X160797565Y-112561468D01*
X160793000Y-112515112D01*
X160793000Y-111863888D01*
X160797565Y-111817532D01*
X160809296Y-111778862D01*
X160828346Y-111743223D01*
X160853983Y-111711983D01*
X160885223Y-111686346D01*
X160920862Y-111667296D01*
X160959532Y-111655565D01*
X161005888Y-111651000D01*
X162082112Y-111651000D01*
X162128468Y-111655565D01*
G37*
G36*
X172833512Y-110863927D02*
G01*
X172982812Y-110893624D01*
X173146784Y-110961544D01*
X173294354Y-111060147D01*
X173419853Y-111185646D01*
X173518456Y-111333216D01*
X173586376Y-111497188D01*
X173616073Y-111646488D01*
X173618000Y-111656174D01*
X173621000Y-111671259D01*
X173621000Y-111848741D01*
X173586376Y-112022812D01*
X173518456Y-112186784D01*
X173419853Y-112334354D01*
X173294354Y-112459853D01*
X173146784Y-112558456D01*
X172982812Y-112626376D01*
X172833512Y-112656073D01*
X172808742Y-112661000D01*
X172631258Y-112661000D01*
X172606488Y-112656073D01*
X172457188Y-112626376D01*
X172293216Y-112558456D01*
X172145646Y-112459853D01*
X172020147Y-112334354D01*
X171921544Y-112186784D01*
X171853624Y-112022812D01*
X171819000Y-111848741D01*
X171819000Y-111671259D01*
X171822001Y-111656174D01*
X171823927Y-111646488D01*
X171853624Y-111497188D01*
X171921544Y-111333216D01*
X172020147Y-111185646D01*
X172145646Y-111060147D01*
X172293216Y-110961544D01*
X172457188Y-110893624D01*
X172606488Y-110863927D01*
X172631258Y-110859000D01*
X172808742Y-110859000D01*
X172833512Y-110863927D01*
G37*
G36*
X132113512Y-110863927D02*
G01*
X132262812Y-110893624D01*
X132426784Y-110961544D01*
X132574354Y-111060147D01*
X132699853Y-111185646D01*
X132798456Y-111333216D01*
X132866376Y-111497188D01*
X132896073Y-111646488D01*
X132898000Y-111656174D01*
X132901000Y-111671259D01*
X132901000Y-111848741D01*
X132866376Y-112022812D01*
X132798456Y-112186784D01*
X132699853Y-112334354D01*
X132574354Y-112459853D01*
X132426784Y-112558456D01*
X132262812Y-112626376D01*
X132113512Y-112656073D01*
X132088742Y-112661000D01*
X131911258Y-112661000D01*
X131886488Y-112656073D01*
X131737188Y-112626376D01*
X131573216Y-112558456D01*
X131425646Y-112459853D01*
X131300147Y-112334354D01*
X131201544Y-112186784D01*
X131133624Y-112022812D01*
X131099000Y-111848741D01*
X131099000Y-111671259D01*
X131102001Y-111656174D01*
X131103927Y-111646488D01*
X131133624Y-111497188D01*
X131201544Y-111333216D01*
X131300147Y-111185646D01*
X131425646Y-111060147D01*
X131573216Y-110961544D01*
X131737188Y-110893624D01*
X131886488Y-110863927D01*
X131911258Y-110859000D01*
X132088742Y-110859000D01*
X132113512Y-110863927D01*
G37*
G36*
X158381000Y-112661000D02*
G01*
X156579000Y-112661000D01*
X156579000Y-110859000D01*
X158381000Y-110859000D01*
X158381000Y-112661000D01*
G37*
G36*
X171081000Y-112661000D02*
G01*
X169279000Y-112661000D01*
X169279000Y-110859000D01*
X171081000Y-110859000D01*
X171081000Y-112661000D01*
G37*
G36*
X167617000Y-112145000D02*
G01*
X166615000Y-112145000D01*
X166615000Y-111243000D01*
X167617000Y-111243000D01*
X167617000Y-112145000D01*
G37*
G36*
X165617000Y-111195000D02*
G01*
X164615000Y-111195000D01*
X164615000Y-110293000D01*
X165617000Y-110293000D01*
X165617000Y-111195000D01*
G37*
G36*
X162128468Y-109780565D02*
G01*
X162167138Y-109792296D01*
X162202777Y-109811346D01*
X162234017Y-109836983D01*
X162259654Y-109868223D01*
X162278704Y-109903862D01*
X162290435Y-109942532D01*
X162295000Y-109988888D01*
X162295000Y-110640112D01*
X162290435Y-110686468D01*
X162278704Y-110725138D01*
X162259654Y-110760777D01*
X162234017Y-110792017D01*
X162202777Y-110817654D01*
X162167138Y-110836704D01*
X162128468Y-110848435D01*
X162082112Y-110853000D01*
X161005888Y-110853000D01*
X160959532Y-110848435D01*
X160920862Y-110836704D01*
X160885223Y-110817654D01*
X160853983Y-110792017D01*
X160828346Y-110760777D01*
X160809296Y-110725138D01*
X160797565Y-110686468D01*
X160793000Y-110640112D01*
X160793000Y-109988888D01*
X160797565Y-109942532D01*
X160809296Y-109903862D01*
X160828346Y-109868223D01*
X160853983Y-109836983D01*
X160885223Y-109811346D01*
X160920862Y-109792296D01*
X160959532Y-109780565D01*
X161005888Y-109776000D01*
X162082112Y-109776000D01*
X162128468Y-109780565D01*
G37*
G36*
X167617000Y-110245000D02*
G01*
X166615000Y-110245000D01*
X166615000Y-109343000D01*
X167617000Y-109343000D01*
X167617000Y-110245000D01*
G37*
G36*
X172833512Y-108323927D02*
G01*
X172982812Y-108353624D01*
X173146784Y-108421544D01*
X173294354Y-108520147D01*
X173419853Y-108645646D01*
X173518456Y-108793216D01*
X173586376Y-108957188D01*
X173621000Y-109131259D01*
X173621000Y-109308741D01*
X173586376Y-109482812D01*
X173518456Y-109646784D01*
X173419853Y-109794354D01*
X173294354Y-109919853D01*
X173146784Y-110018456D01*
X172982812Y-110086376D01*
X172833512Y-110116073D01*
X172808742Y-110121000D01*
X172631258Y-110121000D01*
X172606488Y-110116073D01*
X172457188Y-110086376D01*
X172293216Y-110018456D01*
X172145646Y-109919853D01*
X172020147Y-109794354D01*
X171921544Y-109646784D01*
X171853624Y-109482812D01*
X171819000Y-109308741D01*
X171819000Y-109131259D01*
X171853624Y-108957188D01*
X171921544Y-108793216D01*
X172020147Y-108645646D01*
X172145646Y-108520147D01*
X172293216Y-108421544D01*
X172457188Y-108353624D01*
X172606488Y-108323927D01*
X172631258Y-108319000D01*
X172808742Y-108319000D01*
X172833512Y-108323927D01*
G37*
G36*
X170293512Y-108323927D02*
G01*
X170442812Y-108353624D01*
X170606784Y-108421544D01*
X170754354Y-108520147D01*
X170879853Y-108645646D01*
X170978456Y-108793216D01*
X171046376Y-108957188D01*
X171081000Y-109131259D01*
X171081000Y-109308741D01*
X171046376Y-109482812D01*
X170978456Y-109646784D01*
X170879853Y-109794354D01*
X170754354Y-109919853D01*
X170606784Y-110018456D01*
X170442812Y-110086376D01*
X170293512Y-110116073D01*
X170268742Y-110121000D01*
X170091258Y-110121000D01*
X170066488Y-110116073D01*
X169917188Y-110086376D01*
X169753216Y-110018456D01*
X169605646Y-109919853D01*
X169480147Y-109794354D01*
X169381544Y-109646784D01*
X169313624Y-109482812D01*
X169279000Y-109308741D01*
X169279000Y-109131259D01*
X169313624Y-108957188D01*
X169381544Y-108793216D01*
X169480147Y-108645646D01*
X169605646Y-108520147D01*
X169753216Y-108421544D01*
X169917188Y-108353624D01*
X170066488Y-108323927D01*
X170091258Y-108319000D01*
X170268742Y-108319000D01*
X170293512Y-108323927D01*
G37*
G36*
X132113512Y-108323927D02*
G01*
X132262812Y-108353624D01*
X132426784Y-108421544D01*
X132574354Y-108520147D01*
X132699853Y-108645646D01*
X132798456Y-108793216D01*
X132866376Y-108957188D01*
X132901000Y-109131259D01*
X132901000Y-109308741D01*
X132866376Y-109482812D01*
X132798456Y-109646784D01*
X132699853Y-109794354D01*
X132574354Y-109919853D01*
X132426784Y-110018456D01*
X132262812Y-110086376D01*
X132113512Y-110116073D01*
X132088742Y-110121000D01*
X131911258Y-110121000D01*
X131886488Y-110116073D01*
X131737188Y-110086376D01*
X131573216Y-110018456D01*
X131425646Y-109919853D01*
X131300147Y-109794354D01*
X131201544Y-109646784D01*
X131133624Y-109482812D01*
X131099000Y-109308741D01*
X131099000Y-109131259D01*
X131133624Y-108957188D01*
X131201544Y-108793216D01*
X131300147Y-108645646D01*
X131425646Y-108520147D01*
X131573216Y-108421544D01*
X131737188Y-108353624D01*
X131886488Y-108323927D01*
X131911258Y-108319000D01*
X132088742Y-108319000D01*
X132113512Y-108323927D01*
G37*
G36*
X140371000Y-109151000D02*
G01*
X138269000Y-109151000D01*
X138269000Y-108049000D01*
X140371000Y-108049000D01*
X140371000Y-109151000D01*
G37*
G36*
X156371000Y-109151000D02*
G01*
X154269000Y-109151000D01*
X154269000Y-108049000D01*
X156371000Y-108049000D01*
X156371000Y-109151000D01*
G37*
G36*
X163869468Y-106949565D02*
G01*
X163908138Y-106961296D01*
X163943777Y-106980346D01*
X163975017Y-107005983D01*
X164000654Y-107037223D01*
X164019704Y-107072862D01*
X164031435Y-107111532D01*
X164036000Y-107157888D01*
X164036000Y-108234112D01*
X164031435Y-108280468D01*
X164019704Y-108319138D01*
X164000654Y-108354777D01*
X163975017Y-108386017D01*
X163943777Y-108411654D01*
X163908138Y-108430704D01*
X163869468Y-108442435D01*
X163823112Y-108447000D01*
X163171888Y-108447000D01*
X163125532Y-108442435D01*
X163086862Y-108430704D01*
X163051223Y-108411654D01*
X163019983Y-108386017D01*
X162994346Y-108354777D01*
X162975296Y-108319138D01*
X162963565Y-108280468D01*
X162959000Y-108234112D01*
X162959000Y-107157888D01*
X162963565Y-107111532D01*
X162975296Y-107072862D01*
X162994346Y-107037223D01*
X163019983Y-107005983D01*
X163051223Y-106980346D01*
X163086862Y-106961296D01*
X163125532Y-106949565D01*
X163171888Y-106945000D01*
X163823112Y-106945000D01*
X163869468Y-106949565D01*
G37*
G36*
X161994468Y-106949565D02*
G01*
X162033138Y-106961296D01*
X162068777Y-106980346D01*
X162100017Y-107005983D01*
X162125654Y-107037223D01*
X162144704Y-107072862D01*
X162156435Y-107111532D01*
X162161000Y-107157888D01*
X162161000Y-108234112D01*
X162156435Y-108280468D01*
X162144704Y-108319138D01*
X162125654Y-108354777D01*
X162100017Y-108386017D01*
X162068777Y-108411654D01*
X162033138Y-108430704D01*
X161994468Y-108442435D01*
X161948112Y-108447000D01*
X161296888Y-108447000D01*
X161250532Y-108442435D01*
X161211862Y-108430704D01*
X161176223Y-108411654D01*
X161144983Y-108386017D01*
X161119346Y-108354777D01*
X161100296Y-108319138D01*
X161088565Y-108280468D01*
X161084000Y-108234112D01*
X161084000Y-107157888D01*
X161088565Y-107111532D01*
X161100296Y-107072862D01*
X161119346Y-107037223D01*
X161144983Y-107005983D01*
X161176223Y-106980346D01*
X161211862Y-106961296D01*
X161250532Y-106949565D01*
X161296888Y-106945000D01*
X161948112Y-106945000D01*
X161994468Y-106949565D01*
G37*
G36*
X159080468Y-106575565D02*
G01*
X159119138Y-106587296D01*
X159154777Y-106606346D01*
X159186017Y-106631983D01*
X159211654Y-106663223D01*
X159230704Y-106698862D01*
X159242435Y-106737532D01*
X159247000Y-106783888D01*
X159247000Y-107435112D01*
X159242435Y-107481468D01*
X159230704Y-107520138D01*
X159211654Y-107555777D01*
X159186017Y-107587017D01*
X159154777Y-107612654D01*
X159119138Y-107631704D01*
X159080468Y-107643435D01*
X159034112Y-107648000D01*
X157957888Y-107648000D01*
X157911532Y-107643435D01*
X157872862Y-107631704D01*
X157837223Y-107612654D01*
X157805983Y-107587017D01*
X157780346Y-107555777D01*
X157761296Y-107520138D01*
X157749565Y-107481468D01*
X157745000Y-107435112D01*
X157745000Y-106783888D01*
X157749565Y-106737532D01*
X157761296Y-106698862D01*
X157780346Y-106663223D01*
X157805983Y-106631983D01*
X157837223Y-106606346D01*
X157872862Y-106587296D01*
X157911532Y-106575565D01*
X157957888Y-106571000D01*
X159034112Y-106571000D01*
X159080468Y-106575565D01*
G37*
G36*
X132113512Y-105783927D02*
G01*
X132262812Y-105813624D01*
X132426784Y-105881544D01*
X132574354Y-105980147D01*
X132699853Y-106105646D01*
X132798456Y-106253216D01*
X132866376Y-106417188D01*
X132896073Y-106566488D01*
X132898000Y-106576174D01*
X132901000Y-106591259D01*
X132901000Y-106768741D01*
X132866376Y-106942812D01*
X132798456Y-107106784D01*
X132699853Y-107254354D01*
X132574354Y-107379853D01*
X132426784Y-107478456D01*
X132262812Y-107546376D01*
X132113512Y-107576073D01*
X132088742Y-107581000D01*
X131911258Y-107581000D01*
X131886488Y-107576073D01*
X131737188Y-107546376D01*
X131573216Y-107478456D01*
X131425646Y-107379853D01*
X131300147Y-107254354D01*
X131201544Y-107106784D01*
X131133624Y-106942812D01*
X131099000Y-106768741D01*
X131099000Y-106591259D01*
X131102001Y-106576174D01*
X131103927Y-106566488D01*
X131133624Y-106417188D01*
X131201544Y-106253216D01*
X131300147Y-106105646D01*
X131425646Y-105980147D01*
X131573216Y-105881544D01*
X131737188Y-105813624D01*
X131886488Y-105783927D01*
X131911258Y-105779000D01*
X132088742Y-105779000D01*
X132113512Y-105783927D01*
G37*
G36*
X156371000Y-107151000D02*
G01*
X154269000Y-107151000D01*
X154269000Y-106049000D01*
X156371000Y-106049000D01*
X156371000Y-107151000D01*
G37*
G36*
X140371000Y-107151000D02*
G01*
X138269000Y-107151000D01*
X138269000Y-106049000D01*
X140371000Y-106049000D01*
X140371000Y-107151000D01*
G37*
G36*
X159080468Y-104700565D02*
G01*
X159119138Y-104712296D01*
X159154777Y-104731346D01*
X159186017Y-104756983D01*
X159211654Y-104788223D01*
X159230704Y-104823862D01*
X159242435Y-104862532D01*
X159247000Y-104908888D01*
X159247000Y-105560112D01*
X159242435Y-105606468D01*
X159230704Y-105645138D01*
X159211654Y-105680777D01*
X159186017Y-105712017D01*
X159154777Y-105737654D01*
X159119138Y-105756704D01*
X159080468Y-105768435D01*
X159034112Y-105773000D01*
X157957888Y-105773000D01*
X157911532Y-105768435D01*
X157872862Y-105756704D01*
X157837223Y-105737654D01*
X157805983Y-105712017D01*
X157780346Y-105680777D01*
X157761296Y-105645138D01*
X157749565Y-105606468D01*
X157745000Y-105560112D01*
X157745000Y-104908888D01*
X157749565Y-104862532D01*
X157761296Y-104823862D01*
X157780346Y-104788223D01*
X157805983Y-104756983D01*
X157837223Y-104731346D01*
X157872862Y-104712296D01*
X157911532Y-104700565D01*
X157957888Y-104696000D01*
X159034112Y-104696000D01*
X159080468Y-104700565D01*
G37*
G36*
X156371000Y-105151000D02*
G01*
X154269000Y-105151000D01*
X154269000Y-104049000D01*
X156371000Y-104049000D01*
X156371000Y-105151000D01*
G37*
G36*
X140371000Y-105151000D02*
G01*
X138269000Y-105151000D01*
X138269000Y-104049000D01*
X140371000Y-104049000D01*
X140371000Y-105151000D01*
G37*
G36*
X171081000Y-105041000D02*
G01*
X169279000Y-105041000D01*
X169279000Y-103239000D01*
X171081000Y-103239000D01*
X171081000Y-105041000D01*
G37*
G36*
X132113512Y-103243927D02*
G01*
X132262812Y-103273624D01*
X132426784Y-103341544D01*
X132574354Y-103440147D01*
X132699853Y-103565646D01*
X132798456Y-103713216D01*
X132866376Y-103877188D01*
X132901000Y-104051259D01*
X132901000Y-104228741D01*
X132866376Y-104402812D01*
X132798456Y-104566784D01*
X132699853Y-104714354D01*
X132574354Y-104839853D01*
X132426784Y-104938456D01*
X132262812Y-105006376D01*
X132113512Y-105036073D01*
X132088742Y-105041000D01*
X131911258Y-105041000D01*
X131886488Y-105036073D01*
X131737188Y-105006376D01*
X131573216Y-104938456D01*
X131425646Y-104839853D01*
X131300147Y-104714354D01*
X131201544Y-104566784D01*
X131133624Y-104402812D01*
X131099000Y-104228741D01*
X131099000Y-104051259D01*
X131133624Y-103877188D01*
X131201544Y-103713216D01*
X131300147Y-103565646D01*
X131425646Y-103440147D01*
X131573216Y-103341544D01*
X131737188Y-103273624D01*
X131886488Y-103243927D01*
X131911258Y-103239000D01*
X132088742Y-103239000D01*
X132113512Y-103243927D01*
G37*
G36*
X172833512Y-103243927D02*
G01*
X172982812Y-103273624D01*
X173146784Y-103341544D01*
X173294354Y-103440147D01*
X173419853Y-103565646D01*
X173518456Y-103713216D01*
X173586376Y-103877188D01*
X173621000Y-104051259D01*
X173621000Y-104228741D01*
X173586376Y-104402812D01*
X173518456Y-104566784D01*
X173419853Y-104714354D01*
X173294354Y-104839853D01*
X173146784Y-104938456D01*
X172982812Y-105006376D01*
X172833512Y-105036073D01*
X172808742Y-105041000D01*
X172631258Y-105041000D01*
X172606488Y-105036073D01*
X172457188Y-105006376D01*
X172293216Y-104938456D01*
X172145646Y-104839853D01*
X172020147Y-104714354D01*
X171921544Y-104566784D01*
X171853624Y-104402812D01*
X171819000Y-104228741D01*
X171819000Y-104051259D01*
X171853624Y-103877188D01*
X171921544Y-103713216D01*
X172020147Y-103565646D01*
X172145646Y-103440147D01*
X172293216Y-103341544D01*
X172457188Y-103273624D01*
X172606488Y-103243927D01*
X172631258Y-103239000D01*
X172808742Y-103239000D01*
X172833512Y-103243927D01*
G37*
G36*
X140371000Y-103151000D02*
G01*
X138269000Y-103151000D01*
X138269000Y-102049000D01*
X140371000Y-102049000D01*
X140371000Y-103151000D01*
G37*
G36*
X156371000Y-103151000D02*
G01*
X154269000Y-103151000D01*
X154269000Y-102049000D01*
X156371000Y-102049000D01*
X156371000Y-103151000D01*
G37*
G36*
X172833512Y-100703927D02*
G01*
X172982812Y-100733624D01*
X173146784Y-100801544D01*
X173294354Y-100900147D01*
X173419853Y-101025646D01*
X173518456Y-101173216D01*
X173586376Y-101337188D01*
X173621000Y-101511259D01*
X173621000Y-101688741D01*
X173586376Y-101862812D01*
X173518456Y-102026784D01*
X173419853Y-102174354D01*
X173294354Y-102299853D01*
X173146784Y-102398456D01*
X172982812Y-102466376D01*
X172833512Y-102496073D01*
X172808742Y-102501000D01*
X172631258Y-102501000D01*
X172606488Y-102496073D01*
X172457188Y-102466376D01*
X172293216Y-102398456D01*
X172145646Y-102299853D01*
X172020147Y-102174354D01*
X171921544Y-102026784D01*
X171853624Y-101862812D01*
X171819000Y-101688741D01*
X171819000Y-101511259D01*
X171853624Y-101337188D01*
X171921544Y-101173216D01*
X172020147Y-101025646D01*
X172145646Y-100900147D01*
X172293216Y-100801544D01*
X172457188Y-100733624D01*
X172606488Y-100703927D01*
X172631258Y-100699000D01*
X172808742Y-100699000D01*
X172833512Y-100703927D01*
G37*
G36*
X170293512Y-100703927D02*
G01*
X170442812Y-100733624D01*
X170606784Y-100801544D01*
X170754354Y-100900147D01*
X170879853Y-101025646D01*
X170978456Y-101173216D01*
X171046376Y-101337188D01*
X171081000Y-101511259D01*
X171081000Y-101688741D01*
X171046376Y-101862812D01*
X170978456Y-102026784D01*
X170879853Y-102174354D01*
X170754354Y-102299853D01*
X170606784Y-102398456D01*
X170442812Y-102466376D01*
X170293512Y-102496073D01*
X170268742Y-102501000D01*
X170091258Y-102501000D01*
X170066488Y-102496073D01*
X169917188Y-102466376D01*
X169753216Y-102398456D01*
X169605646Y-102299853D01*
X169480147Y-102174354D01*
X169381544Y-102026784D01*
X169313624Y-101862812D01*
X169279000Y-101688741D01*
X169279000Y-101511259D01*
X169313624Y-101337188D01*
X169381544Y-101173216D01*
X169480147Y-101025646D01*
X169605646Y-100900147D01*
X169753216Y-100801544D01*
X169917188Y-100733624D01*
X170066488Y-100703927D01*
X170091258Y-100699000D01*
X170268742Y-100699000D01*
X170293512Y-100703927D01*
G37*
G36*
X132113512Y-100703927D02*
G01*
X132262812Y-100733624D01*
X132426784Y-100801544D01*
X132574354Y-100900147D01*
X132699853Y-101025646D01*
X132798456Y-101173216D01*
X132866376Y-101337188D01*
X132901000Y-101511259D01*
X132901000Y-101688741D01*
X132866376Y-101862812D01*
X132798456Y-102026784D01*
X132699853Y-102174354D01*
X132574354Y-102299853D01*
X132426784Y-102398456D01*
X132262812Y-102466376D01*
X132113512Y-102496073D01*
X132088742Y-102501000D01*
X131911258Y-102501000D01*
X131886488Y-102496073D01*
X131737188Y-102466376D01*
X131573216Y-102398456D01*
X131425646Y-102299853D01*
X131300147Y-102174354D01*
X131201544Y-102026784D01*
X131133624Y-101862812D01*
X131099000Y-101688741D01*
X131099000Y-101511259D01*
X131133624Y-101337188D01*
X131201544Y-101173216D01*
X131300147Y-101025646D01*
X131425646Y-100900147D01*
X131573216Y-100801544D01*
X131737188Y-100733624D01*
X131886488Y-100703927D01*
X131911258Y-100699000D01*
X132088742Y-100699000D01*
X132113512Y-100703927D01*
G37*
G36*
X140371000Y-101151000D02*
G01*
X138269000Y-101151000D01*
X138269000Y-100049000D01*
X140371000Y-100049000D01*
X140371000Y-101151000D01*
G37*
G36*
X156371000Y-101151000D02*
G01*
X154269000Y-101151000D01*
X154269000Y-100049000D01*
X156371000Y-100049000D01*
X156371000Y-101151000D01*
G37*
G36*
X164046000Y-100041000D02*
G01*
X162344000Y-100041000D01*
X162344000Y-98439000D01*
X164046000Y-98439000D01*
X164046000Y-100041000D01*
G37*
G36*
X132113512Y-98163927D02*
G01*
X132262812Y-98193624D01*
X132426784Y-98261544D01*
X132574354Y-98360147D01*
X132699853Y-98485646D01*
X132798456Y-98633216D01*
X132866376Y-98797188D01*
X132901000Y-98971259D01*
X132901000Y-99148741D01*
X132866376Y-99322812D01*
X132798456Y-99486784D01*
X132699853Y-99634354D01*
X132574354Y-99759853D01*
X132426784Y-99858456D01*
X132262812Y-99926376D01*
X132113512Y-99956073D01*
X132088742Y-99961000D01*
X131911258Y-99961000D01*
X131886488Y-99956073D01*
X131737188Y-99926376D01*
X131573216Y-99858456D01*
X131425646Y-99759853D01*
X131300147Y-99634354D01*
X131201544Y-99486784D01*
X131133624Y-99322812D01*
X131099000Y-99148741D01*
X131099000Y-98971259D01*
X131133624Y-98797188D01*
X131201544Y-98633216D01*
X131300147Y-98485646D01*
X131425646Y-98360147D01*
X131573216Y-98261544D01*
X131737188Y-98193624D01*
X131886488Y-98163927D01*
X131911258Y-98159000D01*
X132088742Y-98159000D01*
X132113512Y-98163927D01*
G37*
G36*
X166954468Y-98193565D02*
G01*
X166993138Y-98205296D01*
X167028777Y-98224346D01*
X167060017Y-98249983D01*
X167085654Y-98281223D01*
X167104704Y-98316862D01*
X167116435Y-98355532D01*
X167121000Y-98401888D01*
X167121000Y-99053112D01*
X167116435Y-99099468D01*
X167104704Y-99138138D01*
X167085654Y-99173777D01*
X167060017Y-99205017D01*
X167028777Y-99230654D01*
X166993138Y-99249704D01*
X166954468Y-99261435D01*
X166908112Y-99266000D01*
X165831888Y-99266000D01*
X165785532Y-99261435D01*
X165746862Y-99249704D01*
X165711223Y-99230654D01*
X165679983Y-99205017D01*
X165654346Y-99173777D01*
X165635296Y-99138138D01*
X165623565Y-99099468D01*
X165619000Y-99053112D01*
X165619000Y-98401888D01*
X165623565Y-98355532D01*
X165635296Y-98316862D01*
X165654346Y-98281223D01*
X165679983Y-98249983D01*
X165711223Y-98224346D01*
X165746862Y-98205296D01*
X165785532Y-98193565D01*
X165831888Y-98189000D01*
X166908112Y-98189000D01*
X166954468Y-98193565D01*
G37*
G36*
X140371000Y-99151000D02*
G01*
X138269000Y-99151000D01*
X138269000Y-98049000D01*
X140371000Y-98049000D01*
X140371000Y-99151000D01*
G37*
G36*
X156371000Y-99151000D02*
G01*
X154269000Y-99151000D01*
X154269000Y-98049000D01*
X156371000Y-98049000D01*
X156371000Y-99151000D01*
G37*
G36*
X172833512Y-95623927D02*
G01*
X172982812Y-95653624D01*
X173146784Y-95721544D01*
X173294354Y-95820147D01*
X173419853Y-95945646D01*
X173518456Y-96093216D01*
X173586376Y-96257188D01*
X173621000Y-96431259D01*
X173621000Y-96608741D01*
X173586376Y-96782812D01*
X173518456Y-96946784D01*
X173419853Y-97094354D01*
X173294354Y-97219853D01*
X173146784Y-97318456D01*
X172982812Y-97386376D01*
X172833512Y-97416073D01*
X172808742Y-97421000D01*
X172631258Y-97421000D01*
X172606488Y-97416073D01*
X172457188Y-97386376D01*
X172293216Y-97318456D01*
X172145646Y-97219853D01*
X172020147Y-97094354D01*
X171921544Y-96946784D01*
X171853624Y-96782812D01*
X171819000Y-96608741D01*
X171819000Y-96431259D01*
X171853624Y-96257188D01*
X171921544Y-96093216D01*
X172020147Y-95945646D01*
X172145646Y-95820147D01*
X172293216Y-95721544D01*
X172457188Y-95653624D01*
X172606488Y-95623927D01*
X172631258Y-95619000D01*
X172808742Y-95619000D01*
X172833512Y-95623927D01*
G37*
G36*
X171081000Y-97421000D02*
G01*
X169279000Y-97421000D01*
X169279000Y-95619000D01*
X171081000Y-95619000D01*
X171081000Y-97421000D01*
G37*
G36*
X132113512Y-95623927D02*
G01*
X132262812Y-95653624D01*
X132426784Y-95721544D01*
X132574354Y-95820147D01*
X132699853Y-95945646D01*
X132798456Y-96093216D01*
X132866376Y-96257188D01*
X132901000Y-96431259D01*
X132901000Y-96608741D01*
X132866376Y-96782812D01*
X132798456Y-96946784D01*
X132699853Y-97094354D01*
X132574354Y-97219853D01*
X132426784Y-97318456D01*
X132262812Y-97386376D01*
X132113512Y-97416073D01*
X132088742Y-97421000D01*
X131911258Y-97421000D01*
X131886488Y-97416073D01*
X131737188Y-97386376D01*
X131573216Y-97318456D01*
X131425646Y-97219853D01*
X131300147Y-97094354D01*
X131201544Y-96946784D01*
X131133624Y-96782812D01*
X131099000Y-96608741D01*
X131099000Y-96431259D01*
X131133624Y-96257188D01*
X131201544Y-96093216D01*
X131300147Y-95945646D01*
X131425646Y-95820147D01*
X131573216Y-95721544D01*
X131737188Y-95653624D01*
X131886488Y-95623927D01*
X131911258Y-95619000D01*
X132088742Y-95619000D01*
X132113512Y-95623927D01*
G37*
G36*
X166954468Y-96318565D02*
G01*
X166993138Y-96330296D01*
X167028777Y-96349346D01*
X167060017Y-96374983D01*
X167085654Y-96406223D01*
X167104704Y-96441862D01*
X167116435Y-96480532D01*
X167121000Y-96526888D01*
X167121000Y-97178112D01*
X167116435Y-97224468D01*
X167104704Y-97263138D01*
X167085654Y-97298777D01*
X167060017Y-97330017D01*
X167028777Y-97355654D01*
X166993138Y-97374704D01*
X166954468Y-97386435D01*
X166908112Y-97391000D01*
X165831888Y-97391000D01*
X165785532Y-97386435D01*
X165746862Y-97374704D01*
X165711223Y-97355654D01*
X165679983Y-97330017D01*
X165654346Y-97298777D01*
X165635296Y-97263138D01*
X165623565Y-97224468D01*
X165619000Y-97178112D01*
X165619000Y-96526888D01*
X165623565Y-96480532D01*
X165635296Y-96441862D01*
X165654346Y-96406223D01*
X165679983Y-96374983D01*
X165711223Y-96349346D01*
X165746862Y-96330296D01*
X165785532Y-96318565D01*
X165831888Y-96314000D01*
X166908112Y-96314000D01*
X166954468Y-96318565D01*
G37*
G36*
X156371000Y-97151000D02*
G01*
X154269000Y-97151000D01*
X154269000Y-96049000D01*
X156371000Y-96049000D01*
X156371000Y-97151000D01*
G37*
G36*
X140371000Y-97151000D02*
G01*
X138269000Y-97151000D01*
X138269000Y-96049000D01*
X140371000Y-96049000D01*
X140371000Y-97151000D01*
G37*
G36*
X164846000Y-96641000D02*
G01*
X163544000Y-96641000D01*
X163544000Y-95339000D01*
X164846000Y-95339000D01*
X164846000Y-96641000D01*
G37*
G36*
X162846000Y-96641000D02*
G01*
X161544000Y-96641000D01*
X161544000Y-95339000D01*
X162846000Y-95339000D01*
X162846000Y-96641000D01*
G37*
G36*
X156371000Y-95151000D02*
G01*
X154269000Y-95151000D01*
X154269000Y-94049000D01*
X156371000Y-94049000D01*
X156371000Y-95151000D01*
G37*
G36*
X140371000Y-95151000D02*
G01*
X138269000Y-95151000D01*
X138269000Y-94049000D01*
X140371000Y-94049000D01*
X140371000Y-95151000D01*
G37*
G36*
X132113512Y-93083927D02*
G01*
X132262812Y-93113624D01*
X132426784Y-93181544D01*
X132574354Y-93280147D01*
X132699853Y-93405646D01*
X132798456Y-93553216D01*
X132866376Y-93717188D01*
X132901000Y-93891259D01*
X132901000Y-94068741D01*
X132866376Y-94242812D01*
X132798456Y-94406784D01*
X132699853Y-94554354D01*
X132574354Y-94679853D01*
X132426784Y-94778456D01*
X132262812Y-94846376D01*
X132113512Y-94876073D01*
X132088742Y-94881000D01*
X131911258Y-94881000D01*
X131886488Y-94876073D01*
X131737188Y-94846376D01*
X131573216Y-94778456D01*
X131425646Y-94679853D01*
X131300147Y-94554354D01*
X131201544Y-94406784D01*
X131133624Y-94242812D01*
X131099000Y-94068741D01*
X131099000Y-93891259D01*
X131133624Y-93717188D01*
X131201544Y-93553216D01*
X131300147Y-93405646D01*
X131425646Y-93280147D01*
X131573216Y-93181544D01*
X131737188Y-93113624D01*
X131886488Y-93083927D01*
X131911258Y-93079000D01*
X132088742Y-93079000D01*
X132113512Y-93083927D01*
G37*
G36*
X170293512Y-93083927D02*
G01*
X170442812Y-93113624D01*
X170606784Y-93181544D01*
X170754354Y-93280147D01*
X170879853Y-93405646D01*
X170978456Y-93553216D01*
X171046376Y-93717188D01*
X171081000Y-93891259D01*
X171081000Y-94068741D01*
X171046376Y-94242812D01*
X170978456Y-94406784D01*
X170879853Y-94554354D01*
X170754354Y-94679853D01*
X170606784Y-94778456D01*
X170442812Y-94846376D01*
X170293512Y-94876073D01*
X170268742Y-94881000D01*
X170091258Y-94881000D01*
X170066488Y-94876073D01*
X169917188Y-94846376D01*
X169753216Y-94778456D01*
X169605646Y-94679853D01*
X169480147Y-94554354D01*
X169381544Y-94406784D01*
X169313624Y-94242812D01*
X169279000Y-94068741D01*
X169279000Y-93891259D01*
X169313624Y-93717188D01*
X169381544Y-93553216D01*
X169480147Y-93405646D01*
X169605646Y-93280147D01*
X169753216Y-93181544D01*
X169917188Y-93113624D01*
X170066488Y-93083927D01*
X170091258Y-93079000D01*
X170268742Y-93079000D01*
X170293512Y-93083927D01*
G37*
G36*
X172833512Y-93083927D02*
G01*
X172982812Y-93113624D01*
X173146784Y-93181544D01*
X173294354Y-93280147D01*
X173419853Y-93405646D01*
X173518456Y-93553216D01*
X173586376Y-93717188D01*
X173621000Y-93891259D01*
X173621000Y-94068741D01*
X173586376Y-94242812D01*
X173518456Y-94406784D01*
X173419853Y-94554354D01*
X173294354Y-94679853D01*
X173146784Y-94778456D01*
X172982812Y-94846376D01*
X172833512Y-94876073D01*
X172808742Y-94881000D01*
X172631258Y-94881000D01*
X172606488Y-94876073D01*
X172457188Y-94846376D01*
X172293216Y-94778456D01*
X172145646Y-94679853D01*
X172020147Y-94554354D01*
X171921544Y-94406784D01*
X171853624Y-94242812D01*
X171819000Y-94068741D01*
X171819000Y-93891259D01*
X171853624Y-93717188D01*
X171921544Y-93553216D01*
X172020147Y-93405646D01*
X172145646Y-93280147D01*
X172293216Y-93181544D01*
X172457188Y-93113624D01*
X172606488Y-93083927D01*
X172631258Y-93079000D01*
X172808742Y-93079000D01*
X172833512Y-93083927D01*
G37*
G36*
X167421000Y-94381000D02*
G01*
X166719000Y-94381000D01*
X166719000Y-93579000D01*
X167421000Y-93579000D01*
X167421000Y-94381000D01*
G37*
G36*
X166021000Y-94381000D02*
G01*
X165319000Y-94381000D01*
X165319000Y-93579000D01*
X166021000Y-93579000D01*
X166021000Y-94381000D01*
G37*
G36*
X161346000Y-93756000D02*
G01*
X158694000Y-93756000D01*
X158694000Y-92594000D01*
X161346000Y-92594000D01*
X161346000Y-93756000D01*
G37*
G36*
X166409468Y-91328565D02*
G01*
X166448138Y-91340296D01*
X166483777Y-91359346D01*
X166515017Y-91384983D01*
X166540654Y-91416223D01*
X166559704Y-91451862D01*
X166571435Y-91490532D01*
X166576000Y-91536888D01*
X166576000Y-92613112D01*
X166571435Y-92659468D01*
X166559704Y-92698138D01*
X166540654Y-92733777D01*
X166515017Y-92765017D01*
X166483777Y-92790654D01*
X166448138Y-92809704D01*
X166409468Y-92821435D01*
X166363112Y-92826000D01*
X165711888Y-92826000D01*
X165665532Y-92821435D01*
X165626862Y-92809704D01*
X165591223Y-92790654D01*
X165559983Y-92765017D01*
X165534346Y-92733777D01*
X165515296Y-92698138D01*
X165503565Y-92659468D01*
X165499000Y-92613112D01*
X165499000Y-91536888D01*
X165503565Y-91490532D01*
X165515296Y-91451862D01*
X165534346Y-91416223D01*
X165559983Y-91384983D01*
X165591223Y-91359346D01*
X165626862Y-91340296D01*
X165665532Y-91328565D01*
X165711888Y-91324000D01*
X166363112Y-91324000D01*
X166409468Y-91328565D01*
G37*
G36*
X164534468Y-91328565D02*
G01*
X164573138Y-91340296D01*
X164608777Y-91359346D01*
X164640017Y-91384983D01*
X164665654Y-91416223D01*
X164684704Y-91451862D01*
X164696435Y-91490532D01*
X164701000Y-91536888D01*
X164701000Y-92613112D01*
X164696435Y-92659468D01*
X164684704Y-92698138D01*
X164665654Y-92733777D01*
X164640017Y-92765017D01*
X164608777Y-92790654D01*
X164573138Y-92809704D01*
X164534468Y-92821435D01*
X164488112Y-92826000D01*
X163836888Y-92826000D01*
X163790532Y-92821435D01*
X163751862Y-92809704D01*
X163716223Y-92790654D01*
X163684983Y-92765017D01*
X163659346Y-92733777D01*
X163640296Y-92698138D01*
X163628565Y-92659468D01*
X163624000Y-92613112D01*
X163624000Y-91536888D01*
X163628565Y-91490532D01*
X163640296Y-91451862D01*
X163659346Y-91416223D01*
X163684983Y-91384983D01*
X163716223Y-91359346D01*
X163751862Y-91340296D01*
X163790532Y-91328565D01*
X163836888Y-91324000D01*
X164488112Y-91324000D01*
X164534468Y-91328565D01*
G37*
G36*
X132113512Y-90543927D02*
G01*
X132262812Y-90573624D01*
X132426784Y-90641544D01*
X132574354Y-90740147D01*
X132699853Y-90865646D01*
X132798456Y-91013216D01*
X132866376Y-91177188D01*
X132901000Y-91351259D01*
X132901000Y-91528741D01*
X132866376Y-91702812D01*
X132798456Y-91866784D01*
X132699853Y-92014354D01*
X132574354Y-92139853D01*
X132426784Y-92238456D01*
X132262812Y-92306376D01*
X132113512Y-92336073D01*
X132088742Y-92341000D01*
X131911258Y-92341000D01*
X131886488Y-92336073D01*
X131737188Y-92306376D01*
X131573216Y-92238456D01*
X131425646Y-92139853D01*
X131300147Y-92014354D01*
X131201544Y-91866784D01*
X131133624Y-91702812D01*
X131099000Y-91528741D01*
X131099000Y-91351259D01*
X131133624Y-91177188D01*
X131201544Y-91013216D01*
X131300147Y-90865646D01*
X131425646Y-90740147D01*
X131573216Y-90641544D01*
X131737188Y-90573624D01*
X131886488Y-90543927D01*
X131911258Y-90539000D01*
X132088742Y-90539000D01*
X132113512Y-90543927D01*
G37*
G36*
X134950468Y-90573565D02*
G01*
X134989138Y-90585296D01*
X135024777Y-90604346D01*
X135056017Y-90629983D01*
X135081654Y-90661223D01*
X135100704Y-90696862D01*
X135112435Y-90735532D01*
X135117000Y-90781888D01*
X135117000Y-91433112D01*
X135112435Y-91479468D01*
X135100704Y-91518138D01*
X135081654Y-91553777D01*
X135056017Y-91585017D01*
X135024777Y-91610654D01*
X134989138Y-91629704D01*
X134950468Y-91641435D01*
X134904112Y-91646000D01*
X133827888Y-91646000D01*
X133781532Y-91641435D01*
X133742862Y-91629704D01*
X133707223Y-91610654D01*
X133675983Y-91585017D01*
X133650346Y-91553777D01*
X133631296Y-91518138D01*
X133619565Y-91479468D01*
X133615000Y-91433112D01*
X133615000Y-90781888D01*
X133619565Y-90735532D01*
X133631296Y-90696862D01*
X133650346Y-90661223D01*
X133675983Y-90629983D01*
X133707223Y-90604346D01*
X133742862Y-90585296D01*
X133781532Y-90573565D01*
X133827888Y-90569000D01*
X134904112Y-90569000D01*
X134950468Y-90573565D01*
G37*
G36*
X159446000Y-91556000D02*
G01*
X158694000Y-91556000D01*
X158694000Y-90394000D01*
X159446000Y-90394000D01*
X159446000Y-91556000D01*
G37*
G36*
X161346000Y-91556000D02*
G01*
X160594000Y-91556000D01*
X160594000Y-90394000D01*
X161346000Y-90394000D01*
X161346000Y-91556000D01*
G37*
G36*
X166409468Y-89423565D02*
G01*
X166448138Y-89435296D01*
X166483777Y-89454346D01*
X166515017Y-89479983D01*
X166540654Y-89511223D01*
X166559704Y-89546862D01*
X166571435Y-89585532D01*
X166576000Y-89631888D01*
X166576000Y-90708112D01*
X166571435Y-90754468D01*
X166559704Y-90793138D01*
X166540654Y-90828777D01*
X166515017Y-90860017D01*
X166483777Y-90885654D01*
X166448138Y-90904704D01*
X166409468Y-90916435D01*
X166363112Y-90921000D01*
X165711888Y-90921000D01*
X165665532Y-90916435D01*
X165626862Y-90904704D01*
X165591223Y-90885654D01*
X165559983Y-90860017D01*
X165534346Y-90828777D01*
X165515296Y-90793138D01*
X165503565Y-90754468D01*
X165499000Y-90708112D01*
X165499000Y-89631888D01*
X165503565Y-89585532D01*
X165515296Y-89546862D01*
X165534346Y-89511223D01*
X165559983Y-89479983D01*
X165591223Y-89454346D01*
X165626862Y-89435296D01*
X165665532Y-89423565D01*
X165711888Y-89419000D01*
X166363112Y-89419000D01*
X166409468Y-89423565D01*
G37*
G36*
X164534468Y-89423565D02*
G01*
X164573138Y-89435296D01*
X164608777Y-89454346D01*
X164640017Y-89479983D01*
X164665654Y-89511223D01*
X164684704Y-89546862D01*
X164696435Y-89585532D01*
X164701000Y-89631888D01*
X164701000Y-90708112D01*
X164696435Y-90754468D01*
X164684704Y-90793138D01*
X164665654Y-90828777D01*
X164640017Y-90860017D01*
X164608777Y-90885654D01*
X164573138Y-90904704D01*
X164534468Y-90916435D01*
X164488112Y-90921000D01*
X163836888Y-90921000D01*
X163790532Y-90916435D01*
X163751862Y-90904704D01*
X163716223Y-90885654D01*
X163684983Y-90860017D01*
X163659346Y-90828777D01*
X163640296Y-90793138D01*
X163628565Y-90754468D01*
X163624000Y-90708112D01*
X163624000Y-89631888D01*
X163628565Y-89585532D01*
X163640296Y-89546862D01*
X163659346Y-89511223D01*
X163684983Y-89479983D01*
X163716223Y-89454346D01*
X163751862Y-89435296D01*
X163790532Y-89423565D01*
X163836888Y-89419000D01*
X164488112Y-89419000D01*
X164534468Y-89423565D01*
G37*
G36*
X132901000Y-89801000D02*
G01*
X131099000Y-89801000D01*
X131099000Y-87999000D01*
X132901000Y-87999000D01*
X132901000Y-89801000D01*
G37*
G36*
X134950468Y-88698565D02*
G01*
X134989138Y-88710296D01*
X135024777Y-88729346D01*
X135056017Y-88754983D01*
X135081654Y-88786223D01*
X135100704Y-88821862D01*
X135112435Y-88860532D01*
X135117000Y-88906888D01*
X135117000Y-89558112D01*
X135112435Y-89604468D01*
X135100704Y-89643138D01*
X135081654Y-89678777D01*
X135056017Y-89710017D01*
X135024777Y-89735654D01*
X134989138Y-89754704D01*
X134950468Y-89766435D01*
X134904112Y-89771000D01*
X133827888Y-89771000D01*
X133781532Y-89766435D01*
X133742862Y-89754704D01*
X133707223Y-89735654D01*
X133675983Y-89710017D01*
X133650346Y-89678777D01*
X133631296Y-89643138D01*
X133619565Y-89604468D01*
X133615000Y-89558112D01*
X133615000Y-88906888D01*
X133619565Y-88860532D01*
X133631296Y-88821862D01*
X133650346Y-88786223D01*
X133675983Y-88754983D01*
X133707223Y-88729346D01*
X133742862Y-88710296D01*
X133781532Y-88698565D01*
X133827888Y-88694000D01*
X134904112Y-88694000D01*
X134950468Y-88698565D01*
G37*
G36*
X172658228Y-86811703D02*
G01*
X172813100Y-86875853D01*
X172952481Y-86968985D01*
X173071015Y-87087519D01*
X173164147Y-87226900D01*
X173228297Y-87381772D01*
X173261000Y-87546184D01*
X173261000Y-87713816D01*
X173228297Y-87878228D01*
X173164147Y-88033100D01*
X173071015Y-88172481D01*
X172952481Y-88291015D01*
X172813100Y-88384147D01*
X172658228Y-88448297D01*
X172493816Y-88481000D01*
X172326184Y-88481000D01*
X172161772Y-88448297D01*
X172006900Y-88384147D01*
X171867519Y-88291015D01*
X171748985Y-88172481D01*
X171655853Y-88033100D01*
X171591703Y-87878228D01*
X171559000Y-87713816D01*
X171559000Y-87546184D01*
X171591703Y-87381772D01*
X171655853Y-87226900D01*
X171748985Y-87087519D01*
X171867519Y-86968985D01*
X172006900Y-86875853D01*
X172161772Y-86811703D01*
X172326184Y-86779000D01*
X172493816Y-86779000D01*
X172658228Y-86811703D01*
G37*
G36*
X169761000Y-88481000D02*
G01*
X168059000Y-88481000D01*
X168059000Y-86779000D01*
X169761000Y-86779000D01*
X169761000Y-88481000D01*
G37*
G36*
X156871000Y-88041000D02*
G01*
X155219000Y-88041000D01*
X155219000Y-86639000D01*
X156871000Y-86639000D01*
X156871000Y-88041000D01*
G37*
G36*
X152756000Y-88041000D02*
G01*
X151104000Y-88041000D01*
X151104000Y-86639000D01*
X152756000Y-86639000D01*
X152756000Y-88041000D01*
G37*
G36*
X144806000Y-88041000D02*
G01*
X143154000Y-88041000D01*
X143154000Y-86639000D01*
X144806000Y-86639000D01*
X144806000Y-88041000D01*
G37*
G36*
X164821000Y-88041000D02*
G01*
X163169000Y-88041000D01*
X163169000Y-86639000D01*
X164821000Y-86639000D01*
X164821000Y-88041000D01*
G37*
G36*
X152756000Y-83541000D02*
G01*
X151104000Y-83541000D01*
X151104000Y-82139000D01*
X152756000Y-82139000D01*
X152756000Y-83541000D01*
G37*
G36*
X156871000Y-83541000D02*
G01*
X155219000Y-83541000D01*
X155219000Y-82139000D01*
X156871000Y-82139000D01*
X156871000Y-83541000D01*
G37*
G36*
X164821000Y-83541000D02*
G01*
X163169000Y-83541000D01*
X163169000Y-82139000D01*
X164821000Y-82139000D01*
X164821000Y-83541000D01*
G37*
G36*
X144806000Y-83541000D02*
G01*
X143154000Y-83541000D01*
X143154000Y-82139000D01*
X144806000Y-82139000D01*
X144806000Y-83541000D01*
G37*
G36*
X172833512Y-80383927D02*
G01*
X172982812Y-80413624D01*
X173146784Y-80481544D01*
X173294354Y-80580147D01*
X173419853Y-80705646D01*
X173518456Y-80853216D01*
X173586376Y-81017188D01*
X173621000Y-81191259D01*
X173621000Y-81368741D01*
X173586376Y-81542812D01*
X173518456Y-81706784D01*
X173419853Y-81854354D01*
X173294354Y-81979853D01*
X173146784Y-82078456D01*
X172982812Y-82146376D01*
X172833512Y-82176073D01*
X172808742Y-82181000D01*
X172631258Y-82181000D01*
X172606488Y-82176073D01*
X172457188Y-82146376D01*
X172293216Y-82078456D01*
X172145646Y-81979853D01*
X172020147Y-81854354D01*
X171921544Y-81706784D01*
X171853624Y-81542812D01*
X171819000Y-81368741D01*
X171819000Y-81191259D01*
X171853624Y-81017188D01*
X171921544Y-80853216D01*
X172020147Y-80705646D01*
X172145646Y-80580147D01*
X172293216Y-80481544D01*
X172457188Y-80413624D01*
X172606488Y-80383927D01*
X172631258Y-80379000D01*
X172808742Y-80379000D01*
X172833512Y-80383927D01*
G37*
G36*
X171081000Y-82181000D02*
G01*
X169279000Y-82181000D01*
X169279000Y-80379000D01*
X171081000Y-80379000D01*
X171081000Y-82181000D01*
G37*
G36*
X132193512Y-80383927D02*
G01*
X132342812Y-80413624D01*
X132506784Y-80481544D01*
X132654354Y-80580147D01*
X132779853Y-80705646D01*
X132878456Y-80853216D01*
X132946376Y-81017188D01*
X132981000Y-81191259D01*
X132981000Y-81368741D01*
X132946376Y-81542812D01*
X132878456Y-81706784D01*
X132779853Y-81854354D01*
X132654354Y-81979853D01*
X132506784Y-82078456D01*
X132342812Y-82146376D01*
X132193512Y-82176073D01*
X132168742Y-82181000D01*
X131991258Y-82181000D01*
X131966488Y-82176073D01*
X131817188Y-82146376D01*
X131653216Y-82078456D01*
X131505646Y-81979853D01*
X131380147Y-81854354D01*
X131281544Y-81706784D01*
X131213624Y-81542812D01*
X131179000Y-81368741D01*
X131179000Y-81191259D01*
X131213624Y-81017188D01*
X131281544Y-80853216D01*
X131380147Y-80705646D01*
X131505646Y-80580147D01*
X131653216Y-80481544D01*
X131817188Y-80413624D01*
X131966488Y-80383927D01*
X131991258Y-80379000D01*
X132168742Y-80379000D01*
X132193512Y-80383927D01*
G37*
G36*
X170293512Y-77843927D02*
G01*
X170442812Y-77873624D01*
X170606784Y-77941544D01*
X170754354Y-78040147D01*
X170879853Y-78165646D01*
X170978456Y-78313216D01*
X171046376Y-78477188D01*
X171081000Y-78651259D01*
X171081000Y-78828741D01*
X171046376Y-79002812D01*
X170978456Y-79166784D01*
X170879853Y-79314354D01*
X170754354Y-79439853D01*
X170606784Y-79538456D01*
X170442812Y-79606376D01*
X170293512Y-79636073D01*
X170268742Y-79641000D01*
X170091258Y-79641000D01*
X170066488Y-79636073D01*
X169917188Y-79606376D01*
X169753216Y-79538456D01*
X169605646Y-79439853D01*
X169480147Y-79314354D01*
X169381544Y-79166784D01*
X169313624Y-79002812D01*
X169279000Y-78828741D01*
X169279000Y-78651259D01*
X169313624Y-78477188D01*
X169381544Y-78313216D01*
X169480147Y-78165646D01*
X169605646Y-78040147D01*
X169753216Y-77941544D01*
X169917188Y-77873624D01*
X170066488Y-77843927D01*
X170091258Y-77839000D01*
X170268742Y-77839000D01*
X170293512Y-77843927D01*
G37*
G36*
X172833512Y-77843927D02*
G01*
X172982812Y-77873624D01*
X173146784Y-77941544D01*
X173294354Y-78040147D01*
X173419853Y-78165646D01*
X173518456Y-78313216D01*
X173586376Y-78477188D01*
X173621000Y-78651259D01*
X173621000Y-78828741D01*
X173586376Y-79002812D01*
X173518456Y-79166784D01*
X173419853Y-79314354D01*
X173294354Y-79439853D01*
X173146784Y-79538456D01*
X172982812Y-79606376D01*
X172833512Y-79636073D01*
X172808742Y-79641000D01*
X172631258Y-79641000D01*
X172606488Y-79636073D01*
X172457188Y-79606376D01*
X172293216Y-79538456D01*
X172145646Y-79439853D01*
X172020147Y-79314354D01*
X171921544Y-79166784D01*
X171853624Y-79002812D01*
X171819000Y-78828741D01*
X171819000Y-78651259D01*
X171853624Y-78477188D01*
X171921544Y-78313216D01*
X172020147Y-78165646D01*
X172145646Y-78040147D01*
X172293216Y-77941544D01*
X172457188Y-77873624D01*
X172606488Y-77843927D01*
X172631258Y-77839000D01*
X172808742Y-77839000D01*
X172833512Y-77843927D01*
G37*
G36*
X132193512Y-77843927D02*
G01*
X132342812Y-77873624D01*
X132506784Y-77941544D01*
X132654354Y-78040147D01*
X132779853Y-78165646D01*
X132878456Y-78313216D01*
X132946376Y-78477188D01*
X132981000Y-78651259D01*
X132981000Y-78828741D01*
X132946376Y-79002812D01*
X132878456Y-79166784D01*
X132779853Y-79314354D01*
X132654354Y-79439853D01*
X132506784Y-79538456D01*
X132342812Y-79606376D01*
X132193512Y-79636073D01*
X132168742Y-79641000D01*
X131991258Y-79641000D01*
X131966488Y-79636073D01*
X131817188Y-79606376D01*
X131653216Y-79538456D01*
X131505646Y-79439853D01*
X131380147Y-79314354D01*
X131281544Y-79166784D01*
X131213624Y-79002812D01*
X131179000Y-78828741D01*
X131179000Y-78651259D01*
X131213624Y-78477188D01*
X131281544Y-78313216D01*
X131380147Y-78165646D01*
X131505646Y-78040147D01*
X131653216Y-77941544D01*
X131817188Y-77873624D01*
X131966488Y-77843927D01*
X131991258Y-77839000D01*
X132168742Y-77839000D01*
X132193512Y-77843927D01*
G37*
G36*
X132193512Y-75303927D02*
G01*
X132342812Y-75333624D01*
X132506784Y-75401544D01*
X132654354Y-75500147D01*
X132779853Y-75625646D01*
X132878456Y-75773216D01*
X132946376Y-75937188D01*
X132981000Y-76111259D01*
X132981000Y-76288741D01*
X132946376Y-76462812D01*
X132878456Y-76626784D01*
X132779853Y-76774354D01*
X132654354Y-76899853D01*
X132506784Y-76998456D01*
X132342812Y-77066376D01*
X132193512Y-77096073D01*
X132168742Y-77101000D01*
X131991258Y-77101000D01*
X131966488Y-77096073D01*
X131817188Y-77066376D01*
X131653216Y-76998456D01*
X131505646Y-76899853D01*
X131380147Y-76774354D01*
X131281544Y-76626784D01*
X131213624Y-76462812D01*
X131179000Y-76288741D01*
X131179000Y-76111259D01*
X131213624Y-75937188D01*
X131281544Y-75773216D01*
X131380147Y-75625646D01*
X131505646Y-75500147D01*
X131653216Y-75401544D01*
X131817188Y-75333624D01*
X131966488Y-75303927D01*
X131991258Y-75299000D01*
X132168742Y-75299000D01*
X132193512Y-75303927D01*
G37*
G36*
X156076000Y-76981000D02*
G01*
X155074000Y-76981000D01*
X155074000Y-74879000D01*
X156076000Y-74879000D01*
X156076000Y-76981000D01*
G37*
G36*
X152266000Y-76981000D02*
G01*
X151264000Y-76981000D01*
X151264000Y-74879000D01*
X152266000Y-74879000D01*
X152266000Y-76981000D01*
G37*
G36*
X154806000Y-76981000D02*
G01*
X153804000Y-76981000D01*
X153804000Y-74879000D01*
X154806000Y-74879000D01*
X154806000Y-76981000D01*
G37*
G36*
X150996000Y-76981000D02*
G01*
X149994000Y-76981000D01*
X149994000Y-74879000D01*
X150996000Y-74879000D01*
X150996000Y-76981000D01*
G37*
G36*
X149726000Y-76981000D02*
G01*
X148724000Y-76981000D01*
X148724000Y-74879000D01*
X149726000Y-74879000D01*
X149726000Y-76981000D01*
G37*
G36*
X148456000Y-76981000D02*
G01*
X147454000Y-76981000D01*
X147454000Y-74879000D01*
X148456000Y-74879000D01*
X148456000Y-76981000D01*
G37*
G36*
X147186000Y-76981000D02*
G01*
X146184000Y-76981000D01*
X146184000Y-74879000D01*
X147186000Y-74879000D01*
X147186000Y-76981000D01*
G37*
G36*
X145916000Y-76981000D02*
G01*
X144914000Y-76981000D01*
X144914000Y-74879000D01*
X145916000Y-74879000D01*
X145916000Y-76981000D01*
G37*
G36*
X144646000Y-76981000D02*
G01*
X143644000Y-76981000D01*
X143644000Y-74879000D01*
X144646000Y-74879000D01*
X144646000Y-76981000D01*
G37*
G36*
X153536000Y-76981000D02*
G01*
X152534000Y-76981000D01*
X152534000Y-74879000D01*
X153536000Y-74879000D01*
X153536000Y-76981000D01*
G37*
G36*
X173394468Y-74183565D02*
G01*
X173433138Y-74195296D01*
X173468777Y-74214346D01*
X173500017Y-74239983D01*
X173525654Y-74271223D01*
X173544704Y-74306862D01*
X173556435Y-74345532D01*
X173561000Y-74391888D01*
X173561000Y-75468112D01*
X173556435Y-75514468D01*
X173544704Y-75553138D01*
X173525654Y-75588777D01*
X173500017Y-75620017D01*
X173468777Y-75645654D01*
X173433138Y-75664704D01*
X173394468Y-75676435D01*
X173348112Y-75681000D01*
X172696888Y-75681000D01*
X172650532Y-75676435D01*
X172611862Y-75664704D01*
X172576223Y-75645654D01*
X172544983Y-75620017D01*
X172519346Y-75588777D01*
X172500296Y-75553138D01*
X172488565Y-75514468D01*
X172484000Y-75468112D01*
X172484000Y-74391888D01*
X172488565Y-74345532D01*
X172500296Y-74306862D01*
X172519346Y-74271223D01*
X172544983Y-74239983D01*
X172576223Y-74214346D01*
X172611862Y-74195296D01*
X172650532Y-74183565D01*
X172696888Y-74179000D01*
X173348112Y-74179000D01*
X173394468Y-74183565D01*
G37*
G36*
X171519468Y-74183565D02*
G01*
X171558138Y-74195296D01*
X171593777Y-74214346D01*
X171625017Y-74239983D01*
X171650654Y-74271223D01*
X171669704Y-74306862D01*
X171681435Y-74345532D01*
X171686000Y-74391888D01*
X171686000Y-75468112D01*
X171681435Y-75514468D01*
X171669704Y-75553138D01*
X171650654Y-75588777D01*
X171625017Y-75620017D01*
X171593777Y-75645654D01*
X171558138Y-75664704D01*
X171519468Y-75676435D01*
X171473112Y-75681000D01*
X170821888Y-75681000D01*
X170775532Y-75676435D01*
X170736862Y-75664704D01*
X170701223Y-75645654D01*
X170669983Y-75620017D01*
X170644346Y-75588777D01*
X170625296Y-75553138D01*
X170613565Y-75514468D01*
X170609000Y-75468112D01*
X170609000Y-74391888D01*
X170613565Y-74345532D01*
X170625296Y-74306862D01*
X170644346Y-74271223D01*
X170669983Y-74239983D01*
X170701223Y-74214346D01*
X170736862Y-74195296D01*
X170775532Y-74183565D01*
X170821888Y-74179000D01*
X171473112Y-74179000D01*
X171519468Y-74183565D01*
G37*
G36*
X159411000Y-75431000D02*
G01*
X157309000Y-75431000D01*
X157309000Y-74429000D01*
X159411000Y-74429000D01*
X159411000Y-75431000D01*
G37*
G36*
X142411000Y-75431000D02*
G01*
X140309000Y-75431000D01*
X140309000Y-74429000D01*
X142411000Y-74429000D01*
X142411000Y-75431000D01*
G37*
G36*
X132193512Y-72763927D02*
G01*
X132342812Y-72793624D01*
X132506784Y-72861544D01*
X132654354Y-72960147D01*
X132779853Y-73085646D01*
X132878456Y-73233216D01*
X132946376Y-73397188D01*
X132981000Y-73571259D01*
X132981000Y-73748741D01*
X132946376Y-73922812D01*
X132878456Y-74086784D01*
X132779853Y-74234354D01*
X132654354Y-74359853D01*
X132506784Y-74458456D01*
X132342812Y-74526376D01*
X132193512Y-74556073D01*
X132168742Y-74561000D01*
X131991258Y-74561000D01*
X131966488Y-74556073D01*
X131817188Y-74526376D01*
X131653216Y-74458456D01*
X131505646Y-74359853D01*
X131380147Y-74234354D01*
X131281544Y-74086784D01*
X131213624Y-73922812D01*
X131179000Y-73748741D01*
X131179000Y-73571259D01*
X131213624Y-73397188D01*
X131281544Y-73233216D01*
X131380147Y-73085646D01*
X131505646Y-72960147D01*
X131653216Y-72861544D01*
X131817188Y-72793624D01*
X131966488Y-72763927D01*
X131991258Y-72759000D01*
X132168742Y-72759000D01*
X132193512Y-72763927D01*
G37*
G36*
X142411000Y-74161000D02*
G01*
X140309000Y-74161000D01*
X140309000Y-73159000D01*
X142411000Y-73159000D01*
X142411000Y-74161000D01*
G37*
G36*
X159411000Y-74161000D02*
G01*
X157309000Y-74161000D01*
X157309000Y-73159000D01*
X159411000Y-73159000D01*
X159411000Y-74161000D01*
G37*
G36*
X159411000Y-72891000D02*
G01*
X157309000Y-72891000D01*
X157309000Y-71889000D01*
X159411000Y-71889000D01*
X159411000Y-72891000D01*
G37*
G36*
X142411000Y-72891000D02*
G01*
X140309000Y-72891000D01*
X140309000Y-71889000D01*
X142411000Y-71889000D01*
X142411000Y-72891000D01*
G37*
G36*
X172833512Y-70223927D02*
G01*
X172982812Y-70253624D01*
X173146784Y-70321544D01*
X173294354Y-70420147D01*
X173419853Y-70545646D01*
X173518456Y-70693216D01*
X173586376Y-70857188D01*
X173621000Y-71031259D01*
X173621000Y-71208741D01*
X173586376Y-71382812D01*
X173518456Y-71546784D01*
X173419853Y-71694354D01*
X173294354Y-71819853D01*
X173146784Y-71918456D01*
X172982812Y-71986376D01*
X172833512Y-72016073D01*
X172808742Y-72021000D01*
X172631258Y-72021000D01*
X172606488Y-72016073D01*
X172457188Y-71986376D01*
X172293216Y-71918456D01*
X172145646Y-71819853D01*
X172020147Y-71694354D01*
X171921544Y-71546784D01*
X171853624Y-71382812D01*
X171819000Y-71208741D01*
X171819000Y-71031259D01*
X171853624Y-70857188D01*
X171921544Y-70693216D01*
X172020147Y-70545646D01*
X172145646Y-70420147D01*
X172293216Y-70321544D01*
X172457188Y-70253624D01*
X172606488Y-70223927D01*
X172631258Y-70219000D01*
X172808742Y-70219000D01*
X172833512Y-70223927D01*
G37*
G36*
X132193512Y-70223927D02*
G01*
X132342812Y-70253624D01*
X132506784Y-70321544D01*
X132654354Y-70420147D01*
X132779853Y-70545646D01*
X132878456Y-70693216D01*
X132946376Y-70857188D01*
X132981000Y-71031259D01*
X132981000Y-71208741D01*
X132946376Y-71382812D01*
X132878456Y-71546784D01*
X132779853Y-71694354D01*
X132654354Y-71819853D01*
X132506784Y-71918456D01*
X132342812Y-71986376D01*
X132193512Y-72016073D01*
X132168742Y-72021000D01*
X131991258Y-72021000D01*
X131966488Y-72016073D01*
X131817188Y-71986376D01*
X131653216Y-71918456D01*
X131505646Y-71819853D01*
X131380147Y-71694354D01*
X131281544Y-71546784D01*
X131213624Y-71382812D01*
X131179000Y-71208741D01*
X131179000Y-71031259D01*
X131213624Y-70857188D01*
X131281544Y-70693216D01*
X131380147Y-70545646D01*
X131505646Y-70420147D01*
X131653216Y-70321544D01*
X131817188Y-70253624D01*
X131966488Y-70223927D01*
X131991258Y-70219000D01*
X132168742Y-70219000D01*
X132193512Y-70223927D01*
G37*
G36*
X167753512Y-70223927D02*
G01*
X167902812Y-70253624D01*
X168066784Y-70321544D01*
X168214354Y-70420147D01*
X168339853Y-70545646D01*
X168438456Y-70693216D01*
X168506376Y-70857188D01*
X168541000Y-71031259D01*
X168541000Y-71208741D01*
X168506376Y-71382812D01*
X168438456Y-71546784D01*
X168339853Y-71694354D01*
X168214354Y-71819853D01*
X168066784Y-71918456D01*
X167902812Y-71986376D01*
X167753512Y-72016073D01*
X167728742Y-72021000D01*
X167551258Y-72021000D01*
X167526488Y-72016073D01*
X167377188Y-71986376D01*
X167213216Y-71918456D01*
X167065646Y-71819853D01*
X166940147Y-71694354D01*
X166841544Y-71546784D01*
X166773624Y-71382812D01*
X166739000Y-71208741D01*
X166739000Y-71031259D01*
X166773624Y-70857188D01*
X166841544Y-70693216D01*
X166940147Y-70545646D01*
X167065646Y-70420147D01*
X167213216Y-70321544D01*
X167377188Y-70253624D01*
X167526488Y-70223927D01*
X167551258Y-70219000D01*
X167728742Y-70219000D01*
X167753512Y-70223927D01*
G37*
G36*
X159411000Y-71621000D02*
G01*
X157309000Y-71621000D01*
X157309000Y-70619000D01*
X159411000Y-70619000D01*
X159411000Y-71621000D01*
G37*
G36*
X142411000Y-71621000D02*
G01*
X140309000Y-71621000D01*
X140309000Y-70619000D01*
X142411000Y-70619000D01*
X142411000Y-71621000D01*
G37*
G36*
X159411000Y-70351000D02*
G01*
X157309000Y-70351000D01*
X157309000Y-69349000D01*
X159411000Y-69349000D01*
X159411000Y-70351000D01*
G37*
G36*
X142411000Y-70351000D02*
G01*
X140309000Y-70351000D01*
X140309000Y-69349000D01*
X142411000Y-69349000D01*
X142411000Y-70351000D01*
G37*
G36*
X132193512Y-67683927D02*
G01*
X132342812Y-67713624D01*
X132506784Y-67781544D01*
X132654354Y-67880147D01*
X132779853Y-68005646D01*
X132878456Y-68153216D01*
X132946376Y-68317188D01*
X132981000Y-68491259D01*
X132981000Y-68668741D01*
X132946376Y-68842812D01*
X132878456Y-69006784D01*
X132779853Y-69154354D01*
X132654354Y-69279853D01*
X132506784Y-69378456D01*
X132342812Y-69446376D01*
X132193512Y-69476073D01*
X132168742Y-69481000D01*
X131991258Y-69481000D01*
X131966488Y-69476073D01*
X131817188Y-69446376D01*
X131653216Y-69378456D01*
X131505646Y-69279853D01*
X131380147Y-69154354D01*
X131281544Y-69006784D01*
X131213624Y-68842812D01*
X131179000Y-68668741D01*
X131179000Y-68491259D01*
X131213624Y-68317188D01*
X131281544Y-68153216D01*
X131380147Y-68005646D01*
X131505646Y-67880147D01*
X131653216Y-67781544D01*
X131817188Y-67713624D01*
X131966488Y-67683927D01*
X131991258Y-67679000D01*
X132168742Y-67679000D01*
X132193512Y-67683927D01*
G37*
G36*
X167753512Y-67683927D02*
G01*
X167902812Y-67713624D01*
X168066784Y-67781544D01*
X168214354Y-67880147D01*
X168339853Y-68005646D01*
X168438456Y-68153216D01*
X168506376Y-68317188D01*
X168541000Y-68491259D01*
X168541000Y-68668741D01*
X168506376Y-68842812D01*
X168438456Y-69006784D01*
X168339853Y-69154354D01*
X168214354Y-69279853D01*
X168066784Y-69378456D01*
X167902812Y-69446376D01*
X167753512Y-69476073D01*
X167728742Y-69481000D01*
X167551258Y-69481000D01*
X167526488Y-69476073D01*
X167377188Y-69446376D01*
X167213216Y-69378456D01*
X167065646Y-69279853D01*
X166940147Y-69154354D01*
X166841544Y-69006784D01*
X166773624Y-68842812D01*
X166739000Y-68668741D01*
X166739000Y-68491259D01*
X166773624Y-68317188D01*
X166841544Y-68153216D01*
X166940147Y-68005646D01*
X167065646Y-67880147D01*
X167213216Y-67781544D01*
X167377188Y-67713624D01*
X167526488Y-67683927D01*
X167551258Y-67679000D01*
X167728742Y-67679000D01*
X167753512Y-67683927D01*
G37*
G36*
X172833512Y-67683927D02*
G01*
X172982812Y-67713624D01*
X173146784Y-67781544D01*
X173294354Y-67880147D01*
X173419853Y-68005646D01*
X173518456Y-68153216D01*
X173586376Y-68317188D01*
X173621000Y-68491259D01*
X173621000Y-68668741D01*
X173586376Y-68842812D01*
X173518456Y-69006784D01*
X173419853Y-69154354D01*
X173294354Y-69279853D01*
X173146784Y-69378456D01*
X172982812Y-69446376D01*
X172833512Y-69476073D01*
X172808742Y-69481000D01*
X172631258Y-69481000D01*
X172606488Y-69476073D01*
X172457188Y-69446376D01*
X172293216Y-69378456D01*
X172145646Y-69279853D01*
X172020147Y-69154354D01*
X171921544Y-69006784D01*
X171853624Y-68842812D01*
X171819000Y-68668741D01*
X171819000Y-68491259D01*
X171853624Y-68317188D01*
X171921544Y-68153216D01*
X172020147Y-68005646D01*
X172145646Y-67880147D01*
X172293216Y-67781544D01*
X172457188Y-67713624D01*
X172606488Y-67683927D01*
X172631258Y-67679000D01*
X172808742Y-67679000D01*
X172833512Y-67683927D01*
G37*
G36*
X159411000Y-69081000D02*
G01*
X157309000Y-69081000D01*
X157309000Y-68079000D01*
X159411000Y-68079000D01*
X159411000Y-69081000D01*
G37*
G36*
X142411000Y-69081000D02*
G01*
X140309000Y-69081000D01*
X140309000Y-68079000D01*
X142411000Y-68079000D01*
X142411000Y-69081000D01*
G37*
G36*
X151411000Y-68471000D02*
G01*
X146309000Y-68471000D01*
X146309000Y-63369000D01*
X151411000Y-63369000D01*
X151411000Y-68471000D01*
G37*
G36*
X159411000Y-67811000D02*
G01*
X157309000Y-67811000D01*
X157309000Y-66809000D01*
X159411000Y-66809000D01*
X159411000Y-67811000D01*
G37*
G36*
X142411000Y-67811000D02*
G01*
X140309000Y-67811000D01*
X140309000Y-66809000D01*
X142411000Y-66809000D01*
X142411000Y-67811000D01*
G37*
G36*
X172833512Y-65143927D02*
G01*
X172982812Y-65173624D01*
X173146784Y-65241544D01*
X173294354Y-65340147D01*
X173419853Y-65465646D01*
X173518456Y-65613216D01*
X173586376Y-65777188D01*
X173621000Y-65951259D01*
X173621000Y-66128741D01*
X173586376Y-66302812D01*
X173518456Y-66466784D01*
X173419853Y-66614354D01*
X173294354Y-66739853D01*
X173146784Y-66838456D01*
X172982812Y-66906376D01*
X172833512Y-66936073D01*
X172808742Y-66941000D01*
X172631258Y-66941000D01*
X172606488Y-66936073D01*
X172457188Y-66906376D01*
X172293216Y-66838456D01*
X172145646Y-66739853D01*
X172020147Y-66614354D01*
X171921544Y-66466784D01*
X171853624Y-66302812D01*
X171819000Y-66128741D01*
X171819000Y-65951259D01*
X171853624Y-65777188D01*
X171921544Y-65613216D01*
X172020147Y-65465646D01*
X172145646Y-65340147D01*
X172293216Y-65241544D01*
X172457188Y-65173624D01*
X172606488Y-65143927D01*
X172631258Y-65139000D01*
X172808742Y-65139000D01*
X172833512Y-65143927D01*
G37*
G36*
X168541000Y-66941000D02*
G01*
X166739000Y-66941000D01*
X166739000Y-65139000D01*
X168541000Y-65139000D01*
X168541000Y-66941000D01*
G37*
G36*
X132193512Y-65143927D02*
G01*
X132342812Y-65173624D01*
X132506784Y-65241544D01*
X132654354Y-65340147D01*
X132779853Y-65465646D01*
X132878456Y-65613216D01*
X132946376Y-65777188D01*
X132981000Y-65951259D01*
X132981000Y-66128741D01*
X132946376Y-66302812D01*
X132878456Y-66466784D01*
X132779853Y-66614354D01*
X132654354Y-66739853D01*
X132506784Y-66838456D01*
X132342812Y-66906376D01*
X132193512Y-66936073D01*
X132168742Y-66941000D01*
X131991258Y-66941000D01*
X131966488Y-66936073D01*
X131817188Y-66906376D01*
X131653216Y-66838456D01*
X131505646Y-66739853D01*
X131380147Y-66614354D01*
X131281544Y-66466784D01*
X131213624Y-66302812D01*
X131179000Y-66128741D01*
X131179000Y-65951259D01*
X131213624Y-65777188D01*
X131281544Y-65613216D01*
X131380147Y-65465646D01*
X131505646Y-65340147D01*
X131653216Y-65241544D01*
X131817188Y-65173624D01*
X131966488Y-65143927D01*
X131991258Y-65139000D01*
X132168742Y-65139000D01*
X132193512Y-65143927D01*
G37*
G36*
X142411000Y-66541000D02*
G01*
X140309000Y-66541000D01*
X140309000Y-65539000D01*
X142411000Y-65539000D01*
X142411000Y-66541000D01*
G37*
G36*
X159411000Y-66541000D02*
G01*
X157309000Y-66541000D01*
X157309000Y-65539000D01*
X159411000Y-65539000D01*
X159411000Y-66541000D01*
G37*
G36*
X159411000Y-65271000D02*
G01*
X157309000Y-65271000D01*
X157309000Y-64269000D01*
X159411000Y-64269000D01*
X159411000Y-65271000D01*
G37*
G36*
X142411000Y-65271000D02*
G01*
X140309000Y-65271000D01*
X140309000Y-64269000D01*
X142411000Y-64269000D01*
X142411000Y-65271000D01*
G37*
G36*
X132193512Y-62603927D02*
G01*
X132342812Y-62633624D01*
X132506784Y-62701544D01*
X132654354Y-62800147D01*
X132779853Y-62925646D01*
X132878456Y-63073216D01*
X132946376Y-63237188D01*
X132981000Y-63411259D01*
X132981000Y-63588741D01*
X132946376Y-63762812D01*
X132878456Y-63926784D01*
X132779853Y-64074354D01*
X132654354Y-64199853D01*
X132506784Y-64298456D01*
X132342812Y-64366376D01*
X132193512Y-64396073D01*
X132168742Y-64401000D01*
X131991258Y-64401000D01*
X131966488Y-64396073D01*
X131817188Y-64366376D01*
X131653216Y-64298456D01*
X131505646Y-64199853D01*
X131380147Y-64074354D01*
X131281544Y-63926784D01*
X131213624Y-63762812D01*
X131179000Y-63588741D01*
X131179000Y-63411259D01*
X131213624Y-63237188D01*
X131281544Y-63073216D01*
X131380147Y-62925646D01*
X131505646Y-62800147D01*
X131653216Y-62701544D01*
X131817188Y-62633624D01*
X131966488Y-62603927D01*
X131991258Y-62599000D01*
X132168742Y-62599000D01*
X132193512Y-62603927D01*
G37*
G36*
X172833512Y-62603927D02*
G01*
X172982812Y-62633624D01*
X173146784Y-62701544D01*
X173294354Y-62800147D01*
X173419853Y-62925646D01*
X173518456Y-63073216D01*
X173586376Y-63237188D01*
X173621000Y-63411259D01*
X173621000Y-63588741D01*
X173586376Y-63762812D01*
X173518456Y-63926784D01*
X173419853Y-64074354D01*
X173294354Y-64199853D01*
X173146784Y-64298456D01*
X172982812Y-64366376D01*
X172833512Y-64396073D01*
X172808742Y-64401000D01*
X172631258Y-64401000D01*
X172606488Y-64396073D01*
X172457188Y-64366376D01*
X172293216Y-64298456D01*
X172145646Y-64199853D01*
X172020147Y-64074354D01*
X171921544Y-63926784D01*
X171853624Y-63762812D01*
X171819000Y-63588741D01*
X171819000Y-63411259D01*
X171853624Y-63237188D01*
X171921544Y-63073216D01*
X172020147Y-62925646D01*
X172145646Y-62800147D01*
X172293216Y-62701544D01*
X172457188Y-62633624D01*
X172606488Y-62603927D01*
X172631258Y-62599000D01*
X172808742Y-62599000D01*
X172833512Y-62603927D01*
G37*
G36*
X159411000Y-64001000D02*
G01*
X157309000Y-64001000D01*
X157309000Y-62999000D01*
X159411000Y-62999000D01*
X159411000Y-64001000D01*
G37*
G36*
X142411000Y-64001000D02*
G01*
X140309000Y-64001000D01*
X140309000Y-62999000D01*
X142411000Y-62999000D01*
X142411000Y-64001000D01*
G37*
G36*
X142411000Y-62731000D02*
G01*
X140309000Y-62731000D01*
X140309000Y-61729000D01*
X142411000Y-61729000D01*
X142411000Y-62731000D01*
G37*
G36*
X159411000Y-62731000D02*
G01*
X157309000Y-62731000D01*
X157309000Y-61729000D01*
X159411000Y-61729000D01*
X159411000Y-62731000D01*
G37*
G36*
X167753512Y-60063927D02*
G01*
X167902812Y-60093624D01*
X168066784Y-60161544D01*
X168214354Y-60260147D01*
X168339853Y-60385646D01*
X168438456Y-60533216D01*
X168506376Y-60697188D01*
X168541000Y-60871259D01*
X168541000Y-61048741D01*
X168506376Y-61222812D01*
X168438456Y-61386784D01*
X168339853Y-61534354D01*
X168214354Y-61659853D01*
X168066784Y-61758456D01*
X167902812Y-61826376D01*
X167753512Y-61856073D01*
X167728742Y-61861000D01*
X167551258Y-61861000D01*
X167526488Y-61856073D01*
X167377188Y-61826376D01*
X167213216Y-61758456D01*
X167065646Y-61659853D01*
X166940147Y-61534354D01*
X166841544Y-61386784D01*
X166773624Y-61222812D01*
X166739000Y-61048741D01*
X166739000Y-60871259D01*
X166773624Y-60697188D01*
X166841544Y-60533216D01*
X166940147Y-60385646D01*
X167065646Y-60260147D01*
X167213216Y-60161544D01*
X167377188Y-60093624D01*
X167526488Y-60063927D01*
X167551258Y-60059000D01*
X167728742Y-60059000D01*
X167753512Y-60063927D01*
G37*
G36*
X132193512Y-60063927D02*
G01*
X132342812Y-60093624D01*
X132506784Y-60161544D01*
X132654354Y-60260147D01*
X132779853Y-60385646D01*
X132878456Y-60533216D01*
X132946376Y-60697188D01*
X132981000Y-60871259D01*
X132981000Y-61048741D01*
X132946376Y-61222812D01*
X132878456Y-61386784D01*
X132779853Y-61534354D01*
X132654354Y-61659853D01*
X132506784Y-61758456D01*
X132342812Y-61826376D01*
X132193512Y-61856073D01*
X132168742Y-61861000D01*
X131991258Y-61861000D01*
X131966488Y-61856073D01*
X131817188Y-61826376D01*
X131653216Y-61758456D01*
X131505646Y-61659853D01*
X131380147Y-61534354D01*
X131281544Y-61386784D01*
X131213624Y-61222812D01*
X131179000Y-61048741D01*
X131179000Y-60871259D01*
X131213624Y-60697188D01*
X131281544Y-60533216D01*
X131380147Y-60385646D01*
X131505646Y-60260147D01*
X131653216Y-60161544D01*
X131817188Y-60093624D01*
X131966488Y-60063927D01*
X131991258Y-60059000D01*
X132168742Y-60059000D01*
X132193512Y-60063927D01*
G37*
G36*
X172833512Y-60063927D02*
G01*
X172982812Y-60093624D01*
X173146784Y-60161544D01*
X173294354Y-60260147D01*
X173419853Y-60385646D01*
X173518456Y-60533216D01*
X173586376Y-60697188D01*
X173621000Y-60871259D01*
X173621000Y-61048741D01*
X173586376Y-61222812D01*
X173518456Y-61386784D01*
X173419853Y-61534354D01*
X173294354Y-61659853D01*
X173146784Y-61758456D01*
X172982812Y-61826376D01*
X172833512Y-61856073D01*
X172808742Y-61861000D01*
X172631258Y-61861000D01*
X172606488Y-61856073D01*
X172457188Y-61826376D01*
X172293216Y-61758456D01*
X172145646Y-61659853D01*
X172020147Y-61534354D01*
X171921544Y-61386784D01*
X171853624Y-61222812D01*
X171819000Y-61048741D01*
X171819000Y-60871259D01*
X171853624Y-60697188D01*
X171921544Y-60533216D01*
X172020147Y-60385646D01*
X172145646Y-60260147D01*
X172293216Y-60161544D01*
X172457188Y-60093624D01*
X172606488Y-60063927D01*
X172631258Y-60059000D01*
X172808742Y-60059000D01*
X172833512Y-60063927D01*
G37*
G36*
X142411000Y-61461000D02*
G01*
X140309000Y-61461000D01*
X140309000Y-60459000D01*
X142411000Y-60459000D01*
X142411000Y-61461000D01*
G37*
G36*
X159411000Y-61461000D02*
G01*
X157309000Y-61461000D01*
X157309000Y-60459000D01*
X159411000Y-60459000D01*
X159411000Y-61461000D01*
G37*
G36*
X142411000Y-60191000D02*
G01*
X140309000Y-60191000D01*
X140309000Y-59189000D01*
X142411000Y-59189000D01*
X142411000Y-60191000D01*
G37*
G36*
X159411000Y-60191000D02*
G01*
X157309000Y-60191000D01*
X157309000Y-59189000D01*
X159411000Y-59189000D01*
X159411000Y-60191000D01*
G37*
G36*
X132193512Y-57523927D02*
G01*
X132342812Y-57553624D01*
X132506784Y-57621544D01*
X132654354Y-57720147D01*
X132779853Y-57845646D01*
X132878456Y-57993216D01*
X132946376Y-58157188D01*
X132981000Y-58331259D01*
X132981000Y-58508741D01*
X132946376Y-58682812D01*
X132878456Y-58846784D01*
X132779853Y-58994354D01*
X132654354Y-59119853D01*
X132506784Y-59218456D01*
X132342812Y-59286376D01*
X132193512Y-59316073D01*
X132168742Y-59321000D01*
X131991258Y-59321000D01*
X131966488Y-59316073D01*
X131817188Y-59286376D01*
X131653216Y-59218456D01*
X131505646Y-59119853D01*
X131380147Y-58994354D01*
X131281544Y-58846784D01*
X131213624Y-58682812D01*
X131179000Y-58508741D01*
X131179000Y-58331259D01*
X131213624Y-58157188D01*
X131281544Y-57993216D01*
X131380147Y-57845646D01*
X131505646Y-57720147D01*
X131653216Y-57621544D01*
X131817188Y-57553624D01*
X131966488Y-57523927D01*
X131991258Y-57519000D01*
X132168742Y-57519000D01*
X132193512Y-57523927D01*
G37*
G36*
X172833512Y-57523927D02*
G01*
X172982812Y-57553624D01*
X173146784Y-57621544D01*
X173294354Y-57720147D01*
X173419853Y-57845646D01*
X173518456Y-57993216D01*
X173586376Y-58157188D01*
X173621000Y-58331259D01*
X173621000Y-58508741D01*
X173586376Y-58682812D01*
X173518456Y-58846784D01*
X173419853Y-58994354D01*
X173294354Y-59119853D01*
X173146784Y-59218456D01*
X172982812Y-59286376D01*
X172833512Y-59316073D01*
X172808742Y-59321000D01*
X172631258Y-59321000D01*
X172606488Y-59316073D01*
X172457188Y-59286376D01*
X172293216Y-59218456D01*
X172145646Y-59119853D01*
X172020147Y-58994354D01*
X171921544Y-58846784D01*
X171853624Y-58682812D01*
X171819000Y-58508741D01*
X171819000Y-58331259D01*
X171853624Y-58157188D01*
X171921544Y-57993216D01*
X172020147Y-57845646D01*
X172145646Y-57720147D01*
X172293216Y-57621544D01*
X172457188Y-57553624D01*
X172606488Y-57523927D01*
X172631258Y-57519000D01*
X172808742Y-57519000D01*
X172833512Y-57523927D01*
G37*
G36*
X167753512Y-57523927D02*
G01*
X167902812Y-57553624D01*
X168066784Y-57621544D01*
X168214354Y-57720147D01*
X168339853Y-57845646D01*
X168438456Y-57993216D01*
X168506376Y-58157188D01*
X168541000Y-58331259D01*
X168541000Y-58508741D01*
X168506376Y-58682812D01*
X168438456Y-58846784D01*
X168339853Y-58994354D01*
X168214354Y-59119853D01*
X168066784Y-59218456D01*
X167902812Y-59286376D01*
X167753512Y-59316073D01*
X167728742Y-59321000D01*
X167551258Y-59321000D01*
X167526488Y-59316073D01*
X167377188Y-59286376D01*
X167213216Y-59218456D01*
X167065646Y-59119853D01*
X166940147Y-58994354D01*
X166841544Y-58846784D01*
X166773624Y-58682812D01*
X166739000Y-58508741D01*
X166739000Y-58331259D01*
X166773624Y-58157188D01*
X166841544Y-57993216D01*
X166940147Y-57845646D01*
X167065646Y-57720147D01*
X167213216Y-57621544D01*
X167377188Y-57553624D01*
X167526488Y-57523927D01*
X167551258Y-57519000D01*
X167728742Y-57519000D01*
X167753512Y-57523927D01*
G37*
G36*
X142411000Y-58921000D02*
G01*
X140309000Y-58921000D01*
X140309000Y-57919000D01*
X142411000Y-57919000D01*
X142411000Y-58921000D01*
G37*
G36*
X159411000Y-58921000D02*
G01*
X157309000Y-58921000D01*
X157309000Y-57919000D01*
X159411000Y-57919000D01*
X159411000Y-58921000D01*
G37*
G36*
X172833512Y-54983927D02*
G01*
X172982812Y-55013624D01*
X173146784Y-55081544D01*
X173294354Y-55180147D01*
X173419853Y-55305646D01*
X173518456Y-55453216D01*
X173586376Y-55617188D01*
X173621000Y-55791259D01*
X173621000Y-55968741D01*
X173586376Y-56142812D01*
X173518456Y-56306784D01*
X173419853Y-56454354D01*
X173294354Y-56579853D01*
X173146784Y-56678456D01*
X172982812Y-56746376D01*
X172833512Y-56776073D01*
X172808742Y-56781000D01*
X172631258Y-56781000D01*
X172606488Y-56776073D01*
X172457188Y-56746376D01*
X172293216Y-56678456D01*
X172145646Y-56579853D01*
X172020147Y-56454354D01*
X171921544Y-56306784D01*
X171853624Y-56142812D01*
X171819000Y-55968741D01*
X171819000Y-55791259D01*
X171853624Y-55617188D01*
X171921544Y-55453216D01*
X172020147Y-55305646D01*
X172145646Y-55180147D01*
X172293216Y-55081544D01*
X172457188Y-55013624D01*
X172606488Y-54983927D01*
X172631258Y-54979000D01*
X172808742Y-54979000D01*
X172833512Y-54983927D01*
G37*
G36*
X168541000Y-56781000D02*
G01*
X166739000Y-56781000D01*
X166739000Y-54979000D01*
X168541000Y-54979000D01*
X168541000Y-56781000D01*
G37*
G36*
X132193512Y-54983927D02*
G01*
X132342812Y-55013624D01*
X132506784Y-55081544D01*
X132654354Y-55180147D01*
X132779853Y-55305646D01*
X132878456Y-55453216D01*
X132946376Y-55617188D01*
X132981000Y-55791259D01*
X132981000Y-55968741D01*
X132946376Y-56142812D01*
X132878456Y-56306784D01*
X132779853Y-56454354D01*
X132654354Y-56579853D01*
X132506784Y-56678456D01*
X132342812Y-56746376D01*
X132193512Y-56776073D01*
X132168742Y-56781000D01*
X131991258Y-56781000D01*
X131966488Y-56776073D01*
X131817188Y-56746376D01*
X131653216Y-56678456D01*
X131505646Y-56579853D01*
X131380147Y-56454354D01*
X131281544Y-56306784D01*
X131213624Y-56142812D01*
X131179000Y-55968741D01*
X131179000Y-55791259D01*
X131213624Y-55617188D01*
X131281544Y-55453216D01*
X131380147Y-55305646D01*
X131505646Y-55180147D01*
X131653216Y-55081544D01*
X131817188Y-55013624D01*
X131966488Y-54983927D01*
X131991258Y-54979000D01*
X132168742Y-54979000D01*
X132193512Y-54983927D01*
G37*
G36*
X173621000Y-54241000D02*
G01*
X171819000Y-54241000D01*
X171819000Y-52439000D01*
X173621000Y-52439000D01*
X173621000Y-54241000D01*
G37*
G36*
X132981000Y-54241000D02*
G01*
X131179000Y-54241000D01*
X131179000Y-52439000D01*
X132981000Y-52439000D01*
X132981000Y-54241000D01*
G37*
M02*
