G04 #@! TF.GenerationSoftware,KiCad,Pcbnew,5.1.5*
G04 #@! TF.CreationDate,2020-02-16T17:08:25+01:00*
G04 #@! TF.ProjectId,feuchtraumabzweigdose,66657563-6874-4726-9175-6d61627a7765,rev?*
G04 #@! TF.SameCoordinates,Original*
G04 #@! TF.FileFunction,Legend,Bot*
G04 #@! TF.FilePolarity,Positive*
%FSLAX46Y46*%
G04 Gerber Fmt 4.6, Leading zero omitted, Abs format (unit mm)*
G04 Created by KiCad (PCBNEW 5.1.5) date 2020-02-16 17:08:25*
%MOMM*%
%LPD*%
G04 APERTURE LIST*
%ADD10C,0.150000*%
%ADD11C,0.010000*%
%ADD12C,0.120000*%
G04 APERTURE END LIST*
D10*
X137827738Y-56331428D02*
X137494404Y-56331428D01*
X137494404Y-55807619D02*
X137494404Y-56807619D01*
X137970595Y-56807619D01*
X138351547Y-56331428D02*
X138684880Y-56331428D01*
X138827738Y-55807619D02*
X138351547Y-55807619D01*
X138351547Y-56807619D01*
X138827738Y-56807619D01*
X139256309Y-56807619D02*
X139256309Y-55998095D01*
X139303928Y-55902857D01*
X139351547Y-55855238D01*
X139446785Y-55807619D01*
X139637261Y-55807619D01*
X139732500Y-55855238D01*
X139780119Y-55902857D01*
X139827738Y-55998095D01*
X139827738Y-56807619D01*
X140875357Y-55902857D02*
X140827738Y-55855238D01*
X140684880Y-55807619D01*
X140589642Y-55807619D01*
X140446785Y-55855238D01*
X140351547Y-55950476D01*
X140303928Y-56045714D01*
X140256309Y-56236190D01*
X140256309Y-56379047D01*
X140303928Y-56569523D01*
X140351547Y-56664761D01*
X140446785Y-56760000D01*
X140589642Y-56807619D01*
X140684880Y-56807619D01*
X140827738Y-56760000D01*
X140875357Y-56712380D01*
X141303928Y-55807619D02*
X141303928Y-56807619D01*
X141303928Y-56331428D02*
X141875357Y-56331428D01*
X141875357Y-55807619D02*
X141875357Y-56807619D01*
X142208690Y-56807619D02*
X142780119Y-56807619D01*
X142494404Y-55807619D02*
X142494404Y-56807619D01*
X143684880Y-55807619D02*
X143351547Y-56283809D01*
X143113452Y-55807619D02*
X143113452Y-56807619D01*
X143494404Y-56807619D01*
X143589642Y-56760000D01*
X143637261Y-56712380D01*
X143684880Y-56617142D01*
X143684880Y-56474285D01*
X143637261Y-56379047D01*
X143589642Y-56331428D01*
X143494404Y-56283809D01*
X143113452Y-56283809D01*
X144065833Y-56093333D02*
X144542023Y-56093333D01*
X143970595Y-55807619D02*
X144303928Y-56807619D01*
X144637261Y-55807619D01*
X144970595Y-56807619D02*
X144970595Y-55998095D01*
X145018214Y-55902857D01*
X145065833Y-55855238D01*
X145161071Y-55807619D01*
X145351547Y-55807619D01*
X145446785Y-55855238D01*
X145494404Y-55902857D01*
X145542023Y-55998095D01*
X145542023Y-56807619D01*
X146018214Y-55807619D02*
X146018214Y-56807619D01*
X146351547Y-56093333D01*
X146684880Y-56807619D01*
X146684880Y-55807619D01*
X147113452Y-56093333D02*
X147589642Y-56093333D01*
X147018214Y-55807619D02*
X147351547Y-56807619D01*
X147684880Y-55807619D01*
X148351547Y-56331428D02*
X148494404Y-56283809D01*
X148542023Y-56236190D01*
X148589642Y-56140952D01*
X148589642Y-55998095D01*
X148542023Y-55902857D01*
X148494404Y-55855238D01*
X148399166Y-55807619D01*
X148018214Y-55807619D01*
X148018214Y-56807619D01*
X148351547Y-56807619D01*
X148446785Y-56760000D01*
X148494404Y-56712380D01*
X148542023Y-56617142D01*
X148542023Y-56521904D01*
X148494404Y-56426666D01*
X148446785Y-56379047D01*
X148351547Y-56331428D01*
X148018214Y-56331428D01*
X148922976Y-56807619D02*
X149589642Y-56807619D01*
X148922976Y-55807619D01*
X149589642Y-55807619D01*
X149875357Y-56807619D02*
X150113452Y-55807619D01*
X150303928Y-56521904D01*
X150494404Y-55807619D01*
X150732500Y-56807619D01*
X151113452Y-56331428D02*
X151446785Y-56331428D01*
X151589642Y-55807619D02*
X151113452Y-55807619D01*
X151113452Y-56807619D01*
X151589642Y-56807619D01*
X152018214Y-55807619D02*
X152018214Y-56807619D01*
X153018214Y-56760000D02*
X152922976Y-56807619D01*
X152780119Y-56807619D01*
X152637261Y-56760000D01*
X152542023Y-56664761D01*
X152494404Y-56569523D01*
X152446785Y-56379047D01*
X152446785Y-56236190D01*
X152494404Y-56045714D01*
X152542023Y-55950476D01*
X152637261Y-55855238D01*
X152780119Y-55807619D01*
X152875357Y-55807619D01*
X153018214Y-55855238D01*
X153065833Y-55902857D01*
X153065833Y-56236190D01*
X152875357Y-56236190D01*
X153494404Y-55807619D02*
X153494404Y-56807619D01*
X153732500Y-56807619D01*
X153875357Y-56760000D01*
X153970595Y-56664761D01*
X154018214Y-56569523D01*
X154065833Y-56379047D01*
X154065833Y-56236190D01*
X154018214Y-56045714D01*
X153970595Y-55950476D01*
X153875357Y-55855238D01*
X153732500Y-55807619D01*
X153494404Y-55807619D01*
X154684880Y-56807619D02*
X154875357Y-56807619D01*
X154970595Y-56760000D01*
X155065833Y-56664761D01*
X155113452Y-56474285D01*
X155113452Y-56140952D01*
X155065833Y-55950476D01*
X154970595Y-55855238D01*
X154875357Y-55807619D01*
X154684880Y-55807619D01*
X154589642Y-55855238D01*
X154494404Y-55950476D01*
X154446785Y-56140952D01*
X154446785Y-56474285D01*
X154494404Y-56664761D01*
X154589642Y-56760000D01*
X154684880Y-56807619D01*
X155494404Y-55855238D02*
X155637261Y-55807619D01*
X155875357Y-55807619D01*
X155970595Y-55855238D01*
X156018214Y-55902857D01*
X156065833Y-55998095D01*
X156065833Y-56093333D01*
X156018214Y-56188571D01*
X155970595Y-56236190D01*
X155875357Y-56283809D01*
X155684880Y-56331428D01*
X155589642Y-56379047D01*
X155542023Y-56426666D01*
X155494404Y-56521904D01*
X155494404Y-56617142D01*
X155542023Y-56712380D01*
X155589642Y-56760000D01*
X155684880Y-56807619D01*
X155922976Y-56807619D01*
X156065833Y-56760000D01*
X156494404Y-56331428D02*
X156827738Y-56331428D01*
X156970595Y-55807619D02*
X156494404Y-55807619D01*
X156494404Y-56807619D01*
X156970595Y-56807619D01*
X157399166Y-56474285D02*
X157399166Y-55474285D01*
X157399166Y-56426666D02*
X157494404Y-56474285D01*
X157684880Y-56474285D01*
X157780119Y-56426666D01*
X157827738Y-56379047D01*
X157875357Y-56283809D01*
X157875357Y-55998095D01*
X157827738Y-55902857D01*
X157780119Y-55855238D01*
X157684880Y-55807619D01*
X157494404Y-55807619D01*
X157399166Y-55855238D01*
X158732500Y-55855238D02*
X158637261Y-55807619D01*
X158446785Y-55807619D01*
X158351547Y-55855238D01*
X158303928Y-55902857D01*
X158256309Y-55998095D01*
X158256309Y-56283809D01*
X158303928Y-56379047D01*
X158351547Y-56426666D01*
X158446785Y-56474285D01*
X158637261Y-56474285D01*
X158732500Y-56426666D01*
X159161071Y-55807619D02*
X159161071Y-56807619D01*
X159161071Y-56426666D02*
X159256309Y-56474285D01*
X159446785Y-56474285D01*
X159542023Y-56426666D01*
X159589642Y-56379047D01*
X159637261Y-56283809D01*
X159637261Y-55998095D01*
X159589642Y-55902857D01*
X159542023Y-55855238D01*
X159446785Y-55807619D01*
X159256309Y-55807619D01*
X159161071Y-55855238D01*
X160732500Y-56474285D02*
X160970595Y-55807619D01*
X161208690Y-56474285D01*
X161780119Y-56807619D02*
X161875357Y-56807619D01*
X161970595Y-56760000D01*
X162018214Y-56712380D01*
X162065833Y-56617142D01*
X162113452Y-56426666D01*
X162113452Y-56188571D01*
X162065833Y-55998095D01*
X162018214Y-55902857D01*
X161970595Y-55855238D01*
X161875357Y-55807619D01*
X161780119Y-55807619D01*
X161684880Y-55855238D01*
X161637261Y-55902857D01*
X161589642Y-55998095D01*
X161542023Y-56188571D01*
X161542023Y-56426666D01*
X161589642Y-56617142D01*
X161637261Y-56712380D01*
X161684880Y-56760000D01*
X161780119Y-56807619D01*
X162542023Y-55902857D02*
X162589642Y-55855238D01*
X162542023Y-55807619D01*
X162494404Y-55855238D01*
X162542023Y-55902857D01*
X162542023Y-55807619D01*
X163542023Y-55807619D02*
X162970595Y-55807619D01*
X163256309Y-55807619D02*
X163256309Y-56807619D01*
X163161071Y-56664761D01*
X163065833Y-56569523D01*
X162970595Y-56521904D01*
X138780119Y-54824285D02*
X138780119Y-53824285D01*
X138780119Y-54776666D02*
X138875357Y-54824285D01*
X139065833Y-54824285D01*
X139161071Y-54776666D01*
X139208690Y-54729047D01*
X139256309Y-54633809D01*
X139256309Y-54348095D01*
X139208690Y-54252857D01*
X139161071Y-54205238D01*
X139065833Y-54157619D01*
X138875357Y-54157619D01*
X138780119Y-54205238D01*
X139827738Y-54157619D02*
X139732500Y-54205238D01*
X139684880Y-54300476D01*
X139684880Y-55157619D01*
X140637261Y-54157619D02*
X140637261Y-54681428D01*
X140589642Y-54776666D01*
X140494404Y-54824285D01*
X140303928Y-54824285D01*
X140208690Y-54776666D01*
X140637261Y-54205238D02*
X140542023Y-54157619D01*
X140303928Y-54157619D01*
X140208690Y-54205238D01*
X140161071Y-54300476D01*
X140161071Y-54395714D01*
X140208690Y-54490952D01*
X140303928Y-54538571D01*
X140542023Y-54538571D01*
X140637261Y-54586190D01*
X141018214Y-54824285D02*
X141256309Y-54157619D01*
X141494404Y-54824285D02*
X141256309Y-54157619D01*
X141161071Y-53919523D01*
X141113452Y-53871904D01*
X141018214Y-53824285D01*
X142303928Y-54824285D02*
X142303928Y-54014761D01*
X142256309Y-53919523D01*
X142208690Y-53871904D01*
X142113452Y-53824285D01*
X141970595Y-53824285D01*
X141875357Y-53871904D01*
X142303928Y-54205238D02*
X142208690Y-54157619D01*
X142018214Y-54157619D01*
X141922976Y-54205238D01*
X141875357Y-54252857D01*
X141827738Y-54348095D01*
X141827738Y-54633809D01*
X141875357Y-54729047D01*
X141922976Y-54776666D01*
X142018214Y-54824285D01*
X142208690Y-54824285D01*
X142303928Y-54776666D01*
X142780119Y-54157619D02*
X142780119Y-54824285D01*
X142780119Y-54633809D02*
X142827738Y-54729047D01*
X142875357Y-54776666D01*
X142970595Y-54824285D01*
X143065833Y-54824285D01*
X143542023Y-54157619D02*
X143446785Y-54205238D01*
X143399166Y-54252857D01*
X143351547Y-54348095D01*
X143351547Y-54633809D01*
X143399166Y-54729047D01*
X143446785Y-54776666D01*
X143542023Y-54824285D01*
X143684880Y-54824285D01*
X143780119Y-54776666D01*
X143827738Y-54729047D01*
X143875357Y-54633809D01*
X143875357Y-54348095D01*
X143827738Y-54252857D01*
X143780119Y-54205238D01*
X143684880Y-54157619D01*
X143542023Y-54157619D01*
X144732500Y-54824285D02*
X144732500Y-54157619D01*
X144303928Y-54824285D02*
X144303928Y-54300476D01*
X144351547Y-54205238D01*
X144446785Y-54157619D01*
X144589642Y-54157619D01*
X144684880Y-54205238D01*
X144732500Y-54252857D01*
X145208690Y-54824285D02*
X145208690Y-54157619D01*
X145208690Y-54729047D02*
X145256309Y-54776666D01*
X145351547Y-54824285D01*
X145494404Y-54824285D01*
X145589642Y-54776666D01*
X145637261Y-54681428D01*
X145637261Y-54157619D01*
X146542023Y-54157619D02*
X146542023Y-55157619D01*
X146542023Y-54205238D02*
X146446785Y-54157619D01*
X146256309Y-54157619D01*
X146161071Y-54205238D01*
X146113452Y-54252857D01*
X146065833Y-54348095D01*
X146065833Y-54633809D01*
X146113452Y-54729047D01*
X146161071Y-54776666D01*
X146256309Y-54824285D01*
X146446785Y-54824285D01*
X146542023Y-54776666D01*
X147637261Y-54824285D02*
X148018214Y-54824285D01*
X147780119Y-54157619D02*
X147780119Y-55014761D01*
X147827738Y-55110000D01*
X147922976Y-55157619D01*
X148018214Y-55157619D01*
X148494404Y-54157619D02*
X148399166Y-54205238D01*
X148351547Y-54252857D01*
X148303928Y-54348095D01*
X148303928Y-54633809D01*
X148351547Y-54729047D01*
X148399166Y-54776666D01*
X148494404Y-54824285D01*
X148637261Y-54824285D01*
X148732499Y-54776666D01*
X148780119Y-54729047D01*
X148827738Y-54633809D01*
X148827738Y-54348095D01*
X148780119Y-54252857D01*
X148732499Y-54205238D01*
X148637261Y-54157619D01*
X148494404Y-54157619D01*
X149256309Y-54157619D02*
X149256309Y-54824285D01*
X149256309Y-54633809D02*
X149303928Y-54729047D01*
X149351547Y-54776666D01*
X149446785Y-54824285D01*
X149542023Y-54824285D01*
X150780119Y-54157619D02*
X150684880Y-54205238D01*
X150637261Y-54252857D01*
X150589642Y-54348095D01*
X150589642Y-54633809D01*
X150637261Y-54729047D01*
X150684880Y-54776666D01*
X150780119Y-54824285D01*
X150922976Y-54824285D01*
X151018214Y-54776666D01*
X151065833Y-54729047D01*
X151113452Y-54633809D01*
X151113452Y-54348095D01*
X151065833Y-54252857D01*
X151018214Y-54205238D01*
X150922976Y-54157619D01*
X150780119Y-54157619D01*
X151542023Y-54824285D02*
X151542023Y-53824285D01*
X151542023Y-54776666D02*
X151637261Y-54824285D01*
X151827738Y-54824285D01*
X151922976Y-54776666D01*
X151970595Y-54729047D01*
X152018214Y-54633809D01*
X152018214Y-54348095D01*
X151970595Y-54252857D01*
X151922976Y-54205238D01*
X151827738Y-54157619D01*
X151637261Y-54157619D01*
X151542023Y-54205238D01*
X152827738Y-54205238D02*
X152732499Y-54157619D01*
X152542023Y-54157619D01*
X152446785Y-54205238D01*
X152399166Y-54300476D01*
X152399166Y-54681428D01*
X152446785Y-54776666D01*
X152542023Y-54824285D01*
X152732499Y-54824285D01*
X152827738Y-54776666D01*
X152875357Y-54681428D01*
X152875357Y-54586190D01*
X152399166Y-54490952D01*
X153303928Y-54824285D02*
X153303928Y-54157619D01*
X153303928Y-54729047D02*
X153351547Y-54776666D01*
X153446785Y-54824285D01*
X153589642Y-54824285D01*
X153684880Y-54776666D01*
X153732499Y-54681428D01*
X153732499Y-54157619D01*
X154970595Y-54157619D02*
X154970595Y-55157619D01*
X154970595Y-54776666D02*
X155065833Y-54824285D01*
X155256309Y-54824285D01*
X155351547Y-54776666D01*
X155399166Y-54729047D01*
X155446785Y-54633809D01*
X155446785Y-54348095D01*
X155399166Y-54252857D01*
X155351547Y-54205238D01*
X155256309Y-54157619D01*
X155065833Y-54157619D01*
X154970595Y-54205238D01*
X155875357Y-54157619D02*
X155875357Y-54824285D01*
X155875357Y-55157619D02*
X155827738Y-55110000D01*
X155875357Y-55062380D01*
X155922976Y-55110000D01*
X155875357Y-55157619D01*
X155875357Y-55062380D01*
X156351547Y-54157619D02*
X156351547Y-55157619D01*
X156446785Y-54538571D02*
X156732499Y-54157619D01*
X156732499Y-54824285D02*
X156351547Y-54443333D01*
X157542023Y-54205238D02*
X157446785Y-54157619D01*
X157256309Y-54157619D01*
X157161071Y-54205238D01*
X157113452Y-54300476D01*
X157113452Y-54681428D01*
X157161071Y-54776666D01*
X157256309Y-54824285D01*
X157446785Y-54824285D01*
X157542023Y-54776666D01*
X157589642Y-54681428D01*
X157589642Y-54586190D01*
X157113452Y-54490952D01*
X158780119Y-54824285D02*
X158780119Y-53824285D01*
X158780119Y-54776666D02*
X158875357Y-54824285D01*
X159065833Y-54824285D01*
X159161071Y-54776666D01*
X159208690Y-54729047D01*
X159256309Y-54633809D01*
X159256309Y-54348095D01*
X159208690Y-54252857D01*
X159161071Y-54205238D01*
X159065833Y-54157619D01*
X158875357Y-54157619D01*
X158780119Y-54205238D01*
X159684880Y-54157619D02*
X159684880Y-54824285D01*
X159684880Y-54633809D02*
X159732499Y-54729047D01*
X159780119Y-54776666D01*
X159875357Y-54824285D01*
X159970595Y-54824285D01*
X160446785Y-54157619D02*
X160351547Y-54205238D01*
X160303928Y-54252857D01*
X160256309Y-54348095D01*
X160256309Y-54633809D01*
X160303928Y-54729047D01*
X160351547Y-54776666D01*
X160446785Y-54824285D01*
X160589642Y-54824285D01*
X160684880Y-54776666D01*
X160732499Y-54729047D01*
X160780119Y-54633809D01*
X160780119Y-54348095D01*
X160732499Y-54252857D01*
X160684880Y-54205238D01*
X160589642Y-54157619D01*
X160446785Y-54157619D01*
X161208690Y-54824285D02*
X161208690Y-53967142D01*
X161161071Y-53871904D01*
X161065833Y-53824285D01*
X161018214Y-53824285D01*
X161208690Y-55157619D02*
X161161071Y-55110000D01*
X161208690Y-55062380D01*
X161256309Y-55110000D01*
X161208690Y-55157619D01*
X161208690Y-55062380D01*
X162065833Y-54205238D02*
X161970595Y-54157619D01*
X161780119Y-54157619D01*
X161684880Y-54205238D01*
X161637261Y-54300476D01*
X161637261Y-54681428D01*
X161684880Y-54776666D01*
X161780119Y-54824285D01*
X161970595Y-54824285D01*
X162065833Y-54776666D01*
X162113452Y-54681428D01*
X162113452Y-54586190D01*
X161637261Y-54490952D01*
X162970595Y-54205238D02*
X162875357Y-54157619D01*
X162684880Y-54157619D01*
X162589642Y-54205238D01*
X162542023Y-54252857D01*
X162494404Y-54348095D01*
X162494404Y-54633809D01*
X162542023Y-54729047D01*
X162589642Y-54776666D01*
X162684880Y-54824285D01*
X162875357Y-54824285D01*
X162970595Y-54776666D01*
X163256309Y-54824285D02*
X163637261Y-54824285D01*
X163399166Y-55157619D02*
X163399166Y-54300476D01*
X163446785Y-54205238D01*
X163542023Y-54157619D01*
X163637261Y-54157619D01*
X156637261Y-52412380D02*
X157399166Y-52412380D01*
X157494404Y-53412380D02*
X157684880Y-53555238D01*
X157875357Y-53412380D01*
X158827738Y-53174285D02*
X159208690Y-53174285D01*
X158970595Y-52507619D02*
X158970595Y-53364761D01*
X159018214Y-53460000D01*
X159113452Y-53507619D01*
X159208690Y-53507619D01*
X159922976Y-52555238D02*
X159827738Y-52507619D01*
X159637261Y-52507619D01*
X159542023Y-52555238D01*
X159494404Y-52650476D01*
X159494404Y-53031428D01*
X159542023Y-53126666D01*
X159637261Y-53174285D01*
X159827738Y-53174285D01*
X159922976Y-53126666D01*
X159970595Y-53031428D01*
X159970595Y-52936190D01*
X159494404Y-52840952D01*
X160399166Y-52507619D02*
X160399166Y-53507619D01*
X160399166Y-53126666D02*
X160494404Y-53174285D01*
X160684880Y-53174285D01*
X160780119Y-53126666D01*
X160827738Y-53079047D01*
X160875357Y-52983809D01*
X160875357Y-52698095D01*
X160827738Y-52602857D01*
X160780119Y-52555238D01*
X160684880Y-52507619D01*
X160494404Y-52507619D01*
X160399166Y-52555238D01*
X162018214Y-53412380D02*
X162065833Y-53460000D01*
X162161071Y-53507619D01*
X162399166Y-53507619D01*
X162494404Y-53460000D01*
X162542023Y-53412380D01*
X162589642Y-53317142D01*
X162589642Y-53221904D01*
X162542023Y-53079047D01*
X161970595Y-52507619D01*
X162589642Y-52507619D01*
X163208690Y-53507619D02*
X163303928Y-53507619D01*
X163399166Y-53460000D01*
X163446785Y-53412380D01*
X163494404Y-53317142D01*
X163542023Y-53126666D01*
X163542023Y-52888571D01*
X163494404Y-52698095D01*
X163446785Y-52602857D01*
X163399166Y-52555238D01*
X163303928Y-52507619D01*
X163208690Y-52507619D01*
X163113452Y-52555238D01*
X163065833Y-52602857D01*
X163018214Y-52698095D01*
X162970595Y-52888571D01*
X162970595Y-53126666D01*
X163018214Y-53317142D01*
X163065833Y-53412380D01*
X163113452Y-53460000D01*
X163208690Y-53507619D01*
D11*
G36*
X156258367Y-67742871D02*
G01*
X156312043Y-67697097D01*
X156371093Y-67608213D01*
X156397145Y-67487492D01*
X156394461Y-67298672D01*
X156379473Y-67123710D01*
X156360427Y-66877911D01*
X156365410Y-66732090D01*
X156397417Y-66658349D01*
X156431735Y-66636750D01*
X156500995Y-66546560D01*
X156496386Y-66432586D01*
X156470532Y-66341933D01*
X156415613Y-66291860D01*
X156299675Y-66270385D01*
X156090767Y-66265526D01*
X156050824Y-66265489D01*
X155826935Y-66268454D01*
X155703086Y-66285059D01*
X155649740Y-66326873D01*
X155637363Y-66405461D01*
X155637204Y-66427479D01*
X155669287Y-66556315D01*
X155758318Y-66589469D01*
X155853250Y-66650852D01*
X155920620Y-66825541D01*
X155956084Y-67099350D01*
X155960471Y-67249803D01*
X155936308Y-67408139D01*
X155850622Y-67467447D01*
X155686195Y-67435629D01*
X155615569Y-67408091D01*
X155462356Y-67337729D01*
X155373574Y-67262708D01*
X155323544Y-67143962D01*
X155286589Y-66942427D01*
X155279779Y-66897250D01*
X155258376Y-66709399D01*
X155271663Y-66617176D01*
X155325476Y-66589867D01*
X155338266Y-66589469D01*
X155424105Y-66534640D01*
X155442817Y-66435036D01*
X155412417Y-66320404D01*
X155308565Y-66248295D01*
X155112279Y-66211202D01*
X154852440Y-66201578D01*
X154671486Y-66206071D01*
X154589251Y-66233327D01*
X154574930Y-66301876D01*
X154584611Y-66362683D01*
X154637121Y-66484508D01*
X154700851Y-66524673D01*
X154762314Y-66545665D01*
X154808760Y-66623767D01*
X154847819Y-66781673D01*
X154887122Y-67042074D01*
X154894790Y-67101419D01*
X154916026Y-67300754D01*
X154910226Y-67398616D01*
X154871893Y-67421322D01*
X154830415Y-67409597D01*
X154754318Y-67402890D01*
X154736756Y-67485152D01*
X154741995Y-67545606D01*
X154766784Y-67654392D01*
X154832670Y-67710596D01*
X154976096Y-67736149D01*
X155070240Y-67743147D01*
X155268920Y-67742258D01*
X155369783Y-67711068D01*
X155378021Y-67692886D01*
X155426778Y-67667536D01*
X155561395Y-67717741D01*
X155569191Y-67721734D01*
X155817416Y-67804929D01*
X156061529Y-67811498D01*
X156258367Y-67742871D01*
G37*
X156258367Y-67742871D02*
X156312043Y-67697097D01*
X156371093Y-67608213D01*
X156397145Y-67487492D01*
X156394461Y-67298672D01*
X156379473Y-67123710D01*
X156360427Y-66877911D01*
X156365410Y-66732090D01*
X156397417Y-66658349D01*
X156431735Y-66636750D01*
X156500995Y-66546560D01*
X156496386Y-66432586D01*
X156470532Y-66341933D01*
X156415613Y-66291860D01*
X156299675Y-66270385D01*
X156090767Y-66265526D01*
X156050824Y-66265489D01*
X155826935Y-66268454D01*
X155703086Y-66285059D01*
X155649740Y-66326873D01*
X155637363Y-66405461D01*
X155637204Y-66427479D01*
X155669287Y-66556315D01*
X155758318Y-66589469D01*
X155853250Y-66650852D01*
X155920620Y-66825541D01*
X155956084Y-67099350D01*
X155960471Y-67249803D01*
X155936308Y-67408139D01*
X155850622Y-67467447D01*
X155686195Y-67435629D01*
X155615569Y-67408091D01*
X155462356Y-67337729D01*
X155373574Y-67262708D01*
X155323544Y-67143962D01*
X155286589Y-66942427D01*
X155279779Y-66897250D01*
X155258376Y-66709399D01*
X155271663Y-66617176D01*
X155325476Y-66589867D01*
X155338266Y-66589469D01*
X155424105Y-66534640D01*
X155442817Y-66435036D01*
X155412417Y-66320404D01*
X155308565Y-66248295D01*
X155112279Y-66211202D01*
X154852440Y-66201578D01*
X154671486Y-66206071D01*
X154589251Y-66233327D01*
X154574930Y-66301876D01*
X154584611Y-66362683D01*
X154637121Y-66484508D01*
X154700851Y-66524673D01*
X154762314Y-66545665D01*
X154808760Y-66623767D01*
X154847819Y-66781673D01*
X154887122Y-67042074D01*
X154894790Y-67101419D01*
X154916026Y-67300754D01*
X154910226Y-67398616D01*
X154871893Y-67421322D01*
X154830415Y-67409597D01*
X154754318Y-67402890D01*
X154736756Y-67485152D01*
X154741995Y-67545606D01*
X154766784Y-67654392D01*
X154832670Y-67710596D01*
X154976096Y-67736149D01*
X155070240Y-67743147D01*
X155268920Y-67742258D01*
X155369783Y-67711068D01*
X155378021Y-67692886D01*
X155426778Y-67667536D01*
X155561395Y-67717741D01*
X155569191Y-67721734D01*
X155817416Y-67804929D01*
X156061529Y-67811498D01*
X156258367Y-67742871D01*
G36*
X143844347Y-66284505D02*
G01*
X143348602Y-66242599D01*
X142989641Y-66214230D01*
X142735769Y-66202329D01*
X142563135Y-66210333D01*
X142447893Y-66241682D01*
X142366195Y-66299811D01*
X142294194Y-66388161D01*
X142289055Y-66395349D01*
X142226142Y-66487191D01*
X142200371Y-66552683D01*
X142227752Y-66597596D01*
X142324290Y-66627699D01*
X142505995Y-66648762D01*
X142788874Y-66666554D01*
X143082995Y-66681521D01*
X143844347Y-66719632D01*
X143844347Y-66284505D01*
G37*
X143844347Y-66284505D02*
X143348602Y-66242599D01*
X142989641Y-66214230D01*
X142735769Y-66202329D01*
X142563135Y-66210333D01*
X142447893Y-66241682D01*
X142366195Y-66299811D01*
X142294194Y-66388161D01*
X142289055Y-66395349D01*
X142226142Y-66487191D01*
X142200371Y-66552683D01*
X142227752Y-66597596D01*
X142324290Y-66627699D01*
X142505995Y-66648762D01*
X142788874Y-66666554D01*
X143082995Y-66681521D01*
X143844347Y-66719632D01*
X143844347Y-66284505D01*
G36*
X154014377Y-67681823D02*
G01*
X154164649Y-67642591D01*
X154289606Y-67555751D01*
X154346270Y-67501596D01*
X154492244Y-67303920D01*
X154535674Y-67087412D01*
X154535674Y-66862632D01*
X153887715Y-66816255D01*
X153615881Y-66791863D01*
X153400179Y-66763114D01*
X153267983Y-66734215D01*
X153239755Y-66716700D01*
X153296018Y-66590326D01*
X153439800Y-66505452D01*
X153633595Y-66469487D01*
X153839895Y-66489839D01*
X154008707Y-66564821D01*
X154151611Y-66633242D01*
X154295490Y-66606879D01*
X154321300Y-66595604D01*
X154429922Y-66530402D01*
X154431147Y-66462864D01*
X154401196Y-66421592D01*
X154179380Y-66252084D01*
X153864735Y-66156003D01*
X153600373Y-66135898D01*
X153367471Y-66147788D01*
X153207253Y-66195348D01*
X153064048Y-66296414D01*
X153044140Y-66314086D01*
X152863039Y-66556458D01*
X152800133Y-66838899D01*
X152845617Y-67071110D01*
X153239755Y-67071110D01*
X153297449Y-67062568D01*
X153444095Y-67066628D01*
X153640041Y-67079921D01*
X153845634Y-67099084D01*
X154021224Y-67120748D01*
X154127156Y-67141548D01*
X154139933Y-67147528D01*
X154144289Y-67211627D01*
X154058716Y-67283667D01*
X153919573Y-67342511D01*
X153763218Y-67367019D01*
X153762407Y-67367020D01*
X153586606Y-67335181D01*
X153411602Y-67256377D01*
X153281677Y-67155678D01*
X153239755Y-67071110D01*
X152845617Y-67071110D01*
X152859225Y-67140579D01*
X152883184Y-67195469D01*
X153069817Y-67456542D01*
X153337804Y-67620084D01*
X153691488Y-67688477D01*
X153786954Y-67691000D01*
X154014377Y-67681823D01*
G37*
X154014377Y-67681823D02*
X154164649Y-67642591D01*
X154289606Y-67555751D01*
X154346270Y-67501596D01*
X154492244Y-67303920D01*
X154535674Y-67087412D01*
X154535674Y-66862632D01*
X153887715Y-66816255D01*
X153615881Y-66791863D01*
X153400179Y-66763114D01*
X153267983Y-66734215D01*
X153239755Y-66716700D01*
X153296018Y-66590326D01*
X153439800Y-66505452D01*
X153633595Y-66469487D01*
X153839895Y-66489839D01*
X154008707Y-66564821D01*
X154151611Y-66633242D01*
X154295490Y-66606879D01*
X154321300Y-66595604D01*
X154429922Y-66530402D01*
X154431147Y-66462864D01*
X154401196Y-66421592D01*
X154179380Y-66252084D01*
X153864735Y-66156003D01*
X153600373Y-66135898D01*
X153367471Y-66147788D01*
X153207253Y-66195348D01*
X153064048Y-66296414D01*
X153044140Y-66314086D01*
X152863039Y-66556458D01*
X152800133Y-66838899D01*
X152845617Y-67071110D01*
X153239755Y-67071110D01*
X153297449Y-67062568D01*
X153444095Y-67066628D01*
X153640041Y-67079921D01*
X153845634Y-67099084D01*
X154021224Y-67120748D01*
X154127156Y-67141548D01*
X154139933Y-67147528D01*
X154144289Y-67211627D01*
X154058716Y-67283667D01*
X153919573Y-67342511D01*
X153763218Y-67367019D01*
X153762407Y-67367020D01*
X153586606Y-67335181D01*
X153411602Y-67256377D01*
X153281677Y-67155678D01*
X153239755Y-67071110D01*
X152845617Y-67071110D01*
X152859225Y-67140579D01*
X152883184Y-67195469D01*
X153069817Y-67456542D01*
X153337804Y-67620084D01*
X153691488Y-67688477D01*
X153786954Y-67691000D01*
X154014377Y-67681823D01*
G36*
X149924249Y-67481324D02*
G01*
X150154534Y-67449781D01*
X150309678Y-67386851D01*
X150443898Y-67268954D01*
X150464416Y-67246371D01*
X150591368Y-67067573D01*
X150642592Y-66871986D01*
X150647919Y-66742814D01*
X150634981Y-66550583D01*
X150579349Y-66405953D01*
X150455799Y-66253795D01*
X150396358Y-66193070D01*
X150245886Y-66052267D01*
X150120259Y-65976984D01*
X149967102Y-65946856D01*
X149749421Y-65941510D01*
X149510649Y-65950241D01*
X149350493Y-65986577D01*
X149218572Y-66065726D01*
X149152264Y-66121801D01*
X148978657Y-66354446D01*
X148910649Y-66624948D01*
X148919084Y-66696669D01*
X149352000Y-66696669D01*
X149404323Y-66478206D01*
X149539060Y-66329235D01*
X149722868Y-66260995D01*
X149922401Y-66284722D01*
X150104314Y-66411654D01*
X150124848Y-66436218D01*
X150242051Y-66660175D01*
X150230422Y-66870558D01*
X150127027Y-67030822D01*
X149946687Y-67144713D01*
X149745250Y-67155796D01*
X149556528Y-67078650D01*
X149414331Y-66927851D01*
X149352472Y-66717979D01*
X149352000Y-66696669D01*
X148919084Y-66696669D01*
X148943395Y-66903373D01*
X149072050Y-67159784D01*
X149291768Y-67364248D01*
X149359734Y-67403417D01*
X149584385Y-67476165D01*
X149874876Y-67484932D01*
X149924249Y-67481324D01*
G37*
X149924249Y-67481324D02*
X150154534Y-67449781D01*
X150309678Y-67386851D01*
X150443898Y-67268954D01*
X150464416Y-67246371D01*
X150591368Y-67067573D01*
X150642592Y-66871986D01*
X150647919Y-66742814D01*
X150634981Y-66550583D01*
X150579349Y-66405953D01*
X150455799Y-66253795D01*
X150396358Y-66193070D01*
X150245886Y-66052267D01*
X150120259Y-65976984D01*
X149967102Y-65946856D01*
X149749421Y-65941510D01*
X149510649Y-65950241D01*
X149350493Y-65986577D01*
X149218572Y-66065726D01*
X149152264Y-66121801D01*
X148978657Y-66354446D01*
X148910649Y-66624948D01*
X148919084Y-66696669D01*
X149352000Y-66696669D01*
X149404323Y-66478206D01*
X149539060Y-66329235D01*
X149722868Y-66260995D01*
X149922401Y-66284722D01*
X150104314Y-66411654D01*
X150124848Y-66436218D01*
X150242051Y-66660175D01*
X150230422Y-66870558D01*
X150127027Y-67030822D01*
X149946687Y-67144713D01*
X149745250Y-67155796D01*
X149556528Y-67078650D01*
X149414331Y-66927851D01*
X149352472Y-66717979D01*
X149352000Y-66696669D01*
X148919084Y-66696669D01*
X148943395Y-66903373D01*
X149072050Y-67159784D01*
X149291768Y-67364248D01*
X149359734Y-67403417D01*
X149584385Y-67476165D01*
X149874876Y-67484932D01*
X149924249Y-67481324D01*
G36*
X153623283Y-65666930D02*
G01*
X153685048Y-65601329D01*
X153672890Y-65456408D01*
X153652487Y-65374546D01*
X153601593Y-65276629D01*
X153492771Y-65235176D01*
X153360556Y-65228755D01*
X153199095Y-65235063D01*
X153136110Y-65271535D01*
X153140544Y-65364490D01*
X153150286Y-65406944D01*
X153199613Y-65578686D01*
X153265150Y-65658387D01*
X153387785Y-65681226D01*
X153470365Y-65682326D01*
X153623283Y-65666930D01*
G37*
X153623283Y-65666930D02*
X153685048Y-65601329D01*
X153672890Y-65456408D01*
X153652487Y-65374546D01*
X153601593Y-65276629D01*
X153492771Y-65235176D01*
X153360556Y-65228755D01*
X153199095Y-65235063D01*
X153136110Y-65271535D01*
X153140544Y-65364490D01*
X153150286Y-65406944D01*
X153199613Y-65578686D01*
X153265150Y-65658387D01*
X153387785Y-65681226D01*
X153470365Y-65682326D01*
X153623283Y-65666930D01*
G36*
X156936676Y-65185927D02*
G01*
X157192832Y-65049696D01*
X157273172Y-64972712D01*
X157405073Y-64784523D01*
X157441661Y-64603044D01*
X157439010Y-64559412D01*
X157419092Y-64354010D01*
X156787332Y-64335464D01*
X156454245Y-64317196D01*
X156243758Y-64283014D01*
X156149429Y-64228934D01*
X156164817Y-64150970D01*
X156283479Y-64045137D01*
X156299581Y-64033704D01*
X156505257Y-63943719D01*
X156723415Y-63966611D01*
X156910874Y-64058039D01*
X157060444Y-64135292D01*
X157161128Y-64137850D01*
X157232407Y-64097206D01*
X157311237Y-64018420D01*
X157284884Y-63935794D01*
X157254656Y-63897413D01*
X157040599Y-63732287D01*
X156755149Y-63638766D01*
X156439212Y-63623781D01*
X156133697Y-63694261D01*
X156111168Y-63703696D01*
X155888169Y-63864392D01*
X155753012Y-64095865D01*
X155713213Y-64367198D01*
X155774969Y-64641617D01*
X156196399Y-64641617D01*
X156198482Y-64604010D01*
X156276626Y-64586357D01*
X156451765Y-64581117D01*
X156599101Y-64580796D01*
X156828717Y-64588931D01*
X156993459Y-64610510D01*
X157062282Y-64641296D01*
X157062715Y-64644098D01*
X157013828Y-64721647D01*
X156903358Y-64811814D01*
X156689733Y-64881038D01*
X156458643Y-64846796D01*
X156258966Y-64716943D01*
X156249442Y-64706715D01*
X156196399Y-64641617D01*
X155774969Y-64641617D01*
X155776288Y-64647474D01*
X155849083Y-64781800D01*
X156070985Y-65017221D01*
X156346032Y-65165705D01*
X156644503Y-65223268D01*
X156936676Y-65185927D01*
G37*
X156936676Y-65185927D02*
X157192832Y-65049696D01*
X157273172Y-64972712D01*
X157405073Y-64784523D01*
X157441661Y-64603044D01*
X157439010Y-64559412D01*
X157419092Y-64354010D01*
X156787332Y-64335464D01*
X156454245Y-64317196D01*
X156243758Y-64283014D01*
X156149429Y-64228934D01*
X156164817Y-64150970D01*
X156283479Y-64045137D01*
X156299581Y-64033704D01*
X156505257Y-63943719D01*
X156723415Y-63966611D01*
X156910874Y-64058039D01*
X157060444Y-64135292D01*
X157161128Y-64137850D01*
X157232407Y-64097206D01*
X157311237Y-64018420D01*
X157284884Y-63935794D01*
X157254656Y-63897413D01*
X157040599Y-63732287D01*
X156755149Y-63638766D01*
X156439212Y-63623781D01*
X156133697Y-63694261D01*
X156111168Y-63703696D01*
X155888169Y-63864392D01*
X155753012Y-64095865D01*
X155713213Y-64367198D01*
X155774969Y-64641617D01*
X156196399Y-64641617D01*
X156198482Y-64604010D01*
X156276626Y-64586357D01*
X156451765Y-64581117D01*
X156599101Y-64580796D01*
X156828717Y-64588931D01*
X156993459Y-64610510D01*
X157062282Y-64641296D01*
X157062715Y-64644098D01*
X157013828Y-64721647D01*
X156903358Y-64811814D01*
X156689733Y-64881038D01*
X156458643Y-64846796D01*
X156258966Y-64716943D01*
X156249442Y-64706715D01*
X156196399Y-64641617D01*
X155774969Y-64641617D01*
X155776288Y-64647474D01*
X155849083Y-64781800D01*
X156070985Y-65017221D01*
X156346032Y-65165705D01*
X156644503Y-65223268D01*
X156936676Y-65185927D01*
G36*
X154602738Y-65871879D02*
G01*
X154691317Y-65847290D01*
X154709585Y-65787819D01*
X154699524Y-65730923D01*
X154673451Y-65585798D01*
X154642990Y-65372657D01*
X154611987Y-65125421D01*
X154584288Y-64878010D01*
X154563737Y-64664342D01*
X154554180Y-64518339D01*
X154556925Y-64473150D01*
X154616097Y-64494958D01*
X154740251Y-64574051D01*
X154795887Y-64613953D01*
X154911730Y-64710995D01*
X154950000Y-64768453D01*
X154937038Y-64775183D01*
X154878902Y-64830550D01*
X154859653Y-64937173D01*
X154867039Y-65024252D01*
X154908713Y-65072754D01*
X155013954Y-65093939D01*
X155212039Y-65099069D01*
X155280827Y-65099163D01*
X155507231Y-65096322D01*
X155633336Y-65080294D01*
X155688419Y-65039817D01*
X155701757Y-64963630D01*
X155702000Y-64937173D01*
X155667030Y-64805353D01*
X155600282Y-64775183D01*
X155492888Y-64740240D01*
X155325390Y-64650407D01*
X155200334Y-64569996D01*
X154902103Y-64364808D01*
X155156261Y-64149786D01*
X155317004Y-64026128D01*
X155446669Y-63947918D01*
X155491414Y-63933800D01*
X155552279Y-63877670D01*
X155572408Y-63770847D01*
X155556873Y-63663915D01*
X155485408Y-63617948D01*
X155329424Y-63607972D01*
X155120809Y-63596014D01*
X154941364Y-63568130D01*
X154930514Y-63565367D01*
X154829276Y-63547788D01*
X154794694Y-63591082D01*
X154807508Y-63726123D01*
X154812148Y-63755097D01*
X154818718Y-63947045D01*
X154753757Y-64068121D01*
X154741287Y-64079428D01*
X154589347Y-64197260D01*
X154506731Y-64219475D01*
X154474284Y-64145141D01*
X154470878Y-64066252D01*
X154498724Y-63910262D01*
X154568072Y-63868040D01*
X154642063Y-63818514D01*
X154663521Y-63711762D01*
X154628920Y-63610530D01*
X154584271Y-63579798D01*
X154478790Y-63560733D01*
X154290720Y-63537526D01*
X154124191Y-63521046D01*
X153913680Y-63505071D01*
X153804689Y-63511092D01*
X153769833Y-63547781D01*
X153781726Y-63623813D01*
X153783127Y-63629066D01*
X153813911Y-63762075D01*
X153822034Y-63819444D01*
X153875427Y-63863005D01*
X153917176Y-63868040D01*
X153959879Y-63877136D01*
X153994876Y-63916504D01*
X154026496Y-64004267D01*
X154059066Y-64158546D01*
X154096914Y-64397464D01*
X154144368Y-64739143D01*
X154168646Y-64920974D01*
X154205558Y-65209958D01*
X154222758Y-65394145D01*
X154218990Y-65497008D01*
X154193001Y-65542019D01*
X154143538Y-65552653D01*
X154134904Y-65552734D01*
X154036520Y-65580668D01*
X154026341Y-65679128D01*
X154056637Y-65774221D01*
X154128535Y-65842396D01*
X154291632Y-65873201D01*
X154414249Y-65876714D01*
X154602738Y-65871879D01*
G37*
X154602738Y-65871879D02*
X154691317Y-65847290D01*
X154709585Y-65787819D01*
X154699524Y-65730923D01*
X154673451Y-65585798D01*
X154642990Y-65372657D01*
X154611987Y-65125421D01*
X154584288Y-64878010D01*
X154563737Y-64664342D01*
X154554180Y-64518339D01*
X154556925Y-64473150D01*
X154616097Y-64494958D01*
X154740251Y-64574051D01*
X154795887Y-64613953D01*
X154911730Y-64710995D01*
X154950000Y-64768453D01*
X154937038Y-64775183D01*
X154878902Y-64830550D01*
X154859653Y-64937173D01*
X154867039Y-65024252D01*
X154908713Y-65072754D01*
X155013954Y-65093939D01*
X155212039Y-65099069D01*
X155280827Y-65099163D01*
X155507231Y-65096322D01*
X155633336Y-65080294D01*
X155688419Y-65039817D01*
X155701757Y-64963630D01*
X155702000Y-64937173D01*
X155667030Y-64805353D01*
X155600282Y-64775183D01*
X155492888Y-64740240D01*
X155325390Y-64650407D01*
X155200334Y-64569996D01*
X154902103Y-64364808D01*
X155156261Y-64149786D01*
X155317004Y-64026128D01*
X155446669Y-63947918D01*
X155491414Y-63933800D01*
X155552279Y-63877670D01*
X155572408Y-63770847D01*
X155556873Y-63663915D01*
X155485408Y-63617948D01*
X155329424Y-63607972D01*
X155120809Y-63596014D01*
X154941364Y-63568130D01*
X154930514Y-63565367D01*
X154829276Y-63547788D01*
X154794694Y-63591082D01*
X154807508Y-63726123D01*
X154812148Y-63755097D01*
X154818718Y-63947045D01*
X154753757Y-64068121D01*
X154741287Y-64079428D01*
X154589347Y-64197260D01*
X154506731Y-64219475D01*
X154474284Y-64145141D01*
X154470878Y-64066252D01*
X154498724Y-63910262D01*
X154568072Y-63868040D01*
X154642063Y-63818514D01*
X154663521Y-63711762D01*
X154628920Y-63610530D01*
X154584271Y-63579798D01*
X154478790Y-63560733D01*
X154290720Y-63537526D01*
X154124191Y-63521046D01*
X153913680Y-63505071D01*
X153804689Y-63511092D01*
X153769833Y-63547781D01*
X153781726Y-63623813D01*
X153783127Y-63629066D01*
X153813911Y-63762075D01*
X153822034Y-63819444D01*
X153875427Y-63863005D01*
X153917176Y-63868040D01*
X153959879Y-63877136D01*
X153994876Y-63916504D01*
X154026496Y-64004267D01*
X154059066Y-64158546D01*
X154096914Y-64397464D01*
X154144368Y-64739143D01*
X154168646Y-64920974D01*
X154205558Y-65209958D01*
X154222758Y-65394145D01*
X154218990Y-65497008D01*
X154193001Y-65542019D01*
X154143538Y-65552653D01*
X154134904Y-65552734D01*
X154036520Y-65580668D01*
X154026341Y-65679128D01*
X154056637Y-65774221D01*
X154128535Y-65842396D01*
X154291632Y-65873201D01*
X154414249Y-65876714D01*
X154602738Y-65871879D01*
G36*
X153608148Y-64795296D02*
G01*
X153553481Y-64430847D01*
X153520758Y-64175338D01*
X153509569Y-64010059D01*
X153519502Y-63916300D01*
X153550146Y-63875353D01*
X153587785Y-63868040D01*
X153677485Y-63819277D01*
X153684421Y-63682876D01*
X153653996Y-63581758D01*
X153598783Y-63522861D01*
X153472518Y-63490740D01*
X153248799Y-63479519D01*
X153193493Y-63479265D01*
X152966479Y-63483695D01*
X152844725Y-63501310D01*
X152804072Y-63538592D01*
X152811649Y-63581758D01*
X152846613Y-63705205D01*
X152850980Y-63743748D01*
X152903013Y-63797661D01*
X152940963Y-63803245D01*
X153012973Y-63862552D01*
X153067535Y-64018519D01*
X153072770Y-64046229D01*
X153111214Y-64262129D01*
X153147825Y-64456754D01*
X153149926Y-64467403D01*
X153157715Y-64599802D01*
X153099225Y-64644527D01*
X153078610Y-64645591D01*
X153001726Y-64683528D01*
X152991352Y-64813561D01*
X152992467Y-64823780D01*
X153016575Y-64931567D01*
X153080491Y-64987892D01*
X153220119Y-65013868D01*
X153329658Y-65022082D01*
X153646346Y-65042195D01*
X153608148Y-64795296D01*
G37*
X153608148Y-64795296D02*
X153553481Y-64430847D01*
X153520758Y-64175338D01*
X153509569Y-64010059D01*
X153519502Y-63916300D01*
X153550146Y-63875353D01*
X153587785Y-63868040D01*
X153677485Y-63819277D01*
X153684421Y-63682876D01*
X153653996Y-63581758D01*
X153598783Y-63522861D01*
X153472518Y-63490740D01*
X153248799Y-63479519D01*
X153193493Y-63479265D01*
X152966479Y-63483695D01*
X152844725Y-63501310D01*
X152804072Y-63538592D01*
X152811649Y-63581758D01*
X152846613Y-63705205D01*
X152850980Y-63743748D01*
X152903013Y-63797661D01*
X152940963Y-63803245D01*
X153012973Y-63862552D01*
X153067535Y-64018519D01*
X153072770Y-64046229D01*
X153111214Y-64262129D01*
X153147825Y-64456754D01*
X153149926Y-64467403D01*
X153157715Y-64599802D01*
X153099225Y-64644527D01*
X153078610Y-64645591D01*
X153001726Y-64683528D01*
X152991352Y-64813561D01*
X152992467Y-64823780D01*
X153016575Y-64931567D01*
X153080491Y-64987892D01*
X153220119Y-65013868D01*
X153329658Y-65022082D01*
X153646346Y-65042195D01*
X153608148Y-64795296D01*
G36*
X152173556Y-67572184D02*
G01*
X152328483Y-67510481D01*
X152459662Y-67401854D01*
X152584798Y-67259531D01*
X152642543Y-67111390D01*
X152656592Y-66896462D01*
X152656592Y-66895129D01*
X152603055Y-66577888D01*
X152457518Y-66316835D01*
X152242594Y-66127172D01*
X151980893Y-66024103D01*
X151695027Y-66022831D01*
X151474067Y-66100056D01*
X151343349Y-66153306D01*
X151296053Y-66127875D01*
X151294993Y-66115856D01*
X151278363Y-65994407D01*
X151255038Y-65892913D01*
X151242938Y-65797227D01*
X151297155Y-65756093D01*
X151448606Y-65747128D01*
X151456391Y-65747122D01*
X151696814Y-65747122D01*
X151653649Y-65406944D01*
X151622888Y-65190157D01*
X151592238Y-65014014D01*
X151578386Y-64953308D01*
X151571841Y-64878708D01*
X151636195Y-64876760D01*
X151716883Y-64904711D01*
X152012986Y-64965932D01*
X152297469Y-64934813D01*
X152537324Y-64820997D01*
X152699543Y-64634122D01*
X152708773Y-64615004D01*
X152783633Y-64318975D01*
X152752284Y-64032608D01*
X152632939Y-63775968D01*
X152443810Y-63569115D01*
X152203109Y-63432114D01*
X151929047Y-63385027D01*
X151646712Y-63445007D01*
X151474585Y-63515107D01*
X151390630Y-63536050D01*
X151363195Y-63508040D01*
X151360674Y-63446867D01*
X151322514Y-63382805D01*
X151192763Y-63353625D01*
X151069092Y-63349673D01*
X150889163Y-63356387D01*
X150803915Y-63389390D01*
X150778624Y-63467971D01*
X150777511Y-63511663D01*
X150810045Y-63640147D01*
X150870880Y-63673653D01*
X150933980Y-63680894D01*
X150979036Y-63717672D01*
X151013382Y-63806565D01*
X151044350Y-63970154D01*
X151065183Y-64125776D01*
X151491687Y-64125776D01*
X151538785Y-63922751D01*
X151653105Y-63776389D01*
X151684653Y-63757581D01*
X151908515Y-63708393D01*
X152127442Y-63788240D01*
X152232179Y-63873372D01*
X152327097Y-64040559D01*
X152357286Y-64258232D01*
X152318937Y-64463719D01*
X152272842Y-64542343D01*
X152128669Y-64626376D01*
X151930044Y-64641375D01*
X151730608Y-64589781D01*
X151616305Y-64512448D01*
X151516098Y-64338123D01*
X151491687Y-64125776D01*
X151065183Y-64125776D01*
X151079272Y-64231018D01*
X151095842Y-64366443D01*
X151132834Y-64657237D01*
X151169620Y-64922209D01*
X151200127Y-65118400D01*
X151209130Y-65167590D01*
X151250240Y-65373142D01*
X150916681Y-65327266D01*
X150583123Y-65281390D01*
X150583123Y-65474301D01*
X150617009Y-65636939D01*
X150703138Y-65698597D01*
X150765078Y-65736951D01*
X150812368Y-65830449D01*
X150852635Y-66003076D01*
X150893507Y-66278816D01*
X150897526Y-66309904D01*
X150940369Y-66660107D01*
X150949602Y-66758078D01*
X151360674Y-66758078D01*
X151413730Y-66541439D01*
X151551309Y-66395105D01*
X151741023Y-66333467D01*
X151950486Y-66370917D01*
X152068221Y-66443678D01*
X152199101Y-66618698D01*
X152251808Y-66836058D01*
X152221082Y-67046647D01*
X152145519Y-67165338D01*
X151958500Y-67277007D01*
X151757355Y-67281829D01*
X151571437Y-67195035D01*
X151430101Y-67031857D01*
X151362700Y-66807527D01*
X151360674Y-66758078D01*
X150949602Y-66758078D01*
X150963135Y-66901669D01*
X150965307Y-67054055D01*
X150946373Y-67136730D01*
X150905816Y-67169160D01*
X150874704Y-67172632D01*
X150797840Y-67223400D01*
X150782012Y-67343581D01*
X150832342Y-67482708D01*
X150931693Y-67535099D01*
X151135154Y-67565497D01*
X151268723Y-67570915D01*
X151546328Y-67575107D01*
X151828503Y-67580340D01*
X151957493Y-67583178D01*
X152173556Y-67572184D01*
G37*
X152173556Y-67572184D02*
X152328483Y-67510481D01*
X152459662Y-67401854D01*
X152584798Y-67259531D01*
X152642543Y-67111390D01*
X152656592Y-66896462D01*
X152656592Y-66895129D01*
X152603055Y-66577888D01*
X152457518Y-66316835D01*
X152242594Y-66127172D01*
X151980893Y-66024103D01*
X151695027Y-66022831D01*
X151474067Y-66100056D01*
X151343349Y-66153306D01*
X151296053Y-66127875D01*
X151294993Y-66115856D01*
X151278363Y-65994407D01*
X151255038Y-65892913D01*
X151242938Y-65797227D01*
X151297155Y-65756093D01*
X151448606Y-65747128D01*
X151456391Y-65747122D01*
X151696814Y-65747122D01*
X151653649Y-65406944D01*
X151622888Y-65190157D01*
X151592238Y-65014014D01*
X151578386Y-64953308D01*
X151571841Y-64878708D01*
X151636195Y-64876760D01*
X151716883Y-64904711D01*
X152012986Y-64965932D01*
X152297469Y-64934813D01*
X152537324Y-64820997D01*
X152699543Y-64634122D01*
X152708773Y-64615004D01*
X152783633Y-64318975D01*
X152752284Y-64032608D01*
X152632939Y-63775968D01*
X152443810Y-63569115D01*
X152203109Y-63432114D01*
X151929047Y-63385027D01*
X151646712Y-63445007D01*
X151474585Y-63515107D01*
X151390630Y-63536050D01*
X151363195Y-63508040D01*
X151360674Y-63446867D01*
X151322514Y-63382805D01*
X151192763Y-63353625D01*
X151069092Y-63349673D01*
X150889163Y-63356387D01*
X150803915Y-63389390D01*
X150778624Y-63467971D01*
X150777511Y-63511663D01*
X150810045Y-63640147D01*
X150870880Y-63673653D01*
X150933980Y-63680894D01*
X150979036Y-63717672D01*
X151013382Y-63806565D01*
X151044350Y-63970154D01*
X151065183Y-64125776D01*
X151491687Y-64125776D01*
X151538785Y-63922751D01*
X151653105Y-63776389D01*
X151684653Y-63757581D01*
X151908515Y-63708393D01*
X152127442Y-63788240D01*
X152232179Y-63873372D01*
X152327097Y-64040559D01*
X152357286Y-64258232D01*
X152318937Y-64463719D01*
X152272842Y-64542343D01*
X152128669Y-64626376D01*
X151930044Y-64641375D01*
X151730608Y-64589781D01*
X151616305Y-64512448D01*
X151516098Y-64338123D01*
X151491687Y-64125776D01*
X151065183Y-64125776D01*
X151079272Y-64231018D01*
X151095842Y-64366443D01*
X151132834Y-64657237D01*
X151169620Y-64922209D01*
X151200127Y-65118400D01*
X151209130Y-65167590D01*
X151250240Y-65373142D01*
X150916681Y-65327266D01*
X150583123Y-65281390D01*
X150583123Y-65474301D01*
X150617009Y-65636939D01*
X150703138Y-65698597D01*
X150765078Y-65736951D01*
X150812368Y-65830449D01*
X150852635Y-66003076D01*
X150893507Y-66278816D01*
X150897526Y-66309904D01*
X150940369Y-66660107D01*
X150949602Y-66758078D01*
X151360674Y-66758078D01*
X151413730Y-66541439D01*
X151551309Y-66395105D01*
X151741023Y-66333467D01*
X151950486Y-66370917D01*
X152068221Y-66443678D01*
X152199101Y-66618698D01*
X152251808Y-66836058D01*
X152221082Y-67046647D01*
X152145519Y-67165338D01*
X151958500Y-67277007D01*
X151757355Y-67281829D01*
X151571437Y-67195035D01*
X151430101Y-67031857D01*
X151362700Y-66807527D01*
X151360674Y-66758078D01*
X150949602Y-66758078D01*
X150963135Y-66901669D01*
X150965307Y-67054055D01*
X150946373Y-67136730D01*
X150905816Y-67169160D01*
X150874704Y-67172632D01*
X150797840Y-67223400D01*
X150782012Y-67343581D01*
X150832342Y-67482708D01*
X150931693Y-67535099D01*
X151135154Y-67565497D01*
X151268723Y-67570915D01*
X151546328Y-67575107D01*
X151828503Y-67580340D01*
X151957493Y-67583178D01*
X152173556Y-67572184D01*
G36*
X147712219Y-67791447D02*
G01*
X147732102Y-67784236D01*
X147704483Y-67719459D01*
X147627790Y-67557962D01*
X147511275Y-67318750D01*
X147364186Y-67020830D01*
X147212592Y-66716777D01*
X147021201Y-66334108D01*
X146886367Y-66055145D01*
X146807935Y-65867071D01*
X146785749Y-65757068D01*
X146819654Y-65712317D01*
X146909496Y-65720003D01*
X147055118Y-65767306D01*
X147201754Y-65821406D01*
X147500960Y-65876242D01*
X147865049Y-65858170D01*
X148257439Y-65774895D01*
X148641549Y-65634124D01*
X148974495Y-65447947D01*
X149292245Y-65165119D01*
X149567440Y-64801851D01*
X149763671Y-64407153D01*
X149778055Y-64366346D01*
X149852823Y-64009851D01*
X149868322Y-63598314D01*
X149827648Y-63182480D01*
X149733894Y-62813091D01*
X149674891Y-62674901D01*
X149405365Y-62269765D01*
X149042409Y-61912356D01*
X148621506Y-61637180D01*
X148593324Y-61623127D01*
X148384121Y-61530136D01*
X148195847Y-61475890D01*
X147979098Y-61450888D01*
X147684470Y-61445630D01*
X147670667Y-61445695D01*
X147239424Y-61468976D01*
X146926857Y-61533425D01*
X146866561Y-61556390D01*
X146528119Y-61738997D01*
X146206754Y-61977187D01*
X145942605Y-62238178D01*
X145813583Y-62416299D01*
X145714823Y-62578241D01*
X145644340Y-62681665D01*
X145624624Y-62701714D01*
X145586056Y-62649158D01*
X145511016Y-62514645D01*
X145455547Y-62406611D01*
X145256464Y-62105661D01*
X144975633Y-61806578D01*
X144655234Y-61549120D01*
X144376790Y-61389781D01*
X144006076Y-61279438D01*
X143552766Y-61230005D01*
X143255924Y-61224345D01*
X143032677Y-61244550D01*
X142828228Y-61298872D01*
X142660437Y-61364357D01*
X142197384Y-61610533D01*
X141835757Y-61922014D01*
X141556585Y-62316153D01*
X141498721Y-62427055D01*
X141393562Y-62653326D01*
X141329952Y-62838692D01*
X141297784Y-63031650D01*
X141286951Y-63280696D01*
X141286514Y-63409388D01*
X141739257Y-63409388D01*
X141743140Y-63126011D01*
X141762150Y-62928984D01*
X141805902Y-62775181D01*
X141884010Y-62621476D01*
X141932868Y-62540951D01*
X142224539Y-62171532D01*
X142576655Y-61890134D01*
X142848272Y-61756812D01*
X143115231Y-61698501D01*
X143448170Y-61681905D01*
X143794041Y-61704705D01*
X144099796Y-61764581D01*
X144242820Y-61817773D01*
X144634613Y-62076704D01*
X144935823Y-62421202D01*
X145137060Y-62835829D01*
X145228934Y-63305147D01*
X145233782Y-63446867D01*
X145190770Y-63800249D01*
X145894101Y-63800249D01*
X145908082Y-63356777D01*
X146035687Y-62920089D01*
X146193208Y-62632847D01*
X146369837Y-62433850D01*
X146621641Y-62227457D01*
X146901097Y-62047973D01*
X147160680Y-61929700D01*
X147172571Y-61925920D01*
X147428486Y-61886465D01*
X147748459Y-61891690D01*
X148077011Y-61936224D01*
X148358663Y-62014698D01*
X148433515Y-62047968D01*
X148805626Y-62283146D01*
X149081860Y-62570419D01*
X149259595Y-62867691D01*
X149406921Y-63306752D01*
X149435412Y-63754834D01*
X149352220Y-64190611D01*
X149164498Y-64592760D01*
X148879402Y-64939955D01*
X148504082Y-65210872D01*
X148467062Y-65230306D01*
X148092834Y-65358001D01*
X147669502Y-65400853D01*
X147245922Y-65358864D01*
X146870949Y-65232033D01*
X146867551Y-65230306D01*
X146480470Y-64965532D01*
X146185638Y-64625209D01*
X145988401Y-64229920D01*
X145894101Y-63800249D01*
X145190770Y-63800249D01*
X145175548Y-63925302D01*
X145004223Y-64342878D01*
X144724297Y-64692356D01*
X144340261Y-64966495D01*
X144268246Y-65003474D01*
X143829311Y-65150409D01*
X143378764Y-65179251D01*
X142938420Y-65097112D01*
X142530090Y-64911107D01*
X142175589Y-64628348D01*
X141896728Y-64255951D01*
X141879370Y-64224418D01*
X141804850Y-64055542D01*
X141761496Y-63865428D01*
X141742221Y-63612843D01*
X141739257Y-63409388D01*
X141286514Y-63409388D01*
X141286389Y-63445896D01*
X141295116Y-63774087D01*
X141323827Y-64015333D01*
X141379249Y-64211603D01*
X141426922Y-64322716D01*
X141702875Y-64766265D01*
X142061914Y-65130501D01*
X142484541Y-65404960D01*
X142951261Y-65579176D01*
X143442577Y-65642686D01*
X143824697Y-65609690D01*
X144336674Y-65460207D01*
X144783928Y-65218678D01*
X145147310Y-64897137D01*
X145316359Y-64672013D01*
X145423535Y-64511840D01*
X145503445Y-64409653D01*
X145529041Y-64389583D01*
X145565754Y-64445829D01*
X145652086Y-64602534D01*
X145779891Y-64844151D01*
X145941026Y-65155132D01*
X146127345Y-65519929D01*
X146292733Y-65847375D01*
X147024027Y-67302224D01*
X146575670Y-67302224D01*
X146339742Y-67304772D01*
X146202678Y-67319967D01*
X146133756Y-67359134D01*
X146102255Y-67433600D01*
X146092345Y-67480413D01*
X146080719Y-67623688D01*
X146100990Y-67698985D01*
X146176377Y-67716681D01*
X146347107Y-67735724D01*
X146583513Y-67754565D01*
X146855923Y-67771652D01*
X147134668Y-67785434D01*
X147390079Y-67794361D01*
X147592486Y-67796882D01*
X147712219Y-67791447D01*
G37*
X147712219Y-67791447D02*
X147732102Y-67784236D01*
X147704483Y-67719459D01*
X147627790Y-67557962D01*
X147511275Y-67318750D01*
X147364186Y-67020830D01*
X147212592Y-66716777D01*
X147021201Y-66334108D01*
X146886367Y-66055145D01*
X146807935Y-65867071D01*
X146785749Y-65757068D01*
X146819654Y-65712317D01*
X146909496Y-65720003D01*
X147055118Y-65767306D01*
X147201754Y-65821406D01*
X147500960Y-65876242D01*
X147865049Y-65858170D01*
X148257439Y-65774895D01*
X148641549Y-65634124D01*
X148974495Y-65447947D01*
X149292245Y-65165119D01*
X149567440Y-64801851D01*
X149763671Y-64407153D01*
X149778055Y-64366346D01*
X149852823Y-64009851D01*
X149868322Y-63598314D01*
X149827648Y-63182480D01*
X149733894Y-62813091D01*
X149674891Y-62674901D01*
X149405365Y-62269765D01*
X149042409Y-61912356D01*
X148621506Y-61637180D01*
X148593324Y-61623127D01*
X148384121Y-61530136D01*
X148195847Y-61475890D01*
X147979098Y-61450888D01*
X147684470Y-61445630D01*
X147670667Y-61445695D01*
X147239424Y-61468976D01*
X146926857Y-61533425D01*
X146866561Y-61556390D01*
X146528119Y-61738997D01*
X146206754Y-61977187D01*
X145942605Y-62238178D01*
X145813583Y-62416299D01*
X145714823Y-62578241D01*
X145644340Y-62681665D01*
X145624624Y-62701714D01*
X145586056Y-62649158D01*
X145511016Y-62514645D01*
X145455547Y-62406611D01*
X145256464Y-62105661D01*
X144975633Y-61806578D01*
X144655234Y-61549120D01*
X144376790Y-61389781D01*
X144006076Y-61279438D01*
X143552766Y-61230005D01*
X143255924Y-61224345D01*
X143032677Y-61244550D01*
X142828228Y-61298872D01*
X142660437Y-61364357D01*
X142197384Y-61610533D01*
X141835757Y-61922014D01*
X141556585Y-62316153D01*
X141498721Y-62427055D01*
X141393562Y-62653326D01*
X141329952Y-62838692D01*
X141297784Y-63031650D01*
X141286951Y-63280696D01*
X141286514Y-63409388D01*
X141739257Y-63409388D01*
X141743140Y-63126011D01*
X141762150Y-62928984D01*
X141805902Y-62775181D01*
X141884010Y-62621476D01*
X141932868Y-62540951D01*
X142224539Y-62171532D01*
X142576655Y-61890134D01*
X142848272Y-61756812D01*
X143115231Y-61698501D01*
X143448170Y-61681905D01*
X143794041Y-61704705D01*
X144099796Y-61764581D01*
X144242820Y-61817773D01*
X144634613Y-62076704D01*
X144935823Y-62421202D01*
X145137060Y-62835829D01*
X145228934Y-63305147D01*
X145233782Y-63446867D01*
X145190770Y-63800249D01*
X145894101Y-63800249D01*
X145908082Y-63356777D01*
X146035687Y-62920089D01*
X146193208Y-62632847D01*
X146369837Y-62433850D01*
X146621641Y-62227457D01*
X146901097Y-62047973D01*
X147160680Y-61929700D01*
X147172571Y-61925920D01*
X147428486Y-61886465D01*
X147748459Y-61891690D01*
X148077011Y-61936224D01*
X148358663Y-62014698D01*
X148433515Y-62047968D01*
X148805626Y-62283146D01*
X149081860Y-62570419D01*
X149259595Y-62867691D01*
X149406921Y-63306752D01*
X149435412Y-63754834D01*
X149352220Y-64190611D01*
X149164498Y-64592760D01*
X148879402Y-64939955D01*
X148504082Y-65210872D01*
X148467062Y-65230306D01*
X148092834Y-65358001D01*
X147669502Y-65400853D01*
X147245922Y-65358864D01*
X146870949Y-65232033D01*
X146867551Y-65230306D01*
X146480470Y-64965532D01*
X146185638Y-64625209D01*
X145988401Y-64229920D01*
X145894101Y-63800249D01*
X145190770Y-63800249D01*
X145175548Y-63925302D01*
X145004223Y-64342878D01*
X144724297Y-64692356D01*
X144340261Y-64966495D01*
X144268246Y-65003474D01*
X143829311Y-65150409D01*
X143378764Y-65179251D01*
X142938420Y-65097112D01*
X142530090Y-64911107D01*
X142175589Y-64628348D01*
X141896728Y-64255951D01*
X141879370Y-64224418D01*
X141804850Y-64055542D01*
X141761496Y-63865428D01*
X141742221Y-63612843D01*
X141739257Y-63409388D01*
X141286514Y-63409388D01*
X141286389Y-63445896D01*
X141295116Y-63774087D01*
X141323827Y-64015333D01*
X141379249Y-64211603D01*
X141426922Y-64322716D01*
X141702875Y-64766265D01*
X142061914Y-65130501D01*
X142484541Y-65404960D01*
X142951261Y-65579176D01*
X143442577Y-65642686D01*
X143824697Y-65609690D01*
X144336674Y-65460207D01*
X144783928Y-65218678D01*
X145147310Y-64897137D01*
X145316359Y-64672013D01*
X145423535Y-64511840D01*
X145503445Y-64409653D01*
X145529041Y-64389583D01*
X145565754Y-64445829D01*
X145652086Y-64602534D01*
X145779891Y-64844151D01*
X145941026Y-65155132D01*
X146127345Y-65519929D01*
X146292733Y-65847375D01*
X147024027Y-67302224D01*
X146575670Y-67302224D01*
X146339742Y-67304772D01*
X146202678Y-67319967D01*
X146133756Y-67359134D01*
X146102255Y-67433600D01*
X146092345Y-67480413D01*
X146080719Y-67623688D01*
X146100990Y-67698985D01*
X146176377Y-67716681D01*
X146347107Y-67735724D01*
X146583513Y-67754565D01*
X146855923Y-67771652D01*
X147134668Y-67785434D01*
X147390079Y-67794361D01*
X147592486Y-67796882D01*
X147712219Y-67791447D01*
D12*
X162900000Y-101970000D02*
X162900000Y-103770000D01*
X159680000Y-103770000D02*
X159680000Y-101320000D01*
X164660000Y-107440000D02*
X164660000Y-100505000D01*
X168080000Y-107440000D02*
X164660000Y-107440000D01*
X168080000Y-100505000D02*
X168080000Y-107440000D01*
X162310578Y-90118000D02*
X161793422Y-90118000D01*
X162310578Y-88698000D02*
X161793422Y-88698000D01*
X162515000Y-81535000D02*
X162515000Y-84835000D01*
X162515000Y-84835000D02*
X155615000Y-84835000D01*
X162515000Y-81535000D02*
X155615000Y-81535000D01*
X164660000Y-97280000D02*
X164660000Y-90345000D01*
X168080000Y-97280000D02*
X164660000Y-97280000D01*
X168080000Y-90345000D02*
X168080000Y-97280000D01*
X157605000Y-98230000D02*
X150670000Y-98230000D01*
X157605000Y-94810000D02*
X157605000Y-98230000D01*
X150670000Y-94810000D02*
X157605000Y-94810000D01*
X156545000Y-86085000D02*
X158045000Y-86085000D01*
X158045000Y-86085000D02*
X158045000Y-86355000D01*
X158045000Y-86355000D02*
X160875000Y-86355000D01*
X156545000Y-92985000D02*
X158045000Y-92985000D01*
X158045000Y-92985000D02*
X158045000Y-92715000D01*
X158045000Y-92715000D02*
X159145000Y-92715000D01*
X168406578Y-74878000D02*
X167889422Y-74878000D01*
X168406578Y-73458000D02*
X167889422Y-73458000D01*
X172470578Y-74878000D02*
X171953422Y-74878000D01*
X172470578Y-73458000D02*
X171953422Y-73458000D01*
X161793422Y-93270000D02*
X162310578Y-93270000D01*
X161793422Y-94690000D02*
X162310578Y-94690000D01*
X160390000Y-95545000D02*
X162840000Y-95545000D01*
X162190000Y-98765000D02*
X160390000Y-98765000D01*
X166030000Y-81240000D02*
X166030000Y-80440000D01*
X161630000Y-81240000D02*
X166030000Y-81240000D01*
X161630000Y-80440000D02*
X161630000Y-81240000D01*
X161630000Y-76240000D02*
X166030000Y-76240000D01*
X161630000Y-77040000D02*
X161630000Y-76240000D01*
X166030000Y-77940000D02*
X166030000Y-79540000D01*
X161630000Y-77940000D02*
X161630000Y-79540000D01*
X166030000Y-76740000D02*
X167430000Y-76740000D01*
X166030000Y-76240000D02*
X166030000Y-76740000D01*
D10*
X157842380Y-102108095D02*
X158651904Y-102108095D01*
X158747142Y-102155714D01*
X158794761Y-102203333D01*
X158842380Y-102298571D01*
X158842380Y-102489047D01*
X158794761Y-102584285D01*
X158747142Y-102631904D01*
X158651904Y-102679523D01*
X157842380Y-102679523D01*
X157842380Y-103631904D02*
X157842380Y-103155714D01*
X158318571Y-103108095D01*
X158270952Y-103155714D01*
X158223333Y-103250952D01*
X158223333Y-103489047D01*
X158270952Y-103584285D01*
X158318571Y-103631904D01*
X158413809Y-103679523D01*
X158651904Y-103679523D01*
X158747142Y-103631904D01*
X158794761Y-103584285D01*
X158842380Y-103489047D01*
X158842380Y-103250952D01*
X158794761Y-103155714D01*
X158747142Y-103108095D01*
X169277142Y-106005333D02*
X169324761Y-105957714D01*
X169372380Y-105814857D01*
X169372380Y-105719619D01*
X169324761Y-105576761D01*
X169229523Y-105481523D01*
X169134285Y-105433904D01*
X168943809Y-105386285D01*
X168800952Y-105386285D01*
X168610476Y-105433904D01*
X168515238Y-105481523D01*
X168420000Y-105576761D01*
X168372380Y-105719619D01*
X168372380Y-105814857D01*
X168420000Y-105957714D01*
X168467619Y-106005333D01*
X168372380Y-106910095D02*
X168372380Y-106433904D01*
X168848571Y-106386285D01*
X168800952Y-106433904D01*
X168753333Y-106529142D01*
X168753333Y-106767238D01*
X168800952Y-106862476D01*
X168848571Y-106910095D01*
X168943809Y-106957714D01*
X169181904Y-106957714D01*
X169277142Y-106910095D01*
X169324761Y-106862476D01*
X169372380Y-106767238D01*
X169372380Y-106529142D01*
X169324761Y-106433904D01*
X169277142Y-106386285D01*
X162218666Y-88210380D02*
X162552000Y-87734190D01*
X162790095Y-88210380D02*
X162790095Y-87210380D01*
X162409142Y-87210380D01*
X162313904Y-87258000D01*
X162266285Y-87305619D01*
X162218666Y-87400857D01*
X162218666Y-87543714D01*
X162266285Y-87638952D01*
X162313904Y-87686571D01*
X162409142Y-87734190D01*
X162790095Y-87734190D01*
X161742476Y-88210380D02*
X161552000Y-88210380D01*
X161456761Y-88162761D01*
X161409142Y-88115142D01*
X161313904Y-87972285D01*
X161266285Y-87781809D01*
X161266285Y-87400857D01*
X161313904Y-87305619D01*
X161361523Y-87258000D01*
X161456761Y-87210380D01*
X161647238Y-87210380D01*
X161742476Y-87258000D01*
X161790095Y-87305619D01*
X161837714Y-87400857D01*
X161837714Y-87638952D01*
X161790095Y-87734190D01*
X161742476Y-87781809D01*
X161647238Y-87829428D01*
X161456761Y-87829428D01*
X161361523Y-87781809D01*
X161313904Y-87734190D01*
X161266285Y-87638952D01*
X158853095Y-81137380D02*
X158853095Y-80137380D01*
X158615000Y-80137380D01*
X158472142Y-80185000D01*
X158376904Y-80280238D01*
X158329285Y-80375476D01*
X158281666Y-80565952D01*
X158281666Y-80708809D01*
X158329285Y-80899285D01*
X158376904Y-80994523D01*
X158472142Y-81089761D01*
X158615000Y-81137380D01*
X158853095Y-81137380D01*
X157900714Y-80232619D02*
X157853095Y-80185000D01*
X157757857Y-80137380D01*
X157519761Y-80137380D01*
X157424523Y-80185000D01*
X157376904Y-80232619D01*
X157329285Y-80327857D01*
X157329285Y-80423095D01*
X157376904Y-80565952D01*
X157948333Y-81137380D01*
X157329285Y-81137380D01*
X169277142Y-91781333D02*
X169324761Y-91733714D01*
X169372380Y-91590857D01*
X169372380Y-91495619D01*
X169324761Y-91352761D01*
X169229523Y-91257523D01*
X169134285Y-91209904D01*
X168943809Y-91162285D01*
X168800952Y-91162285D01*
X168610476Y-91209904D01*
X168515238Y-91257523D01*
X168420000Y-91352761D01*
X168372380Y-91495619D01*
X168372380Y-91590857D01*
X168420000Y-91733714D01*
X168467619Y-91781333D01*
X168705714Y-92638476D02*
X169372380Y-92638476D01*
X168324761Y-92400380D02*
X169039047Y-92162285D01*
X169039047Y-92781333D01*
X153836666Y-94327142D02*
X153884285Y-94374761D01*
X154027142Y-94422380D01*
X154122380Y-94422380D01*
X154265238Y-94374761D01*
X154360476Y-94279523D01*
X154408095Y-94184285D01*
X154455714Y-93993809D01*
X154455714Y-93850952D01*
X154408095Y-93660476D01*
X154360476Y-93565238D01*
X154265238Y-93470000D01*
X154122380Y-93422380D01*
X154027142Y-93422380D01*
X153884285Y-93470000D01*
X153836666Y-93517619D01*
X153503333Y-93422380D02*
X152884285Y-93422380D01*
X153217619Y-93803333D01*
X153074761Y-93803333D01*
X152979523Y-93850952D01*
X152931904Y-93898571D01*
X152884285Y-93993809D01*
X152884285Y-94231904D01*
X152931904Y-94327142D01*
X152979523Y-94374761D01*
X153074761Y-94422380D01*
X153360476Y-94422380D01*
X153455714Y-94374761D01*
X153503333Y-94327142D01*
X154431904Y-84487380D02*
X154431904Y-85296904D01*
X154384285Y-85392142D01*
X154336666Y-85439761D01*
X154241428Y-85487380D01*
X154050952Y-85487380D01*
X153955714Y-85439761D01*
X153908095Y-85392142D01*
X153860476Y-85296904D01*
X153860476Y-84487380D01*
X153479523Y-84487380D02*
X152860476Y-84487380D01*
X153193809Y-84868333D01*
X153050952Y-84868333D01*
X152955714Y-84915952D01*
X152908095Y-84963571D01*
X152860476Y-85058809D01*
X152860476Y-85296904D01*
X152908095Y-85392142D01*
X152955714Y-85439761D01*
X153050952Y-85487380D01*
X153336666Y-85487380D01*
X153431904Y-85439761D01*
X153479523Y-85392142D01*
X168822666Y-76144380D02*
X169156000Y-75668190D01*
X169394095Y-76144380D02*
X169394095Y-75144380D01*
X169013142Y-75144380D01*
X168917904Y-75192000D01*
X168870285Y-75239619D01*
X168822666Y-75334857D01*
X168822666Y-75477714D01*
X168870285Y-75572952D01*
X168917904Y-75620571D01*
X169013142Y-75668190D01*
X169394095Y-75668190D01*
X168489333Y-75144380D02*
X167822666Y-75144380D01*
X168251238Y-76144380D01*
X172378666Y-76144380D02*
X172712000Y-75668190D01*
X172950095Y-76144380D02*
X172950095Y-75144380D01*
X172569142Y-75144380D01*
X172473904Y-75192000D01*
X172426285Y-75239619D01*
X172378666Y-75334857D01*
X172378666Y-75477714D01*
X172426285Y-75572952D01*
X172473904Y-75620571D01*
X172569142Y-75668190D01*
X172950095Y-75668190D01*
X172045333Y-75144380D02*
X171426285Y-75144380D01*
X171759619Y-75525333D01*
X171616761Y-75525333D01*
X171521523Y-75572952D01*
X171473904Y-75620571D01*
X171426285Y-75715809D01*
X171426285Y-75953904D01*
X171473904Y-76049142D01*
X171521523Y-76096761D01*
X171616761Y-76144380D01*
X171902476Y-76144380D01*
X171997714Y-76096761D01*
X172045333Y-76049142D01*
X159551666Y-94432380D02*
X159885000Y-93956190D01*
X160123095Y-94432380D02*
X160123095Y-93432380D01*
X159742142Y-93432380D01*
X159646904Y-93480000D01*
X159599285Y-93527619D01*
X159551666Y-93622857D01*
X159551666Y-93765714D01*
X159599285Y-93860952D01*
X159646904Y-93908571D01*
X159742142Y-93956190D01*
X160123095Y-93956190D01*
X159170714Y-93527619D02*
X159123095Y-93480000D01*
X159027857Y-93432380D01*
X158789761Y-93432380D01*
X158694523Y-93480000D01*
X158646904Y-93527619D01*
X158599285Y-93622857D01*
X158599285Y-93718095D01*
X158646904Y-93860952D01*
X159218333Y-94432380D01*
X158599285Y-94432380D01*
X159511904Y-96607380D02*
X159511904Y-97416904D01*
X159464285Y-97512142D01*
X159416666Y-97559761D01*
X159321428Y-97607380D01*
X159130952Y-97607380D01*
X159035714Y-97559761D01*
X158988095Y-97512142D01*
X158940476Y-97416904D01*
X158940476Y-96607380D01*
X158035714Y-96940714D02*
X158035714Y-97607380D01*
X158273809Y-96559761D02*
X158511904Y-97274047D01*
X157892857Y-97274047D01*
X164568095Y-75792380D02*
X164568095Y-74792380D01*
X164330000Y-74792380D01*
X164187142Y-74840000D01*
X164091904Y-74935238D01*
X164044285Y-75030476D01*
X163996666Y-75220952D01*
X163996666Y-75363809D01*
X164044285Y-75554285D01*
X164091904Y-75649523D01*
X164187142Y-75744761D01*
X164330000Y-75792380D01*
X164568095Y-75792380D01*
X163044285Y-75792380D02*
X163615714Y-75792380D01*
X163330000Y-75792380D02*
X163330000Y-74792380D01*
X163425238Y-74935238D01*
X163520476Y-75030476D01*
X163615714Y-75078095D01*
M02*
