M48
; DRILL file {KiCad 5.1.5} date Sun 16 Feb 2020 05:08:28 PM CET
; FORMAT={-:-/ absolute / inch / decimal}
; #@! TF.CreationDate,2020-02-16T17:08:28+01:00
; #@! TF.GenerationSoftware,Kicad,Pcbnew,5.1.5
; #@! TF.FileFunction,Plated,1,2,PTH
FMAT,2
INCH
T1C0.0157
T2C0.0236
T3C0.0315
T4C0.0394
%
G90
G05
T1
X5.425Y-2.65
X5.46Y-2.7
X5.55Y-4.325
X5.625Y-3.925
X5.65Y-2.475
X5.65Y-2.85
X5.65Y-3.575
X5.68Y-2.8
X5.7Y-2.65
X5.7Y-3.625
X5.7249Y-3.8751
X5.8285Y-3.2
X5.95Y-2.9
X6.0Y-2.4
X6.1Y-2.85
X6.1035Y-2.6962
X6.125Y-2.45
X6.15Y-2.75
X6.15Y-2.8
X6.2Y-3.375
X6.73Y-2.36
X6.84Y-3.3
T2
X5.425Y-2.3
X5.45Y-3.625
X5.475Y-2.35
X5.525Y-3.625
T3
X6.65Y-3.45
X6.7878Y-3.45
T4
X6.7Y-3.1
X6.7Y-3.2
X6.8Y-3.1
X6.8Y-3.2
X6.7Y-3.7
X6.7Y-3.8
X6.8Y-3.7
X6.8Y-3.8
X6.7Y-4.3
X6.7Y-4.4
X6.8Y-4.3
X6.8Y-4.4
X6.8Y-2.1
X6.8Y-2.2
X6.8Y-2.3
X6.8Y-2.4
X6.8Y-2.5
X6.8Y-2.6
X6.8Y-2.7
X6.8Y-2.8
X6.6Y-2.2
X6.6Y-2.3
X6.6Y-2.4
X5.2Y-2.1
X5.2Y-2.2
X5.2Y-2.3
X5.2Y-2.4
X5.2Y-2.5
X5.2Y-2.6
X5.2Y-2.7
X5.2Y-2.8
X5.2Y-2.9
X5.2Y-3.0
X5.2Y-3.1
X5.2Y-3.2
X5.1969Y-3.5
X5.1969Y-3.6
X5.1969Y-3.7
X5.1969Y-3.8
X5.1969Y-3.9
X5.1969Y-4.0
X5.1969Y-4.1
X5.1969Y-4.2
X5.1969Y-4.3
X5.1969Y-4.4
X6.6Y-2.6
X6.6Y-2.7
X6.6Y-2.8
X6.2Y-4.4
X6.7Y-4.0
X6.7Y-4.1
X6.8Y-4.0
X6.8Y-4.1
T0
M30
