G04 #@! TF.GenerationSoftware,KiCad,Pcbnew,5.1.5*
G04 #@! TF.CreationDate,2020-02-16T17:08:25+01:00*
G04 #@! TF.ProjectId,feuchtraumabzweigdose,66657563-6874-4726-9175-6d61627a7765,rev?*
G04 #@! TF.SameCoordinates,Original*
G04 #@! TF.FileFunction,Legend,Top*
G04 #@! TF.FilePolarity,Positive*
%FSLAX46Y46*%
G04 Gerber Fmt 4.6, Leading zero omitted, Abs format (unit mm)*
G04 Created by KiCad (PCBNEW 5.1.5) date 2020-02-16 17:08:25*
%MOMM*%
%LPD*%
G04 APERTURE LIST*
%ADD10C,0.150000*%
%ADD11C,0.120000*%
G04 APERTURE END LIST*
D10*
X134366095Y-92210000D02*
X134270857Y-92162380D01*
X134128000Y-92162380D01*
X133985142Y-92210000D01*
X133889904Y-92305238D01*
X133842285Y-92400476D01*
X133794666Y-92590952D01*
X133794666Y-92733809D01*
X133842285Y-92924285D01*
X133889904Y-93019523D01*
X133985142Y-93114761D01*
X134128000Y-93162380D01*
X134223238Y-93162380D01*
X134366095Y-93114761D01*
X134413714Y-93067142D01*
X134413714Y-92733809D01*
X134223238Y-92733809D01*
X134842285Y-93162380D02*
X134842285Y-92162380D01*
X135413714Y-93162380D01*
X135413714Y-92162380D01*
X135889904Y-93162380D02*
X135889904Y-92162380D01*
X136128000Y-92162380D01*
X136270857Y-92210000D01*
X136366095Y-92305238D01*
X136413714Y-92400476D01*
X136461333Y-92590952D01*
X136461333Y-92733809D01*
X136413714Y-92924285D01*
X136366095Y-93019523D01*
X136270857Y-93114761D01*
X136128000Y-93162380D01*
X135889904Y-93162380D01*
X134366095Y-111260000D02*
X134270857Y-111212380D01*
X134128000Y-111212380D01*
X133985142Y-111260000D01*
X133889904Y-111355238D01*
X133842285Y-111450476D01*
X133794666Y-111640952D01*
X133794666Y-111783809D01*
X133842285Y-111974285D01*
X133889904Y-112069523D01*
X133985142Y-112164761D01*
X134128000Y-112212380D01*
X134223238Y-112212380D01*
X134366095Y-112164761D01*
X134413714Y-112117142D01*
X134413714Y-111783809D01*
X134223238Y-111783809D01*
X134842285Y-112212380D02*
X134842285Y-111212380D01*
X135413714Y-112212380D01*
X135413714Y-111212380D01*
X135889904Y-112212380D02*
X135889904Y-111212380D01*
X136128000Y-111212380D01*
X136270857Y-111260000D01*
X136366095Y-111355238D01*
X136413714Y-111450476D01*
X136461333Y-111640952D01*
X136461333Y-111783809D01*
X136413714Y-111974285D01*
X136366095Y-112069523D01*
X136270857Y-112164761D01*
X136128000Y-112212380D01*
X135889904Y-112212380D01*
X133977142Y-101385714D02*
X133977142Y-102052380D01*
X133977142Y-101480952D02*
X134024761Y-101433333D01*
X134120000Y-101385714D01*
X134262857Y-101385714D01*
X134358095Y-101433333D01*
X134405714Y-101528571D01*
X134405714Y-102052380D01*
X135310476Y-102004761D02*
X135215238Y-102052380D01*
X135024761Y-102052380D01*
X134929523Y-102004761D01*
X134881904Y-101957142D01*
X134834285Y-101861904D01*
X134834285Y-101576190D01*
X134881904Y-101480952D01*
X134929523Y-101433333D01*
X135024761Y-101385714D01*
X135215238Y-101385714D01*
X135310476Y-101433333D01*
X133977142Y-98845714D02*
X133977142Y-99512380D01*
X133977142Y-98940952D02*
X134024761Y-98893333D01*
X134120000Y-98845714D01*
X134262857Y-98845714D01*
X134358095Y-98893333D01*
X134405714Y-98988571D01*
X134405714Y-99512380D01*
X135310476Y-99464761D02*
X135215238Y-99512380D01*
X135024761Y-99512380D01*
X134929523Y-99464761D01*
X134881904Y-99417142D01*
X134834285Y-99321904D01*
X134834285Y-99036190D01*
X134881904Y-98940952D01*
X134929523Y-98893333D01*
X135024761Y-98845714D01*
X135215238Y-98845714D01*
X135310476Y-98893333D01*
X133866095Y-109672380D02*
X133866095Y-108672380D01*
X134437523Y-109672380D01*
X134437523Y-108672380D01*
X135485142Y-109577142D02*
X135437523Y-109624761D01*
X135294666Y-109672380D01*
X135199428Y-109672380D01*
X135056571Y-109624761D01*
X134961333Y-109529523D01*
X134913714Y-109434285D01*
X134866095Y-109243809D01*
X134866095Y-109100952D01*
X134913714Y-108910476D01*
X134961333Y-108815238D01*
X135056571Y-108720000D01*
X135199428Y-108672380D01*
X135294666Y-108672380D01*
X135437523Y-108720000D01*
X135485142Y-108767619D01*
X135866095Y-109624761D02*
X136008952Y-109672380D01*
X136247047Y-109672380D01*
X136342285Y-109624761D01*
X136389904Y-109577142D01*
X136437523Y-109481904D01*
X136437523Y-109386666D01*
X136389904Y-109291428D01*
X136342285Y-109243809D01*
X136247047Y-109196190D01*
X136056571Y-109148571D01*
X135961333Y-109100952D01*
X135913714Y-109053333D01*
X135866095Y-108958095D01*
X135866095Y-108862857D01*
X135913714Y-108767619D01*
X135961333Y-108720000D01*
X136056571Y-108672380D01*
X136294666Y-108672380D01*
X136437523Y-108720000D01*
X133826476Y-106132380D02*
X134064571Y-107132380D01*
X134255047Y-106418095D01*
X134445523Y-107132380D01*
X134683619Y-106132380D01*
X135016952Y-106846666D02*
X135493142Y-106846666D01*
X134921714Y-107132380D02*
X135255047Y-106132380D01*
X135588380Y-107132380D01*
X135921714Y-107132380D02*
X135921714Y-106132380D01*
X136493142Y-107132380D02*
X136064571Y-106560952D01*
X136493142Y-106132380D02*
X135921714Y-106703809D01*
X136921714Y-106608571D02*
X137255047Y-106608571D01*
X137397904Y-107132380D02*
X136921714Y-107132380D01*
X136921714Y-106132380D01*
X137397904Y-106132380D01*
X133810571Y-104592380D02*
X133810571Y-103592380D01*
X134143904Y-104306666D01*
X134477238Y-103592380D01*
X134477238Y-104592380D01*
X134953428Y-104592380D02*
X134953428Y-103592380D01*
X135382000Y-104544761D02*
X135524857Y-104592380D01*
X135762952Y-104592380D01*
X135858190Y-104544761D01*
X135905809Y-104497142D01*
X135953428Y-104401904D01*
X135953428Y-104306666D01*
X135905809Y-104211428D01*
X135858190Y-104163809D01*
X135762952Y-104116190D01*
X135572476Y-104068571D01*
X135477238Y-104020952D01*
X135429619Y-103973333D01*
X135382000Y-103878095D01*
X135382000Y-103782857D01*
X135429619Y-103687619D01*
X135477238Y-103640000D01*
X135572476Y-103592380D01*
X135810571Y-103592380D01*
X135953428Y-103640000D01*
X136572476Y-103592380D02*
X136762952Y-103592380D01*
X136858190Y-103640000D01*
X136953428Y-103735238D01*
X137001047Y-103925714D01*
X137001047Y-104259047D01*
X136953428Y-104449523D01*
X136858190Y-104544761D01*
X136762952Y-104592380D01*
X136572476Y-104592380D01*
X136477238Y-104544761D01*
X136382000Y-104449523D01*
X136334380Y-104259047D01*
X136334380Y-103925714D01*
X136382000Y-103735238D01*
X136477238Y-103640000D01*
X136572476Y-103592380D01*
X133810571Y-96972380D02*
X133810571Y-95972380D01*
X134143904Y-96686666D01*
X134477238Y-95972380D01*
X134477238Y-96972380D01*
X135143904Y-95972380D02*
X135334380Y-95972380D01*
X135429619Y-96020000D01*
X135524857Y-96115238D01*
X135572476Y-96305714D01*
X135572476Y-96639047D01*
X135524857Y-96829523D01*
X135429619Y-96924761D01*
X135334380Y-96972380D01*
X135143904Y-96972380D01*
X135048666Y-96924761D01*
X134953428Y-96829523D01*
X134905809Y-96639047D01*
X134905809Y-96305714D01*
X134953428Y-96115238D01*
X135048666Y-96020000D01*
X135143904Y-95972380D01*
X135953428Y-96924761D02*
X136096285Y-96972380D01*
X136334380Y-96972380D01*
X136429619Y-96924761D01*
X136477238Y-96877142D01*
X136524857Y-96781904D01*
X136524857Y-96686666D01*
X136477238Y-96591428D01*
X136429619Y-96543809D01*
X136334380Y-96496190D01*
X136143904Y-96448571D01*
X136048666Y-96400952D01*
X136001047Y-96353333D01*
X135953428Y-96258095D01*
X135953428Y-96162857D01*
X136001047Y-96067619D01*
X136048666Y-96020000D01*
X136143904Y-95972380D01*
X136382000Y-95972380D01*
X136524857Y-96020000D01*
X136953428Y-96972380D02*
X136953428Y-95972380D01*
X133691523Y-95146761D02*
X133834380Y-95194380D01*
X134072476Y-95194380D01*
X134167714Y-95146761D01*
X134215333Y-95099142D01*
X134262952Y-95003904D01*
X134262952Y-94908666D01*
X134215333Y-94813428D01*
X134167714Y-94765809D01*
X134072476Y-94718190D01*
X133882000Y-94670571D01*
X133786761Y-94622952D01*
X133739142Y-94575333D01*
X133691523Y-94480095D01*
X133691523Y-94384857D01*
X133739142Y-94289619D01*
X133786761Y-94242000D01*
X133882000Y-94194380D01*
X134120095Y-94194380D01*
X134262952Y-94242000D01*
X135262952Y-95099142D02*
X135215333Y-95146761D01*
X135072476Y-95194380D01*
X134977238Y-95194380D01*
X134834380Y-95146761D01*
X134739142Y-95051523D01*
X134691523Y-94956285D01*
X134643904Y-94765809D01*
X134643904Y-94622952D01*
X134691523Y-94432476D01*
X134739142Y-94337238D01*
X134834380Y-94242000D01*
X134977238Y-94194380D01*
X135072476Y-94194380D01*
X135215333Y-94242000D01*
X135262952Y-94289619D01*
X136167714Y-95194380D02*
X135691523Y-95194380D01*
X135691523Y-94194380D01*
X136501047Y-95194380D02*
X136501047Y-94194380D01*
X137072476Y-95194380D02*
X136643904Y-94622952D01*
X137072476Y-94194380D02*
X136501047Y-94765809D01*
X133540666Y-86828380D02*
X133874000Y-87828380D01*
X134207333Y-86828380D01*
X135112095Y-87733142D02*
X135064476Y-87780761D01*
X134921619Y-87828380D01*
X134826380Y-87828380D01*
X134683523Y-87780761D01*
X134588285Y-87685523D01*
X134540666Y-87590285D01*
X134493047Y-87399809D01*
X134493047Y-87256952D01*
X134540666Y-87066476D01*
X134588285Y-86971238D01*
X134683523Y-86876000D01*
X134826380Y-86828380D01*
X134921619Y-86828380D01*
X135064476Y-86876000D01*
X135112095Y-86923619D01*
X136112095Y-87733142D02*
X136064476Y-87780761D01*
X135921619Y-87828380D01*
X135826380Y-87828380D01*
X135683523Y-87780761D01*
X135588285Y-87685523D01*
X135540666Y-87590285D01*
X135493047Y-87399809D01*
X135493047Y-87256952D01*
X135540666Y-87066476D01*
X135588285Y-86971238D01*
X135683523Y-86876000D01*
X135826380Y-86828380D01*
X135921619Y-86828380D01*
X136064476Y-86876000D01*
X136112095Y-86923619D01*
X172212095Y-106180000D02*
X172116857Y-106132380D01*
X171974000Y-106132380D01*
X171831142Y-106180000D01*
X171735904Y-106275238D01*
X171688285Y-106370476D01*
X171640666Y-106560952D01*
X171640666Y-106703809D01*
X171688285Y-106894285D01*
X171735904Y-106989523D01*
X171831142Y-107084761D01*
X171974000Y-107132380D01*
X172069238Y-107132380D01*
X172212095Y-107084761D01*
X172259714Y-107037142D01*
X172259714Y-106703809D01*
X172069238Y-106703809D01*
X172688285Y-107132380D02*
X172688285Y-106132380D01*
X173259714Y-107132380D01*
X173259714Y-106132380D01*
X173735904Y-107132380D02*
X173735904Y-106132380D01*
X173974000Y-106132380D01*
X174116857Y-106180000D01*
X174212095Y-106275238D01*
X174259714Y-106370476D01*
X174307333Y-106560952D01*
X174307333Y-106703809D01*
X174259714Y-106894285D01*
X174212095Y-106989523D01*
X174116857Y-107084761D01*
X173974000Y-107132380D01*
X173735904Y-107132380D01*
X169227619Y-106132380D02*
X169560952Y-107132380D01*
X169894285Y-106132380D01*
X170227619Y-106751428D02*
X170989523Y-106751428D01*
X170608571Y-107132380D02*
X170608571Y-106370476D01*
X172212095Y-98560000D02*
X172116857Y-98512380D01*
X171974000Y-98512380D01*
X171831142Y-98560000D01*
X171735904Y-98655238D01*
X171688285Y-98750476D01*
X171640666Y-98940952D01*
X171640666Y-99083809D01*
X171688285Y-99274285D01*
X171735904Y-99369523D01*
X171831142Y-99464761D01*
X171974000Y-99512380D01*
X172069238Y-99512380D01*
X172212095Y-99464761D01*
X172259714Y-99417142D01*
X172259714Y-99083809D01*
X172069238Y-99083809D01*
X172688285Y-99512380D02*
X172688285Y-98512380D01*
X173259714Y-99512380D01*
X173259714Y-98512380D01*
X173735904Y-99512380D02*
X173735904Y-98512380D01*
X173974000Y-98512380D01*
X174116857Y-98560000D01*
X174212095Y-98655238D01*
X174259714Y-98750476D01*
X174307333Y-98940952D01*
X174307333Y-99083809D01*
X174259714Y-99274285D01*
X174212095Y-99369523D01*
X174116857Y-99464761D01*
X173974000Y-99512380D01*
X173735904Y-99512380D01*
X169227619Y-98512380D02*
X169560952Y-99512380D01*
X169894285Y-98512380D01*
X170227619Y-99131428D02*
X170989523Y-99131428D01*
X170608571Y-99512380D02*
X170608571Y-98750476D01*
X-1650952Y22026571D02*
X-889047Y22026571D01*
X-1270000Y21645619D02*
X-1270000Y22407523D01*
X1341428Y21717047D02*
X1341428Y22478952D01*
X169545047Y-75255428D02*
X170306952Y-75255428D01*
X169926000Y-75636380D02*
X169926000Y-74874476D01*
X172537428Y-75564952D02*
X172537428Y-74803047D01*
X172267619Y-76739714D02*
X172220000Y-76692095D01*
X172172380Y-76596857D01*
X172172380Y-76358761D01*
X172220000Y-76263523D01*
X172267619Y-76215904D01*
X172362857Y-76168285D01*
X172458095Y-76168285D01*
X172600952Y-76215904D01*
X173172380Y-76787333D01*
X173172380Y-76168285D01*
X170632380Y-76168285D02*
X170632380Y-76739714D01*
X170632380Y-76454000D02*
X169632380Y-76454000D01*
X169775238Y-76549238D01*
X169870476Y-76644476D01*
X169918095Y-76739714D01*
X168711714Y-64206380D02*
X168711714Y-63206380D01*
X168949809Y-63206380D01*
X169092666Y-63254000D01*
X169187904Y-63349238D01*
X169235523Y-63444476D01*
X169283142Y-63634952D01*
X169283142Y-63777809D01*
X169235523Y-63968285D01*
X169187904Y-64063523D01*
X169092666Y-64158761D01*
X168949809Y-64206380D01*
X168711714Y-64206380D01*
X169902190Y-63730190D02*
X169902190Y-64206380D01*
X169568857Y-63206380D02*
X169902190Y-63730190D01*
X170235523Y-63206380D01*
X170568857Y-64206380D02*
X170568857Y-63206380D01*
X171140285Y-64206380D01*
X171140285Y-63206380D01*
X169441904Y-65968571D02*
X169584761Y-66016190D01*
X169632380Y-66063809D01*
X169680000Y-66159047D01*
X169680000Y-66301904D01*
X169632380Y-66397142D01*
X169584761Y-66444761D01*
X169489523Y-66492380D01*
X169108571Y-66492380D01*
X169108571Y-65492380D01*
X169441904Y-65492380D01*
X169537142Y-65540000D01*
X169584761Y-65587619D01*
X169632380Y-65682857D01*
X169632380Y-65778095D01*
X169584761Y-65873333D01*
X169537142Y-65920952D01*
X169441904Y-65968571D01*
X169108571Y-65968571D01*
X170060952Y-66206666D02*
X170537142Y-66206666D01*
X169965714Y-66492380D02*
X170299047Y-65492380D01*
X170632380Y-66492380D01*
X170822857Y-65492380D02*
X171394285Y-65492380D01*
X171108571Y-66492380D02*
X171108571Y-65492380D01*
X170886380Y-72596190D02*
X169886380Y-72596190D01*
X169886380Y-71929523D02*
X169886380Y-71739047D01*
X169934000Y-71643809D01*
X170029238Y-71548571D01*
X170219714Y-71500952D01*
X170553047Y-71500952D01*
X170743523Y-71548571D01*
X170838761Y-71643809D01*
X170886380Y-71739047D01*
X170886380Y-71929523D01*
X170838761Y-72024761D01*
X170743523Y-72120000D01*
X170553047Y-72167619D01*
X170219714Y-72167619D01*
X170029238Y-72120000D01*
X169934000Y-72024761D01*
X169886380Y-71929523D01*
X169981619Y-71120000D02*
X169934000Y-71072380D01*
X169886380Y-70977142D01*
X169886380Y-70739047D01*
X169934000Y-70643809D01*
X169981619Y-70596190D01*
X170076857Y-70548571D01*
X170172095Y-70548571D01*
X170314952Y-70596190D01*
X170886380Y-71167619D01*
X170886380Y-70548571D01*
X169981619Y-70167619D02*
X169934000Y-70120000D01*
X169886380Y-70024761D01*
X169886380Y-69786666D01*
X169934000Y-69691428D01*
X169981619Y-69643809D01*
X170076857Y-69596190D01*
X170172095Y-69596190D01*
X170314952Y-69643809D01*
X170886380Y-70215238D01*
X170886380Y-69596190D01*
X169180000Y-69032380D02*
X169180000Y-68032380D01*
X169846666Y-68032380D02*
X170037142Y-68032380D01*
X170132380Y-68080000D01*
X170227619Y-68175238D01*
X170275238Y-68365714D01*
X170275238Y-68699047D01*
X170227619Y-68889523D01*
X170132380Y-68984761D01*
X170037142Y-69032380D01*
X169846666Y-69032380D01*
X169751428Y-68984761D01*
X169656190Y-68889523D01*
X169608571Y-68699047D01*
X169608571Y-68365714D01*
X169656190Y-68175238D01*
X169751428Y-68080000D01*
X169846666Y-68032380D01*
X171180000Y-68032380D02*
X170703809Y-68032380D01*
X170656190Y-68508571D01*
X170703809Y-68460952D01*
X170799047Y-68413333D01*
X171037142Y-68413333D01*
X171132380Y-68460952D01*
X171180000Y-68508571D01*
X171227619Y-68603809D01*
X171227619Y-68841904D01*
X171180000Y-68937142D01*
X171132380Y-68984761D01*
X171037142Y-69032380D01*
X170799047Y-69032380D01*
X170703809Y-68984761D01*
X170656190Y-68937142D01*
X169156190Y-60807000D02*
X170156190Y-60807000D01*
X169965714Y-62079142D02*
X169918095Y-62126761D01*
X169775238Y-62174380D01*
X169680000Y-62174380D01*
X169537142Y-62126761D01*
X169441904Y-62031523D01*
X169394285Y-61936285D01*
X169346666Y-61745809D01*
X169346666Y-61602952D01*
X169394285Y-61412476D01*
X169441904Y-61317238D01*
X169537142Y-61222000D01*
X169680000Y-61174380D01*
X169775238Y-61174380D01*
X169918095Y-61222000D01*
X169965714Y-61269619D01*
X170156190Y-60807000D02*
X171203809Y-60807000D01*
X170394285Y-62174380D02*
X170394285Y-61174380D01*
X170394285Y-61650571D02*
X170965714Y-61650571D01*
X170965714Y-62174380D02*
X170965714Y-61174380D01*
X169584761Y-58777142D02*
X169537142Y-58824761D01*
X169394285Y-58872380D01*
X169299047Y-58872380D01*
X169156190Y-58824761D01*
X169060952Y-58729523D01*
X169013333Y-58634285D01*
X168965714Y-58443809D01*
X168965714Y-58300952D01*
X169013333Y-58110476D01*
X169060952Y-58015238D01*
X169156190Y-57920000D01*
X169299047Y-57872380D01*
X169394285Y-57872380D01*
X169537142Y-57920000D01*
X169584761Y-57967619D01*
X170489523Y-58872380D02*
X170013333Y-58872380D01*
X170013333Y-57872380D01*
X170822857Y-58872380D02*
X170822857Y-57872380D01*
X171394285Y-58872380D02*
X170965714Y-58300952D01*
X171394285Y-57872380D02*
X170822857Y-58443809D01*
X171267380Y-57451428D02*
X170267380Y-57451428D01*
X170981666Y-57118095D01*
X170267380Y-56784761D01*
X171267380Y-56784761D01*
X171267380Y-56308571D02*
X170267380Y-56308571D01*
X171219761Y-55880000D02*
X171267380Y-55737142D01*
X171267380Y-55499047D01*
X171219761Y-55403809D01*
X171172142Y-55356190D01*
X171076904Y-55308571D01*
X170981666Y-55308571D01*
X170886428Y-55356190D01*
X170838809Y-55403809D01*
X170791190Y-55499047D01*
X170743571Y-55689523D01*
X170695952Y-55784761D01*
X170648333Y-55832380D01*
X170553095Y-55880000D01*
X170457857Y-55880000D01*
X170362619Y-55832380D01*
X170315000Y-55784761D01*
X170267380Y-55689523D01*
X170267380Y-55451428D01*
X170315000Y-55308571D01*
X170267380Y-54689523D02*
X170267380Y-54499047D01*
X170315000Y-54403809D01*
X170410238Y-54308571D01*
X170600714Y-54260952D01*
X170934047Y-54260952D01*
X171124523Y-54308571D01*
X171219761Y-54403809D01*
X171267380Y-54499047D01*
X171267380Y-54689523D01*
X171219761Y-54784761D01*
X171124523Y-54880000D01*
X170934047Y-54927619D01*
X170600714Y-54927619D01*
X170410238Y-54880000D01*
X170315000Y-54784761D01*
X170267380Y-54689523D01*
X167973571Y-53792380D02*
X167973571Y-52792380D01*
X168306904Y-53506666D01*
X168640238Y-52792380D01*
X168640238Y-53792380D01*
X169306904Y-52792380D02*
X169497380Y-52792380D01*
X169592619Y-52840000D01*
X169687857Y-52935238D01*
X169735476Y-53125714D01*
X169735476Y-53459047D01*
X169687857Y-53649523D01*
X169592619Y-53744761D01*
X169497380Y-53792380D01*
X169306904Y-53792380D01*
X169211666Y-53744761D01*
X169116428Y-53649523D01*
X169068809Y-53459047D01*
X169068809Y-53125714D01*
X169116428Y-52935238D01*
X169211666Y-52840000D01*
X169306904Y-52792380D01*
X170116428Y-53744761D02*
X170259285Y-53792380D01*
X170497380Y-53792380D01*
X170592619Y-53744761D01*
X170640238Y-53697142D01*
X170687857Y-53601904D01*
X170687857Y-53506666D01*
X170640238Y-53411428D01*
X170592619Y-53363809D01*
X170497380Y-53316190D01*
X170306904Y-53268571D01*
X170211666Y-53220952D01*
X170164047Y-53173333D01*
X170116428Y-53078095D01*
X170116428Y-52982857D01*
X170164047Y-52887619D01*
X170211666Y-52840000D01*
X170306904Y-52792380D01*
X170545000Y-52792380D01*
X170687857Y-52840000D01*
X171116428Y-53792380D02*
X171116428Y-52792380D01*
X163226904Y-55332380D02*
X163798333Y-55332380D01*
X163512619Y-56332380D02*
X163512619Y-55332380D01*
X164036428Y-55332380D02*
X164703095Y-56332380D01*
X164703095Y-55332380D02*
X164036428Y-56332380D01*
X165274523Y-55332380D02*
X165369761Y-55332380D01*
X165465000Y-55380000D01*
X165512619Y-55427619D01*
X165560238Y-55522857D01*
X165607857Y-55713333D01*
X165607857Y-55951428D01*
X165560238Y-56141904D01*
X165512619Y-56237142D01*
X165465000Y-56284761D01*
X165369761Y-56332380D01*
X165274523Y-56332380D01*
X165179285Y-56284761D01*
X165131666Y-56237142D01*
X165084047Y-56141904D01*
X165036428Y-55951428D01*
X165036428Y-55713333D01*
X165084047Y-55522857D01*
X165131666Y-55427619D01*
X165179285Y-55380000D01*
X165274523Y-55332380D01*
X163822142Y-58872380D02*
X163488809Y-58396190D01*
X163250714Y-58872380D02*
X163250714Y-57872380D01*
X163631666Y-57872380D01*
X163726904Y-57920000D01*
X163774523Y-57967619D01*
X163822142Y-58062857D01*
X163822142Y-58205714D01*
X163774523Y-58300952D01*
X163726904Y-58348571D01*
X163631666Y-58396190D01*
X163250714Y-58396190D01*
X164155476Y-57872380D02*
X164822142Y-58872380D01*
X164822142Y-57872380D02*
X164155476Y-58872380D01*
X165393571Y-57872380D02*
X165488809Y-57872380D01*
X165584047Y-57920000D01*
X165631666Y-57967619D01*
X165679285Y-58062857D01*
X165726904Y-58253333D01*
X165726904Y-58491428D01*
X165679285Y-58681904D01*
X165631666Y-58777142D01*
X165584047Y-58824761D01*
X165488809Y-58872380D01*
X165393571Y-58872380D01*
X165298333Y-58824761D01*
X165250714Y-58777142D01*
X165203095Y-58681904D01*
X165155476Y-58491428D01*
X165155476Y-58253333D01*
X165203095Y-58062857D01*
X165250714Y-57967619D01*
X165298333Y-57920000D01*
X165393571Y-57872380D01*
X163703095Y-60460000D02*
X163607857Y-60412380D01*
X163465000Y-60412380D01*
X163322142Y-60460000D01*
X163226904Y-60555238D01*
X163179285Y-60650476D01*
X163131666Y-60840952D01*
X163131666Y-60983809D01*
X163179285Y-61174285D01*
X163226904Y-61269523D01*
X163322142Y-61364761D01*
X163465000Y-61412380D01*
X163560238Y-61412380D01*
X163703095Y-61364761D01*
X163750714Y-61317142D01*
X163750714Y-60983809D01*
X163560238Y-60983809D01*
X164179285Y-61412380D02*
X164179285Y-60412380D01*
X164750714Y-61412380D01*
X164750714Y-60412380D01*
X165226904Y-61412380D02*
X165226904Y-60412380D01*
X165465000Y-60412380D01*
X165607857Y-60460000D01*
X165703095Y-60555238D01*
X165750714Y-60650476D01*
X165798333Y-60840952D01*
X165798333Y-60983809D01*
X165750714Y-61174285D01*
X165703095Y-61269523D01*
X165607857Y-61364761D01*
X165465000Y-61412380D01*
X165226904Y-61412380D01*
X163226904Y-65492380D02*
X163798333Y-65492380D01*
X163512619Y-66492380D02*
X163512619Y-65492380D01*
X164036428Y-65492380D02*
X164703095Y-66492380D01*
X164703095Y-65492380D02*
X164036428Y-66492380D01*
X165607857Y-66492380D02*
X165036428Y-66492380D01*
X165322142Y-66492380D02*
X165322142Y-65492380D01*
X165226904Y-65635238D01*
X165131666Y-65730476D01*
X165036428Y-65778095D01*
X163822142Y-69032380D02*
X163488809Y-68556190D01*
X163250714Y-69032380D02*
X163250714Y-68032380D01*
X163631666Y-68032380D01*
X163726904Y-68080000D01*
X163774523Y-68127619D01*
X163822142Y-68222857D01*
X163822142Y-68365714D01*
X163774523Y-68460952D01*
X163726904Y-68508571D01*
X163631666Y-68556190D01*
X163250714Y-68556190D01*
X164155476Y-68032380D02*
X164822142Y-69032380D01*
X164822142Y-68032380D02*
X164155476Y-69032380D01*
X165726904Y-69032380D02*
X165155476Y-69032380D01*
X165441190Y-69032380D02*
X165441190Y-68032380D01*
X165345952Y-68175238D01*
X165250714Y-68270476D01*
X165155476Y-68318095D01*
X163703095Y-70620000D02*
X163607857Y-70572380D01*
X163465000Y-70572380D01*
X163322142Y-70620000D01*
X163226904Y-70715238D01*
X163179285Y-70810476D01*
X163131666Y-71000952D01*
X163131666Y-71143809D01*
X163179285Y-71334285D01*
X163226904Y-71429523D01*
X163322142Y-71524761D01*
X163465000Y-71572380D01*
X163560238Y-71572380D01*
X163703095Y-71524761D01*
X163750714Y-71477142D01*
X163750714Y-71143809D01*
X163560238Y-71143809D01*
X164179285Y-71572380D02*
X164179285Y-70572380D01*
X164750714Y-71572380D01*
X164750714Y-70572380D01*
X165226904Y-71572380D02*
X165226904Y-70572380D01*
X165465000Y-70572380D01*
X165607857Y-70620000D01*
X165703095Y-70715238D01*
X165750714Y-70810476D01*
X165798333Y-71000952D01*
X165798333Y-71143809D01*
X165750714Y-71334285D01*
X165703095Y-71429523D01*
X165607857Y-71524761D01*
X165465000Y-71572380D01*
X165226904Y-71572380D01*
X134231190Y-81684761D02*
X134374047Y-81732380D01*
X134612142Y-81732380D01*
X134707380Y-81684761D01*
X134755000Y-81637142D01*
X134802619Y-81541904D01*
X134802619Y-81446666D01*
X134755000Y-81351428D01*
X134707380Y-81303809D01*
X134612142Y-81256190D01*
X134421666Y-81208571D01*
X134326428Y-81160952D01*
X134278809Y-81113333D01*
X134231190Y-81018095D01*
X134231190Y-80922857D01*
X134278809Y-80827619D01*
X134326428Y-80780000D01*
X134421666Y-80732380D01*
X134659761Y-80732380D01*
X134802619Y-80780000D01*
X135231190Y-81732380D02*
X135231190Y-80732380D01*
X135469285Y-80732380D01*
X135612142Y-80780000D01*
X135707380Y-80875238D01*
X135755000Y-80970476D01*
X135802619Y-81160952D01*
X135802619Y-81303809D01*
X135755000Y-81494285D01*
X135707380Y-81589523D01*
X135612142Y-81684761D01*
X135469285Y-81732380D01*
X135231190Y-81732380D01*
X136231190Y-81732380D02*
X136231190Y-80732380D01*
X133945476Y-79144761D02*
X134088333Y-79192380D01*
X134326428Y-79192380D01*
X134421666Y-79144761D01*
X134469285Y-79097142D01*
X134516904Y-79001904D01*
X134516904Y-78906666D01*
X134469285Y-78811428D01*
X134421666Y-78763809D01*
X134326428Y-78716190D01*
X134135952Y-78668571D01*
X134040714Y-78620952D01*
X133993095Y-78573333D01*
X133945476Y-78478095D01*
X133945476Y-78382857D01*
X133993095Y-78287619D01*
X134040714Y-78240000D01*
X134135952Y-78192380D01*
X134374047Y-78192380D01*
X134516904Y-78240000D01*
X134945476Y-79192380D02*
X134945476Y-78192380D01*
X135183571Y-78192380D01*
X135326428Y-78240000D01*
X135421666Y-78335238D01*
X135469285Y-78430476D01*
X135516904Y-78620952D01*
X135516904Y-78763809D01*
X135469285Y-78954285D01*
X135421666Y-79049523D01*
X135326428Y-79144761D01*
X135183571Y-79192380D01*
X134945476Y-79192380D01*
X136135952Y-78192380D02*
X136326428Y-78192380D01*
X136421666Y-78240000D01*
X136516904Y-78335238D01*
X136564523Y-78525714D01*
X136564523Y-78859047D01*
X136516904Y-79049523D01*
X136421666Y-79144761D01*
X136326428Y-79192380D01*
X136135952Y-79192380D01*
X136040714Y-79144761D01*
X135945476Y-79049523D01*
X135897857Y-78859047D01*
X135897857Y-78525714D01*
X135945476Y-78335238D01*
X136040714Y-78240000D01*
X136135952Y-78192380D01*
X133969285Y-76604761D02*
X134112142Y-76652380D01*
X134350238Y-76652380D01*
X134445476Y-76604761D01*
X134493095Y-76557142D01*
X134540714Y-76461904D01*
X134540714Y-76366666D01*
X134493095Y-76271428D01*
X134445476Y-76223809D01*
X134350238Y-76176190D01*
X134159761Y-76128571D01*
X134064523Y-76080952D01*
X134016904Y-76033333D01*
X133969285Y-75938095D01*
X133969285Y-75842857D01*
X134016904Y-75747619D01*
X134064523Y-75700000D01*
X134159761Y-75652380D01*
X134397857Y-75652380D01*
X134540714Y-75700000D01*
X135540714Y-76557142D02*
X135493095Y-76604761D01*
X135350238Y-76652380D01*
X135255000Y-76652380D01*
X135112142Y-76604761D01*
X135016904Y-76509523D01*
X134969285Y-76414285D01*
X134921666Y-76223809D01*
X134921666Y-76080952D01*
X134969285Y-75890476D01*
X135016904Y-75795238D01*
X135112142Y-75700000D01*
X135255000Y-75652380D01*
X135350238Y-75652380D01*
X135493095Y-75700000D01*
X135540714Y-75747619D01*
X135969285Y-76652380D02*
X135969285Y-75652380D01*
X136540714Y-76652380D02*
X136112142Y-76080952D01*
X136540714Y-75652380D02*
X135969285Y-76223809D01*
X133993095Y-74064761D02*
X134135952Y-74112380D01*
X134374047Y-74112380D01*
X134469285Y-74064761D01*
X134516904Y-74017142D01*
X134564523Y-73921904D01*
X134564523Y-73826666D01*
X134516904Y-73731428D01*
X134469285Y-73683809D01*
X134374047Y-73636190D01*
X134183571Y-73588571D01*
X134088333Y-73540952D01*
X134040714Y-73493333D01*
X133993095Y-73398095D01*
X133993095Y-73302857D01*
X134040714Y-73207619D01*
X134088333Y-73160000D01*
X134183571Y-73112380D01*
X134421666Y-73112380D01*
X134564523Y-73160000D01*
X135564523Y-74017142D02*
X135516904Y-74064761D01*
X135374047Y-74112380D01*
X135278809Y-74112380D01*
X135135952Y-74064761D01*
X135040714Y-73969523D01*
X134993095Y-73874285D01*
X134945476Y-73683809D01*
X134945476Y-73540952D01*
X134993095Y-73350476D01*
X135040714Y-73255238D01*
X135135952Y-73160000D01*
X135278809Y-73112380D01*
X135374047Y-73112380D01*
X135516904Y-73160000D01*
X135564523Y-73207619D01*
X135945476Y-74064761D02*
X136088333Y-74112380D01*
X136326428Y-74112380D01*
X136421666Y-74064761D01*
X136469285Y-74017142D01*
X136516904Y-73921904D01*
X136516904Y-73826666D01*
X136469285Y-73731428D01*
X136421666Y-73683809D01*
X136326428Y-73636190D01*
X136135952Y-73588571D01*
X136040714Y-73540952D01*
X135993095Y-73493333D01*
X135945476Y-73398095D01*
X135945476Y-73302857D01*
X135993095Y-73207619D01*
X136040714Y-73160000D01*
X136135952Y-73112380D01*
X136374047Y-73112380D01*
X136516904Y-73160000D01*
X133897857Y-71524761D02*
X134040714Y-71572380D01*
X134278809Y-71572380D01*
X134374047Y-71524761D01*
X134421666Y-71477142D01*
X134469285Y-71381904D01*
X134469285Y-71286666D01*
X134421666Y-71191428D01*
X134374047Y-71143809D01*
X134278809Y-71096190D01*
X134088333Y-71048571D01*
X133993095Y-71000952D01*
X133945476Y-70953333D01*
X133897857Y-70858095D01*
X133897857Y-70762857D01*
X133945476Y-70667619D01*
X133993095Y-70620000D01*
X134088333Y-70572380D01*
X134326428Y-70572380D01*
X134469285Y-70620000D01*
X134802619Y-70572380D02*
X135040714Y-71572380D01*
X135231190Y-70858095D01*
X135421666Y-71572380D01*
X135659761Y-70572380D01*
X136040714Y-71572380D02*
X136040714Y-70572380D01*
X136421666Y-70572380D01*
X136516904Y-70620000D01*
X136564523Y-70667619D01*
X136612142Y-70762857D01*
X136612142Y-70905714D01*
X136564523Y-71000952D01*
X136516904Y-71048571D01*
X136421666Y-71096190D01*
X136040714Y-71096190D01*
X133945476Y-68984761D02*
X134088333Y-69032380D01*
X134326428Y-69032380D01*
X134421666Y-68984761D01*
X134469285Y-68937142D01*
X134516904Y-68841904D01*
X134516904Y-68746666D01*
X134469285Y-68651428D01*
X134421666Y-68603809D01*
X134326428Y-68556190D01*
X134135952Y-68508571D01*
X134040714Y-68460952D01*
X133993095Y-68413333D01*
X133945476Y-68318095D01*
X133945476Y-68222857D01*
X133993095Y-68127619D01*
X134040714Y-68080000D01*
X134135952Y-68032380D01*
X134374047Y-68032380D01*
X134516904Y-68080000D01*
X134945476Y-69032380D02*
X134945476Y-68032380D01*
X134945476Y-68508571D02*
X135516904Y-68508571D01*
X135516904Y-69032380D02*
X135516904Y-68032380D01*
X135993095Y-69032380D02*
X135993095Y-68032380D01*
X136231190Y-68032380D01*
X136374047Y-68080000D01*
X136469285Y-68175238D01*
X136516904Y-68270476D01*
X136564523Y-68460952D01*
X136564523Y-68603809D01*
X136516904Y-68794285D01*
X136469285Y-68889523D01*
X136374047Y-68984761D01*
X136231190Y-69032380D01*
X135993095Y-69032380D01*
X133778809Y-66492380D02*
X133778809Y-65492380D01*
X134445476Y-65492380D02*
X134635952Y-65492380D01*
X134731190Y-65540000D01*
X134826428Y-65635238D01*
X134874047Y-65825714D01*
X134874047Y-66159047D01*
X134826428Y-66349523D01*
X134731190Y-66444761D01*
X134635952Y-66492380D01*
X134445476Y-66492380D01*
X134350238Y-66444761D01*
X134255000Y-66349523D01*
X134207380Y-66159047D01*
X134207380Y-65825714D01*
X134255000Y-65635238D01*
X134350238Y-65540000D01*
X134445476Y-65492380D01*
X135826428Y-66492380D02*
X135255000Y-66492380D01*
X135540714Y-66492380D02*
X135540714Y-65492380D01*
X135445476Y-65635238D01*
X135350238Y-65730476D01*
X135255000Y-65778095D01*
X136207380Y-65587619D02*
X136255000Y-65540000D01*
X136350238Y-65492380D01*
X136588333Y-65492380D01*
X136683571Y-65540000D01*
X136731190Y-65587619D01*
X136778809Y-65682857D01*
X136778809Y-65778095D01*
X136731190Y-65920952D01*
X136159761Y-66492380D01*
X136778809Y-66492380D01*
X133778809Y-63952380D02*
X133778809Y-62952380D01*
X134445476Y-62952380D02*
X134635952Y-62952380D01*
X134731190Y-63000000D01*
X134826428Y-63095238D01*
X134874047Y-63285714D01*
X134874047Y-63619047D01*
X134826428Y-63809523D01*
X134731190Y-63904761D01*
X134635952Y-63952380D01*
X134445476Y-63952380D01*
X134350238Y-63904761D01*
X134255000Y-63809523D01*
X134207380Y-63619047D01*
X134207380Y-63285714D01*
X134255000Y-63095238D01*
X134350238Y-63000000D01*
X134445476Y-62952380D01*
X135826428Y-63952380D02*
X135255000Y-63952380D01*
X135540714Y-63952380D02*
X135540714Y-62952380D01*
X135445476Y-63095238D01*
X135350238Y-63190476D01*
X135255000Y-63238095D01*
X136683571Y-63285714D02*
X136683571Y-63952380D01*
X136445476Y-62904761D02*
X136207380Y-63619047D01*
X136826428Y-63619047D01*
X133778809Y-61412380D02*
X133778809Y-60412380D01*
X134445476Y-60412380D02*
X134635952Y-60412380D01*
X134731190Y-60460000D01*
X134826428Y-60555238D01*
X134874047Y-60745714D01*
X134874047Y-61079047D01*
X134826428Y-61269523D01*
X134731190Y-61364761D01*
X134635952Y-61412380D01*
X134445476Y-61412380D01*
X134350238Y-61364761D01*
X134255000Y-61269523D01*
X134207380Y-61079047D01*
X134207380Y-60745714D01*
X134255000Y-60555238D01*
X134350238Y-60460000D01*
X134445476Y-60412380D01*
X135207380Y-60412380D02*
X135826428Y-60412380D01*
X135493095Y-60793333D01*
X135635952Y-60793333D01*
X135731190Y-60840952D01*
X135778809Y-60888571D01*
X135826428Y-60983809D01*
X135826428Y-61221904D01*
X135778809Y-61317142D01*
X135731190Y-61364761D01*
X135635952Y-61412380D01*
X135350238Y-61412380D01*
X135255000Y-61364761D01*
X135207380Y-61317142D01*
X136731190Y-60412380D02*
X136255000Y-60412380D01*
X136207380Y-60888571D01*
X136255000Y-60840952D01*
X136350238Y-60793333D01*
X136588333Y-60793333D01*
X136683571Y-60840952D01*
X136731190Y-60888571D01*
X136778809Y-60983809D01*
X136778809Y-61221904D01*
X136731190Y-61317142D01*
X136683571Y-61364761D01*
X136588333Y-61412380D01*
X136350238Y-61412380D01*
X136255000Y-61364761D01*
X136207380Y-61317142D01*
X133778809Y-58872380D02*
X133778809Y-57872380D01*
X134445476Y-57872380D02*
X134635952Y-57872380D01*
X134731190Y-57920000D01*
X134826428Y-58015238D01*
X134874047Y-58205714D01*
X134874047Y-58539047D01*
X134826428Y-58729523D01*
X134731190Y-58824761D01*
X134635952Y-58872380D01*
X134445476Y-58872380D01*
X134350238Y-58824761D01*
X134255000Y-58729523D01*
X134207380Y-58539047D01*
X134207380Y-58205714D01*
X134255000Y-58015238D01*
X134350238Y-57920000D01*
X134445476Y-57872380D01*
X135207380Y-57872380D02*
X135826428Y-57872380D01*
X135493095Y-58253333D01*
X135635952Y-58253333D01*
X135731190Y-58300952D01*
X135778809Y-58348571D01*
X135826428Y-58443809D01*
X135826428Y-58681904D01*
X135778809Y-58777142D01*
X135731190Y-58824761D01*
X135635952Y-58872380D01*
X135350238Y-58872380D01*
X135255000Y-58824761D01*
X135207380Y-58777142D01*
X136683571Y-58205714D02*
X136683571Y-58872380D01*
X136445476Y-57824761D02*
X136207380Y-58539047D01*
X136826428Y-58539047D01*
X134016904Y-56284761D02*
X134159761Y-56332380D01*
X134397857Y-56332380D01*
X134493095Y-56284761D01*
X134540714Y-56237142D01*
X134588333Y-56141904D01*
X134588333Y-56046666D01*
X134540714Y-55951428D01*
X134493095Y-55903809D01*
X134397857Y-55856190D01*
X134207380Y-55808571D01*
X134112142Y-55760952D01*
X134064523Y-55713333D01*
X134016904Y-55618095D01*
X134016904Y-55522857D01*
X134064523Y-55427619D01*
X134112142Y-55380000D01*
X134207380Y-55332380D01*
X134445476Y-55332380D01*
X134588333Y-55380000D01*
X134874047Y-55332380D02*
X135207380Y-56332380D01*
X135540714Y-55332380D01*
X135874047Y-56332380D02*
X135874047Y-55332380D01*
X136445476Y-56332380D01*
X136445476Y-55332380D01*
X134040714Y-53744761D02*
X134183571Y-53792380D01*
X134421666Y-53792380D01*
X134516904Y-53744761D01*
X134564523Y-53697142D01*
X134612142Y-53601904D01*
X134612142Y-53506666D01*
X134564523Y-53411428D01*
X134516904Y-53363809D01*
X134421666Y-53316190D01*
X134231190Y-53268571D01*
X134135952Y-53220952D01*
X134088333Y-53173333D01*
X134040714Y-53078095D01*
X134040714Y-52982857D01*
X134088333Y-52887619D01*
X134135952Y-52840000D01*
X134231190Y-52792380D01*
X134469285Y-52792380D01*
X134612142Y-52840000D01*
X134897857Y-52792380D02*
X135231190Y-53792380D01*
X135564523Y-52792380D01*
X135897857Y-53792380D02*
X135897857Y-52792380D01*
X136278809Y-52792380D01*
X136374047Y-52840000D01*
X136421666Y-52887619D01*
X136469285Y-52982857D01*
X136469285Y-53125714D01*
X136421666Y-53220952D01*
X136374047Y-53268571D01*
X136278809Y-53316190D01*
X135897857Y-53316190D01*
D11*
X172720000Y-52010000D02*
X174050000Y-52010000D01*
X174050000Y-52010000D02*
X174050000Y-53340000D01*
X174050000Y-54610000D02*
X174050000Y-72450000D01*
X171390000Y-72450000D02*
X174050000Y-72450000D01*
X171390000Y-54610000D02*
X171390000Y-72450000D01*
X171390000Y-54610000D02*
X174050000Y-54610000D01*
X132080000Y-52010000D02*
X133410000Y-52010000D01*
X133410000Y-52010000D02*
X133410000Y-53340000D01*
X133410000Y-54610000D02*
X133410000Y-82610000D01*
X130750000Y-82610000D02*
X133410000Y-82610000D01*
X130750000Y-54610000D02*
X130750000Y-82610000D01*
X130750000Y-54610000D02*
X133410000Y-54610000D01*
X162301422Y-108406000D02*
X162818578Y-108406000D01*
X162301422Y-106986000D02*
X162818578Y-106986000D01*
X166310000Y-64710000D02*
X167640000Y-64710000D01*
X166310000Y-66040000D02*
X166310000Y-64710000D01*
X166310000Y-67310000D02*
X168970000Y-67310000D01*
X168970000Y-67310000D02*
X168970000Y-72450000D01*
X166310000Y-67310000D02*
X166310000Y-72450000D01*
X166310000Y-72450000D02*
X168970000Y-72450000D01*
X172343578Y-74220000D02*
X171826422Y-74220000D01*
X172343578Y-75640000D02*
X171826422Y-75640000D01*
X166650302Y-84915000D02*
X166650302Y-85715000D01*
X166250302Y-85315000D02*
X167050302Y-85315000D01*
X174741000Y-87097000D02*
X174741000Y-88163000D01*
X174701000Y-86862000D02*
X174701000Y-88398000D01*
X174661000Y-86682000D02*
X174661000Y-88578000D01*
X174621000Y-86532000D02*
X174621000Y-88728000D01*
X174581000Y-86401000D02*
X174581000Y-88859000D01*
X174541000Y-86284000D02*
X174541000Y-88976000D01*
X174501000Y-86177000D02*
X174501000Y-89083000D01*
X174461000Y-86078000D02*
X174461000Y-89182000D01*
X174421000Y-85985000D02*
X174421000Y-89275000D01*
X174381000Y-85899000D02*
X174381000Y-89361000D01*
X174341000Y-85817000D02*
X174341000Y-89443000D01*
X174301000Y-85740000D02*
X174301000Y-89520000D01*
X174261000Y-85666000D02*
X174261000Y-89594000D01*
X174221000Y-85596000D02*
X174221000Y-89664000D01*
X174181000Y-85528000D02*
X174181000Y-89732000D01*
X174141000Y-85464000D02*
X174141000Y-89796000D01*
X174101000Y-85402000D02*
X174101000Y-89858000D01*
X174061000Y-85343000D02*
X174061000Y-89917000D01*
X174021000Y-85285000D02*
X174021000Y-89975000D01*
X173981000Y-85230000D02*
X173981000Y-90030000D01*
X173941000Y-85176000D02*
X173941000Y-90084000D01*
X173901000Y-85125000D02*
X173901000Y-90135000D01*
X173861000Y-85074000D02*
X173861000Y-90186000D01*
X173821000Y-85026000D02*
X173821000Y-90234000D01*
X173781000Y-84979000D02*
X173781000Y-90281000D01*
X173741000Y-84933000D02*
X173741000Y-90327000D01*
X173701000Y-84889000D02*
X173701000Y-90371000D01*
X173661000Y-84846000D02*
X173661000Y-90414000D01*
X173621000Y-84804000D02*
X173621000Y-90456000D01*
X173581000Y-84763000D02*
X173581000Y-90497000D01*
X173541000Y-84723000D02*
X173541000Y-90537000D01*
X173501000Y-84685000D02*
X173501000Y-90575000D01*
X173461000Y-84647000D02*
X173461000Y-90613000D01*
X173421000Y-88670000D02*
X173421000Y-90649000D01*
X173421000Y-84611000D02*
X173421000Y-86590000D01*
X173381000Y-88670000D02*
X173381000Y-90685000D01*
X173381000Y-84575000D02*
X173381000Y-86590000D01*
X173341000Y-88670000D02*
X173341000Y-90720000D01*
X173341000Y-84540000D02*
X173341000Y-86590000D01*
X173301000Y-88670000D02*
X173301000Y-90754000D01*
X173301000Y-84506000D02*
X173301000Y-86590000D01*
X173261000Y-88670000D02*
X173261000Y-90786000D01*
X173261000Y-84474000D02*
X173261000Y-86590000D01*
X173221000Y-88670000D02*
X173221000Y-90819000D01*
X173221000Y-84441000D02*
X173221000Y-86590000D01*
X173181000Y-88670000D02*
X173181000Y-90850000D01*
X173181000Y-84410000D02*
X173181000Y-86590000D01*
X173141000Y-88670000D02*
X173141000Y-90880000D01*
X173141000Y-84380000D02*
X173141000Y-86590000D01*
X173101000Y-88670000D02*
X173101000Y-90910000D01*
X173101000Y-84350000D02*
X173101000Y-86590000D01*
X173061000Y-88670000D02*
X173061000Y-90939000D01*
X173061000Y-84321000D02*
X173061000Y-86590000D01*
X173021000Y-88670000D02*
X173021000Y-90968000D01*
X173021000Y-84292000D02*
X173021000Y-86590000D01*
X172981000Y-88670000D02*
X172981000Y-90995000D01*
X172981000Y-84265000D02*
X172981000Y-86590000D01*
X172941000Y-88670000D02*
X172941000Y-91022000D01*
X172941000Y-84238000D02*
X172941000Y-86590000D01*
X172901000Y-88670000D02*
X172901000Y-91048000D01*
X172901000Y-84212000D02*
X172901000Y-86590000D01*
X172861000Y-88670000D02*
X172861000Y-91074000D01*
X172861000Y-84186000D02*
X172861000Y-86590000D01*
X172821000Y-88670000D02*
X172821000Y-91099000D01*
X172821000Y-84161000D02*
X172821000Y-86590000D01*
X172781000Y-88670000D02*
X172781000Y-91123000D01*
X172781000Y-84137000D02*
X172781000Y-86590000D01*
X172741000Y-88670000D02*
X172741000Y-91147000D01*
X172741000Y-84113000D02*
X172741000Y-86590000D01*
X172701000Y-88670000D02*
X172701000Y-91170000D01*
X172701000Y-84090000D02*
X172701000Y-86590000D01*
X172661000Y-88670000D02*
X172661000Y-91192000D01*
X172661000Y-84068000D02*
X172661000Y-86590000D01*
X172621000Y-88670000D02*
X172621000Y-91214000D01*
X172621000Y-84046000D02*
X172621000Y-86590000D01*
X172581000Y-88670000D02*
X172581000Y-91236000D01*
X172581000Y-84024000D02*
X172581000Y-86590000D01*
X172541000Y-88670000D02*
X172541000Y-91257000D01*
X172541000Y-84003000D02*
X172541000Y-86590000D01*
X172501000Y-88670000D02*
X172501000Y-91277000D01*
X172501000Y-83983000D02*
X172501000Y-86590000D01*
X172461000Y-88670000D02*
X172461000Y-91296000D01*
X172461000Y-83964000D02*
X172461000Y-86590000D01*
X172421000Y-88670000D02*
X172421000Y-91316000D01*
X172421000Y-83944000D02*
X172421000Y-86590000D01*
X172381000Y-88670000D02*
X172381000Y-91334000D01*
X172381000Y-83926000D02*
X172381000Y-86590000D01*
X172341000Y-88670000D02*
X172341000Y-91352000D01*
X172341000Y-83908000D02*
X172341000Y-86590000D01*
X172301000Y-88670000D02*
X172301000Y-91370000D01*
X172301000Y-83890000D02*
X172301000Y-86590000D01*
X172261000Y-88670000D02*
X172261000Y-91387000D01*
X172261000Y-83873000D02*
X172261000Y-86590000D01*
X172221000Y-88670000D02*
X172221000Y-91404000D01*
X172221000Y-83856000D02*
X172221000Y-86590000D01*
X172181000Y-88670000D02*
X172181000Y-91420000D01*
X172181000Y-83840000D02*
X172181000Y-86590000D01*
X172141000Y-88670000D02*
X172141000Y-91435000D01*
X172141000Y-83825000D02*
X172141000Y-86590000D01*
X172101000Y-88670000D02*
X172101000Y-91451000D01*
X172101000Y-83809000D02*
X172101000Y-86590000D01*
X172061000Y-88670000D02*
X172061000Y-91465000D01*
X172061000Y-83795000D02*
X172061000Y-86590000D01*
X172021000Y-88670000D02*
X172021000Y-91480000D01*
X172021000Y-83780000D02*
X172021000Y-86590000D01*
X171981000Y-88670000D02*
X171981000Y-91493000D01*
X171981000Y-83767000D02*
X171981000Y-86590000D01*
X171941000Y-88670000D02*
X171941000Y-91507000D01*
X171941000Y-83753000D02*
X171941000Y-86590000D01*
X171901000Y-88670000D02*
X171901000Y-91519000D01*
X171901000Y-83741000D02*
X171901000Y-86590000D01*
X171861000Y-88670000D02*
X171861000Y-91532000D01*
X171861000Y-83728000D02*
X171861000Y-86590000D01*
X171821000Y-88670000D02*
X171821000Y-91544000D01*
X171821000Y-83716000D02*
X171821000Y-86590000D01*
X171781000Y-88670000D02*
X171781000Y-91555000D01*
X171781000Y-83705000D02*
X171781000Y-86590000D01*
X171741000Y-88670000D02*
X171741000Y-91566000D01*
X171741000Y-83694000D02*
X171741000Y-86590000D01*
X171701000Y-88670000D02*
X171701000Y-91577000D01*
X171701000Y-83683000D02*
X171701000Y-86590000D01*
X171661000Y-88670000D02*
X171661000Y-91587000D01*
X171661000Y-83673000D02*
X171661000Y-86590000D01*
X171621000Y-88670000D02*
X171621000Y-91597000D01*
X171621000Y-83663000D02*
X171621000Y-86590000D01*
X171581000Y-88670000D02*
X171581000Y-91606000D01*
X171581000Y-83654000D02*
X171581000Y-86590000D01*
X171541000Y-88670000D02*
X171541000Y-91615000D01*
X171541000Y-83645000D02*
X171541000Y-86590000D01*
X171501000Y-88670000D02*
X171501000Y-91624000D01*
X171501000Y-83636000D02*
X171501000Y-86590000D01*
X171461000Y-88670000D02*
X171461000Y-91632000D01*
X171461000Y-83628000D02*
X171461000Y-86590000D01*
X171421000Y-88670000D02*
X171421000Y-91640000D01*
X171421000Y-83620000D02*
X171421000Y-86590000D01*
X171381000Y-88670000D02*
X171381000Y-91647000D01*
X171381000Y-83613000D02*
X171381000Y-86590000D01*
X171340000Y-83606000D02*
X171340000Y-91654000D01*
X171300000Y-83600000D02*
X171300000Y-91660000D01*
X171260000Y-83593000D02*
X171260000Y-91667000D01*
X171220000Y-83588000D02*
X171220000Y-91672000D01*
X171180000Y-83582000D02*
X171180000Y-91678000D01*
X171140000Y-83578000D02*
X171140000Y-91682000D01*
X171100000Y-83573000D02*
X171100000Y-91687000D01*
X171060000Y-83569000D02*
X171060000Y-91691000D01*
X171020000Y-83565000D02*
X171020000Y-91695000D01*
X170980000Y-83562000D02*
X170980000Y-91698000D01*
X170940000Y-83559000D02*
X170940000Y-91701000D01*
X170900000Y-83556000D02*
X170900000Y-91704000D01*
X170860000Y-83554000D02*
X170860000Y-91706000D01*
X170820000Y-83553000D02*
X170820000Y-91707000D01*
X170780000Y-83551000D02*
X170780000Y-91709000D01*
X170740000Y-83550000D02*
X170740000Y-91710000D01*
X170700000Y-83550000D02*
X170700000Y-91710000D01*
X170660000Y-83550000D02*
X170660000Y-91710000D01*
X174780000Y-87630000D02*
G75*
G03X174780000Y-87630000I-4120000J0D01*
G01*
X164995000Y-95190000D02*
X164295000Y-95190000D01*
X164995000Y-95890000D02*
X164995000Y-95190000D01*
X161595000Y-99690000D02*
X162195000Y-99690000D01*
X161595000Y-96790000D02*
X161595000Y-99690000D01*
X164795000Y-99690000D02*
X164195000Y-99690000D01*
X164795000Y-96790000D02*
X164795000Y-99690000D01*
X163395000Y-95690000D02*
X162995000Y-95690000D01*
X167080000Y-98048578D02*
X167080000Y-97531422D01*
X165660000Y-98048578D02*
X165660000Y-97531422D01*
X165358578Y-89460000D02*
X164841422Y-89460000D01*
X165358578Y-90880000D02*
X164841422Y-90880000D01*
X164841422Y-92785000D02*
X165358578Y-92785000D01*
X164841422Y-91365000D02*
X165358578Y-91365000D01*
X168850000Y-97850000D02*
X168850000Y-96520000D01*
X170180000Y-97850000D02*
X168850000Y-97850000D01*
X168850000Y-95250000D02*
X168850000Y-92650000D01*
X171450000Y-95250000D02*
X168850000Y-95250000D01*
X171450000Y-97850000D02*
X171450000Y-95250000D01*
X168850000Y-92650000D02*
X174050000Y-92650000D01*
X171450000Y-97850000D02*
X174050000Y-97850000D01*
X174050000Y-97850000D02*
X174050000Y-92650000D01*
X168850000Y-82610000D02*
X168850000Y-81280000D01*
X170180000Y-82610000D02*
X168850000Y-82610000D01*
X168850000Y-80010000D02*
X168850000Y-77410000D01*
X171450000Y-80010000D02*
X168850000Y-80010000D01*
X171450000Y-82610000D02*
X171450000Y-80010000D01*
X168850000Y-77410000D02*
X174050000Y-77410000D01*
X171450000Y-82610000D02*
X174050000Y-82610000D01*
X174050000Y-82610000D02*
X174050000Y-77410000D01*
X133656000Y-89911422D02*
X133656000Y-90428578D01*
X135076000Y-89911422D02*
X135076000Y-90428578D01*
X158410000Y-91175000D02*
X158410000Y-93625000D01*
X161630000Y-92975000D02*
X161630000Y-91175000D01*
X165670000Y-93380000D02*
X167520000Y-93380000D01*
X165670000Y-94580000D02*
X167520000Y-94580000D01*
X167520000Y-94580000D02*
X167520000Y-93380000D01*
X162254000Y-111510578D02*
X162254000Y-110993422D01*
X160834000Y-111510578D02*
X160834000Y-110993422D01*
X168850000Y-105470000D02*
X168850000Y-104140000D01*
X170180000Y-105470000D02*
X168850000Y-105470000D01*
X168850000Y-102870000D02*
X168850000Y-100270000D01*
X171450000Y-102870000D02*
X168850000Y-102870000D01*
X171450000Y-105470000D02*
X171450000Y-102870000D01*
X168850000Y-100270000D02*
X174050000Y-100270000D01*
X171450000Y-105470000D02*
X174050000Y-105470000D01*
X174050000Y-105470000D02*
X174050000Y-100270000D01*
X165356000Y-109164000D02*
X166816000Y-109164000D01*
X165356000Y-112324000D02*
X167516000Y-112324000D01*
X165356000Y-112324000D02*
X165356000Y-111394000D01*
X165356000Y-109164000D02*
X165356000Y-110094000D01*
X130670000Y-87570000D02*
X132000000Y-87570000D01*
X130670000Y-88900000D02*
X130670000Y-87570000D01*
X130670000Y-90170000D02*
X133330000Y-90170000D01*
X133330000Y-90170000D02*
X133330000Y-113090000D01*
X130670000Y-90170000D02*
X130670000Y-113090000D01*
X130670000Y-113090000D02*
X133330000Y-113090000D01*
X139220000Y-93850000D02*
X138320000Y-93850000D01*
X139220000Y-93500000D02*
X139220000Y-93850000D01*
X155420000Y-109700000D02*
X155420000Y-109300000D01*
X139220000Y-109700000D02*
X155420000Y-109700000D01*
X139220000Y-109300000D02*
X139220000Y-109700000D01*
X155420000Y-93500000D02*
X155420000Y-93900000D01*
X139220000Y-93500000D02*
X155420000Y-93500000D01*
X140740000Y-57230000D02*
X140360000Y-57230000D01*
X140740000Y-50810000D02*
X140740000Y-57230000D01*
X158980000Y-50810000D02*
X158980000Y-57230000D01*
X140740000Y-50810000D02*
X158980000Y-50810000D01*
X158980000Y-76555000D02*
X157980000Y-76555000D01*
X158980000Y-75775000D02*
X158980000Y-76555000D01*
X140740000Y-76555000D02*
X141740000Y-76555000D01*
X140740000Y-75775000D02*
X140740000Y-76555000D01*
X151185000Y-81860000D02*
X144725000Y-81860000D01*
X151185000Y-86390000D02*
X151185000Y-83790000D01*
X151185000Y-88320000D02*
X144725000Y-88320000D01*
X144725000Y-86390000D02*
X144725000Y-83790000D01*
X151185000Y-88290000D02*
X151185000Y-88320000D01*
X151185000Y-81860000D02*
X151185000Y-81890000D01*
X144725000Y-81860000D02*
X144725000Y-81890000D01*
X144725000Y-88320000D02*
X144725000Y-88290000D01*
X159206000Y-106430578D02*
X159206000Y-105913422D01*
X157786000Y-106430578D02*
X157786000Y-105913422D01*
X166310000Y-54550000D02*
X167640000Y-54550000D01*
X166310000Y-55880000D02*
X166310000Y-54550000D01*
X166310000Y-57150000D02*
X168970000Y-57150000D01*
X168970000Y-57150000D02*
X168970000Y-62290000D01*
X166310000Y-57150000D02*
X166310000Y-62290000D01*
X166310000Y-62290000D02*
X168970000Y-62290000D01*
X168850000Y-113090000D02*
X168850000Y-111760000D01*
X170180000Y-113090000D02*
X168850000Y-113090000D01*
X168850000Y-110490000D02*
X168850000Y-107890000D01*
X171450000Y-110490000D02*
X168850000Y-110490000D01*
X171450000Y-113090000D02*
X171450000Y-110490000D01*
X168850000Y-107890000D02*
X174050000Y-107890000D01*
X171450000Y-113090000D02*
X174050000Y-113090000D01*
X174050000Y-113090000D02*
X174050000Y-107890000D01*
X156790000Y-88320000D02*
X163250000Y-88320000D01*
X156790000Y-83790000D02*
X156790000Y-86390000D01*
X156790000Y-81860000D02*
X163250000Y-81860000D01*
X163250000Y-83790000D02*
X163250000Y-86390000D01*
X156790000Y-81890000D02*
X156790000Y-81860000D01*
X156790000Y-88320000D02*
X156790000Y-88290000D01*
X163250000Y-88320000D02*
X163250000Y-88290000D01*
X163250000Y-81860000D02*
X163250000Y-81890000D01*
X156150000Y-110430000D02*
X157480000Y-110430000D01*
X156150000Y-111760000D02*
X156150000Y-110430000D01*
X156150000Y-113030000D02*
X158810000Y-113030000D01*
X158810000Y-113030000D02*
X158810000Y-113090000D01*
X156150000Y-113030000D02*
X156150000Y-113090000D01*
X156150000Y-113090000D02*
X158810000Y-113090000D01*
D10*
X162393333Y-106498380D02*
X162060000Y-106022190D01*
X161821904Y-106498380D02*
X161821904Y-105498380D01*
X162202857Y-105498380D01*
X162298095Y-105546000D01*
X162345714Y-105593619D01*
X162393333Y-105688857D01*
X162393333Y-105831714D01*
X162345714Y-105926952D01*
X162298095Y-105974571D01*
X162202857Y-106022190D01*
X161821904Y-106022190D01*
X163298095Y-105498380D02*
X162821904Y-105498380D01*
X162774285Y-105974571D01*
X162821904Y-105926952D01*
X162917142Y-105879333D01*
X163155238Y-105879333D01*
X163250476Y-105926952D01*
X163298095Y-105974571D01*
X163345714Y-106069809D01*
X163345714Y-106307904D01*
X163298095Y-106403142D01*
X163250476Y-106450761D01*
X163155238Y-106498380D01*
X162917142Y-106498380D01*
X162821904Y-106450761D01*
X162774285Y-106403142D01*
X171823142Y-73858380D02*
X171489809Y-73382190D01*
X171251714Y-73858380D02*
X171251714Y-72858380D01*
X171632666Y-72858380D01*
X171727904Y-72906000D01*
X171775523Y-72953619D01*
X171823142Y-73048857D01*
X171823142Y-73191714D01*
X171775523Y-73286952D01*
X171727904Y-73334571D01*
X171632666Y-73382190D01*
X171251714Y-73382190D01*
X172775523Y-73858380D02*
X172204095Y-73858380D01*
X172489809Y-73858380D02*
X172489809Y-72858380D01*
X172394571Y-73001238D01*
X172299333Y-73096476D01*
X172204095Y-73144095D01*
X173727904Y-73858380D02*
X173156476Y-73858380D01*
X173442190Y-73858380D02*
X173442190Y-72858380D01*
X173346952Y-73001238D01*
X173251714Y-73096476D01*
X173156476Y-73144095D01*
X166203333Y-84177142D02*
X166155714Y-84224761D01*
X166012857Y-84272380D01*
X165917619Y-84272380D01*
X165774761Y-84224761D01*
X165679523Y-84129523D01*
X165631904Y-84034285D01*
X165584285Y-83843809D01*
X165584285Y-83700952D01*
X165631904Y-83510476D01*
X165679523Y-83415238D01*
X165774761Y-83320000D01*
X165917619Y-83272380D01*
X166012857Y-83272380D01*
X166155714Y-83320000D01*
X166203333Y-83367619D01*
X166584285Y-83367619D02*
X166631904Y-83320000D01*
X166727142Y-83272380D01*
X166965238Y-83272380D01*
X167060476Y-83320000D01*
X167108095Y-83367619D01*
X167155714Y-83462857D01*
X167155714Y-83558095D01*
X167108095Y-83700952D01*
X166536666Y-84272380D01*
X167155714Y-84272380D01*
X162599761Y-101417380D02*
X162266428Y-100941190D01*
X162028333Y-101417380D02*
X162028333Y-100417380D01*
X162409285Y-100417380D01*
X162504523Y-100465000D01*
X162552142Y-100512619D01*
X162599761Y-100607857D01*
X162599761Y-100750714D01*
X162552142Y-100845952D01*
X162504523Y-100893571D01*
X162409285Y-100941190D01*
X162028333Y-100941190D01*
X162885476Y-100417380D02*
X163218809Y-101417380D01*
X163552142Y-100417380D01*
X164409285Y-101417380D02*
X163837857Y-101417380D01*
X164123571Y-101417380D02*
X164123571Y-100417380D01*
X164028333Y-100560238D01*
X163933095Y-100655476D01*
X163837857Y-100703095D01*
X166822380Y-101607857D02*
X166346190Y-101941190D01*
X166822380Y-102179285D02*
X165822380Y-102179285D01*
X165822380Y-101798333D01*
X165870000Y-101703095D01*
X165917619Y-101655476D01*
X166012857Y-101607857D01*
X166155714Y-101607857D01*
X166250952Y-101655476D01*
X166298571Y-101703095D01*
X166346190Y-101798333D01*
X166346190Y-102179285D01*
X166822380Y-100655476D02*
X166822380Y-101226904D01*
X166822380Y-100941190D02*
X165822380Y-100941190D01*
X165965238Y-101036428D01*
X166060476Y-101131666D01*
X166108095Y-101226904D01*
X165822380Y-100036428D02*
X165822380Y-99941190D01*
X165870000Y-99845952D01*
X165917619Y-99798333D01*
X166012857Y-99750714D01*
X166203333Y-99703095D01*
X166441428Y-99703095D01*
X166631904Y-99750714D01*
X166727142Y-99798333D01*
X166774761Y-99845952D01*
X166822380Y-99941190D01*
X166822380Y-100036428D01*
X166774761Y-100131666D01*
X166727142Y-100179285D01*
X166631904Y-100226904D01*
X166441428Y-100274523D01*
X166203333Y-100274523D01*
X166012857Y-100226904D01*
X165917619Y-100179285D01*
X165870000Y-100131666D01*
X165822380Y-100036428D01*
X163663333Y-94432380D02*
X163330000Y-93956190D01*
X163091904Y-94432380D02*
X163091904Y-93432380D01*
X163472857Y-93432380D01*
X163568095Y-93480000D01*
X163615714Y-93527619D01*
X163663333Y-93622857D01*
X163663333Y-93765714D01*
X163615714Y-93860952D01*
X163568095Y-93908571D01*
X163472857Y-93956190D01*
X163091904Y-93956190D01*
X164234761Y-93860952D02*
X164139523Y-93813333D01*
X164091904Y-93765714D01*
X164044285Y-93670476D01*
X164044285Y-93622857D01*
X164091904Y-93527619D01*
X164139523Y-93480000D01*
X164234761Y-93432380D01*
X164425238Y-93432380D01*
X164520476Y-93480000D01*
X164568095Y-93527619D01*
X164615714Y-93622857D01*
X164615714Y-93670476D01*
X164568095Y-93765714D01*
X164520476Y-93813333D01*
X164425238Y-93860952D01*
X164234761Y-93860952D01*
X164139523Y-93908571D01*
X164091904Y-93956190D01*
X164044285Y-94051428D01*
X164044285Y-94241904D01*
X164091904Y-94337142D01*
X164139523Y-94384761D01*
X164234761Y-94432380D01*
X164425238Y-94432380D01*
X164520476Y-94384761D01*
X164568095Y-94337142D01*
X164615714Y-94241904D01*
X164615714Y-94051428D01*
X164568095Y-93956190D01*
X164520476Y-93908571D01*
X164425238Y-93860952D01*
X164933333Y-89352380D02*
X164600000Y-88876190D01*
X164361904Y-89352380D02*
X164361904Y-88352380D01*
X164742857Y-88352380D01*
X164838095Y-88400000D01*
X164885714Y-88447619D01*
X164933333Y-88542857D01*
X164933333Y-88685714D01*
X164885714Y-88780952D01*
X164838095Y-88828571D01*
X164742857Y-88876190D01*
X164361904Y-88876190D01*
X165790476Y-88352380D02*
X165600000Y-88352380D01*
X165504761Y-88400000D01*
X165457142Y-88447619D01*
X165361904Y-88590476D01*
X165314285Y-88780952D01*
X165314285Y-89161904D01*
X165361904Y-89257142D01*
X165409523Y-89304761D01*
X165504761Y-89352380D01*
X165695238Y-89352380D01*
X165790476Y-89304761D01*
X165838095Y-89257142D01*
X165885714Y-89161904D01*
X165885714Y-88923809D01*
X165838095Y-88828571D01*
X165790476Y-88780952D01*
X165695238Y-88733333D01*
X165504761Y-88733333D01*
X165409523Y-88780952D01*
X165361904Y-88828571D01*
X165314285Y-88923809D01*
X168302380Y-97067619D02*
X168302380Y-97543809D01*
X167302380Y-97543809D01*
X168302380Y-96734285D02*
X167302380Y-96734285D01*
X167921428Y-96258095D02*
X167921428Y-95496190D01*
X168302380Y-95877142D02*
X167540476Y-95877142D01*
X168727380Y-83383095D02*
X167727380Y-83383095D01*
X167727380Y-83145000D01*
X167775000Y-83002142D01*
X167870238Y-82906904D01*
X167965476Y-82859285D01*
X168155952Y-82811666D01*
X168298809Y-82811666D01*
X168489285Y-82859285D01*
X168584523Y-82906904D01*
X168679761Y-83002142D01*
X168727380Y-83145000D01*
X168727380Y-83383095D01*
X168251190Y-82192619D02*
X168727380Y-82192619D01*
X167727380Y-82525952D02*
X168251190Y-82192619D01*
X167727380Y-81859285D01*
X168727380Y-81525952D02*
X167727380Y-81525952D01*
X168727380Y-80954523D01*
X167727380Y-80954523D01*
X168441666Y-80525952D02*
X168441666Y-80049761D01*
X168727380Y-80621190D02*
X167727380Y-80287857D01*
X168727380Y-79954523D01*
X168727380Y-79621190D02*
X167727380Y-79621190D01*
X168441666Y-79287857D01*
X167727380Y-78954523D01*
X168727380Y-78954523D01*
X167727380Y-78287857D02*
X167727380Y-78097380D01*
X167775000Y-78002142D01*
X167870238Y-77906904D01*
X168060714Y-77859285D01*
X168394047Y-77859285D01*
X168584523Y-77906904D01*
X168679761Y-78002142D01*
X168727380Y-78097380D01*
X168727380Y-78287857D01*
X168679761Y-78383095D01*
X168584523Y-78478333D01*
X168394047Y-78525952D01*
X168060714Y-78525952D01*
X167870238Y-78478333D01*
X167775000Y-78383095D01*
X167727380Y-78287857D01*
X136468380Y-90336666D02*
X135992190Y-90670000D01*
X136468380Y-90908095D02*
X135468380Y-90908095D01*
X135468380Y-90527142D01*
X135516000Y-90431904D01*
X135563619Y-90384285D01*
X135658857Y-90336666D01*
X135801714Y-90336666D01*
X135896952Y-90384285D01*
X135944571Y-90431904D01*
X135992190Y-90527142D01*
X135992190Y-90908095D01*
X135801714Y-89479523D02*
X136468380Y-89479523D01*
X135420761Y-89717619D02*
X136135047Y-89955714D01*
X136135047Y-89336666D01*
X156572380Y-92836904D02*
X157381904Y-92836904D01*
X157477142Y-92789285D01*
X157524761Y-92741666D01*
X157572380Y-92646428D01*
X157572380Y-92455952D01*
X157524761Y-92360714D01*
X157477142Y-92313095D01*
X157381904Y-92265476D01*
X156572380Y-92265476D01*
X156572380Y-91360714D02*
X156572380Y-91551190D01*
X156620000Y-91646428D01*
X156667619Y-91694047D01*
X156810476Y-91789285D01*
X157000952Y-91836904D01*
X157381904Y-91836904D01*
X157477142Y-91789285D01*
X157524761Y-91741666D01*
X157572380Y-91646428D01*
X157572380Y-91455952D01*
X157524761Y-91360714D01*
X157477142Y-91313095D01*
X157381904Y-91265476D01*
X157143809Y-91265476D01*
X157048571Y-91313095D01*
X157000952Y-91360714D01*
X156953333Y-91455952D01*
X156953333Y-91646428D01*
X157000952Y-91741666D01*
X157048571Y-91789285D01*
X157143809Y-91836904D01*
X165631904Y-95732380D02*
X165631904Y-94732380D01*
X165870000Y-94732380D01*
X166012857Y-94780000D01*
X166108095Y-94875238D01*
X166155714Y-94970476D01*
X166203333Y-95160952D01*
X166203333Y-95303809D01*
X166155714Y-95494285D01*
X166108095Y-95589523D01*
X166012857Y-95684761D01*
X165870000Y-95732380D01*
X165631904Y-95732380D01*
X166536666Y-94732380D02*
X167155714Y-94732380D01*
X166822380Y-95113333D01*
X166965238Y-95113333D01*
X167060476Y-95160952D01*
X167108095Y-95208571D01*
X167155714Y-95303809D01*
X167155714Y-95541904D01*
X167108095Y-95637142D01*
X167060476Y-95684761D01*
X166965238Y-95732380D01*
X166679523Y-95732380D01*
X166584285Y-95684761D01*
X166536666Y-95637142D01*
X160251142Y-111418666D02*
X160298761Y-111466285D01*
X160346380Y-111609142D01*
X160346380Y-111704380D01*
X160298761Y-111847238D01*
X160203523Y-111942476D01*
X160108285Y-111990095D01*
X159917809Y-112037714D01*
X159774952Y-112037714D01*
X159584476Y-111990095D01*
X159489238Y-111942476D01*
X159394000Y-111847238D01*
X159346380Y-111704380D01*
X159346380Y-111609142D01*
X159394000Y-111466285D01*
X159441619Y-111418666D01*
X160346380Y-110466285D02*
X160346380Y-111037714D01*
X160346380Y-110752000D02*
X159346380Y-110752000D01*
X159489238Y-110847238D01*
X159584476Y-110942476D01*
X159632095Y-111037714D01*
X167302380Y-104203333D02*
X168302380Y-103870000D01*
X167302380Y-103536666D01*
X168207142Y-102631904D02*
X168254761Y-102679523D01*
X168302380Y-102822380D01*
X168302380Y-102917619D01*
X168254761Y-103060476D01*
X168159523Y-103155714D01*
X168064285Y-103203333D01*
X167873809Y-103250952D01*
X167730952Y-103250952D01*
X167540476Y-103203333D01*
X167445238Y-103155714D01*
X167350000Y-103060476D01*
X167302380Y-102917619D01*
X167302380Y-102822380D01*
X167350000Y-102679523D01*
X167397619Y-102631904D01*
X168207142Y-101631904D02*
X168254761Y-101679523D01*
X168302380Y-101822380D01*
X168302380Y-101917619D01*
X168254761Y-102060476D01*
X168159523Y-102155714D01*
X168064285Y-102203333D01*
X167873809Y-102250952D01*
X167730952Y-102250952D01*
X167540476Y-102203333D01*
X167445238Y-102155714D01*
X167350000Y-102060476D01*
X167302380Y-101917619D01*
X167302380Y-101822380D01*
X167350000Y-101679523D01*
X167397619Y-101631904D01*
X166020761Y-113791619D02*
X165925523Y-113744000D01*
X165830285Y-113648761D01*
X165687428Y-113505904D01*
X165592190Y-113458285D01*
X165496952Y-113458285D01*
X165544571Y-113696380D02*
X165449333Y-113648761D01*
X165354095Y-113553523D01*
X165306476Y-113363047D01*
X165306476Y-113029714D01*
X165354095Y-112839238D01*
X165449333Y-112744000D01*
X165544571Y-112696380D01*
X165735047Y-112696380D01*
X165830285Y-112744000D01*
X165925523Y-112839238D01*
X165973142Y-113029714D01*
X165973142Y-113363047D01*
X165925523Y-113553523D01*
X165830285Y-113648761D01*
X165735047Y-113696380D01*
X165544571Y-113696380D01*
X166925523Y-113696380D02*
X166354095Y-113696380D01*
X166639809Y-113696380D02*
X166639809Y-112696380D01*
X166544571Y-112839238D01*
X166449333Y-112934476D01*
X166354095Y-112982095D01*
X146558095Y-91852380D02*
X146558095Y-92661904D01*
X146605714Y-92757142D01*
X146653333Y-92804761D01*
X146748571Y-92852380D01*
X146939047Y-92852380D01*
X147034285Y-92804761D01*
X147081904Y-92757142D01*
X147129523Y-92661904D01*
X147129523Y-91852380D01*
X147558095Y-91947619D02*
X147605714Y-91900000D01*
X147700952Y-91852380D01*
X147939047Y-91852380D01*
X148034285Y-91900000D01*
X148081904Y-91947619D01*
X148129523Y-92042857D01*
X148129523Y-92138095D01*
X148081904Y-92280952D01*
X147510476Y-92852380D01*
X148129523Y-92852380D01*
X138702380Y-75866904D02*
X139511904Y-75866904D01*
X139607142Y-75819285D01*
X139654761Y-75771666D01*
X139702380Y-75676428D01*
X139702380Y-75485952D01*
X139654761Y-75390714D01*
X139607142Y-75343095D01*
X139511904Y-75295476D01*
X138702380Y-75295476D01*
X139702380Y-74295476D02*
X139702380Y-74866904D01*
X139702380Y-74581190D02*
X138702380Y-74581190D01*
X138845238Y-74676428D01*
X138940476Y-74771666D01*
X138988095Y-74866904D01*
X146026428Y-81097380D02*
X145693095Y-80621190D01*
X145455000Y-81097380D02*
X145455000Y-80097380D01*
X145835952Y-80097380D01*
X145931190Y-80145000D01*
X145978809Y-80192619D01*
X146026428Y-80287857D01*
X146026428Y-80430714D01*
X145978809Y-80525952D01*
X145931190Y-80573571D01*
X145835952Y-80621190D01*
X145455000Y-80621190D01*
X146455000Y-80573571D02*
X146788333Y-80573571D01*
X146931190Y-81097380D02*
X146455000Y-81097380D01*
X146455000Y-80097380D01*
X146931190Y-80097380D01*
X147312142Y-81049761D02*
X147455000Y-81097380D01*
X147693095Y-81097380D01*
X147788333Y-81049761D01*
X147835952Y-81002142D01*
X147883571Y-80906904D01*
X147883571Y-80811666D01*
X147835952Y-80716428D01*
X147788333Y-80668809D01*
X147693095Y-80621190D01*
X147502619Y-80573571D01*
X147407380Y-80525952D01*
X147359761Y-80478333D01*
X147312142Y-80383095D01*
X147312142Y-80287857D01*
X147359761Y-80192619D01*
X147407380Y-80145000D01*
X147502619Y-80097380D01*
X147740714Y-80097380D01*
X147883571Y-80145000D01*
X148312142Y-80573571D02*
X148645476Y-80573571D01*
X148788333Y-81097380D02*
X148312142Y-81097380D01*
X148312142Y-80097380D01*
X148788333Y-80097380D01*
X149074047Y-80097380D02*
X149645476Y-80097380D01*
X149359761Y-81097380D02*
X149359761Y-80097380D01*
X150502619Y-81097380D02*
X149931190Y-81097380D01*
X150216904Y-81097380D02*
X150216904Y-80097380D01*
X150121666Y-80240238D01*
X150026428Y-80335476D01*
X149931190Y-80383095D01*
X160472380Y-106211666D02*
X159996190Y-106545000D01*
X160472380Y-106783095D02*
X159472380Y-106783095D01*
X159472380Y-106402142D01*
X159520000Y-106306904D01*
X159567619Y-106259285D01*
X159662857Y-106211666D01*
X159805714Y-106211666D01*
X159900952Y-106259285D01*
X159948571Y-106306904D01*
X159996190Y-106402142D01*
X159996190Y-106783095D01*
X160472380Y-105259285D02*
X160472380Y-105830714D01*
X160472380Y-105545000D02*
X159472380Y-105545000D01*
X159615238Y-105640238D01*
X159710476Y-105735476D01*
X159758095Y-105830714D01*
X167302380Y-108957857D02*
X168302380Y-108624523D01*
X167302380Y-108291190D01*
X167778571Y-107957857D02*
X167778571Y-107624523D01*
X168302380Y-107481666D02*
X168302380Y-107957857D01*
X167302380Y-107957857D01*
X167302380Y-107481666D01*
X167302380Y-107148333D02*
X168302380Y-106481666D01*
X167302380Y-106481666D02*
X168302380Y-107148333D01*
X167302380Y-106243571D02*
X167302380Y-105672142D01*
X168302380Y-105957857D02*
X167302380Y-105957857D01*
X158186666Y-80573571D02*
X158329523Y-80621190D01*
X158377142Y-80668809D01*
X158424761Y-80764047D01*
X158424761Y-80906904D01*
X158377142Y-81002142D01*
X158329523Y-81049761D01*
X158234285Y-81097380D01*
X157853333Y-81097380D01*
X157853333Y-80097380D01*
X158186666Y-80097380D01*
X158281904Y-80145000D01*
X158329523Y-80192619D01*
X158377142Y-80287857D01*
X158377142Y-80383095D01*
X158329523Y-80478333D01*
X158281904Y-80525952D01*
X158186666Y-80573571D01*
X157853333Y-80573571D01*
X159043809Y-80097380D02*
X159234285Y-80097380D01*
X159329523Y-80145000D01*
X159424761Y-80240238D01*
X159472380Y-80430714D01*
X159472380Y-80764047D01*
X159424761Y-80954523D01*
X159329523Y-81049761D01*
X159234285Y-81097380D01*
X159043809Y-81097380D01*
X158948571Y-81049761D01*
X158853333Y-80954523D01*
X158805714Y-80764047D01*
X158805714Y-80430714D01*
X158853333Y-80240238D01*
X158948571Y-80145000D01*
X159043809Y-80097380D01*
X160091428Y-80097380D02*
X160281904Y-80097380D01*
X160377142Y-80145000D01*
X160472380Y-80240238D01*
X160520000Y-80430714D01*
X160520000Y-80764047D01*
X160472380Y-80954523D01*
X160377142Y-81049761D01*
X160281904Y-81097380D01*
X160091428Y-81097380D01*
X159996190Y-81049761D01*
X159900952Y-80954523D01*
X159853333Y-80764047D01*
X159853333Y-80430714D01*
X159900952Y-80240238D01*
X159996190Y-80145000D01*
X160091428Y-80097380D01*
X160805714Y-80097380D02*
X161377142Y-80097380D01*
X161091428Y-81097380D02*
X161091428Y-80097380D01*
X162234285Y-81097380D02*
X161662857Y-81097380D01*
X161948571Y-81097380D02*
X161948571Y-80097380D01*
X161853333Y-80240238D01*
X161758095Y-80335476D01*
X161662857Y-80383095D01*
X156948333Y-109596666D02*
X157424523Y-109596666D01*
X156853095Y-109882380D02*
X157186428Y-108882380D01*
X157519761Y-109882380D01*
X157853095Y-109358571D02*
X158186428Y-109358571D01*
X158329285Y-109882380D02*
X157853095Y-109882380D01*
X157853095Y-108882380D01*
X158329285Y-108882380D01*
X159281666Y-109882380D02*
X158710238Y-109882380D01*
X158995952Y-109882380D02*
X158995952Y-108882380D01*
X158900714Y-109025238D01*
X158805476Y-109120476D01*
X158710238Y-109168095D01*
M02*
