G04 #@! TF.GenerationSoftware,KiCad,Pcbnew,5.1.5*
G04 #@! TF.CreationDate,2020-02-16T17:08:25+01:00*
G04 #@! TF.ProjectId,feuchtraumabzweigdose,66657563-6874-4726-9175-6d61627a7765,rev?*
G04 #@! TF.SameCoordinates,Original*
G04 #@! TF.FileFunction,Soldermask,Bot*
G04 #@! TF.FilePolarity,Negative*
%FSLAX46Y46*%
G04 Gerber Fmt 4.6, Leading zero omitted, Abs format (unit mm)*
G04 Created by KiCad (PCBNEW 5.1.5) date 2020-02-16 17:08:25*
%MOMM*%
%LPD*%
G04 APERTURE LIST*
%ADD10C,0.100000*%
G04 APERTURE END LIST*
D10*
G36*
X158381000Y-112661000D02*
G01*
X156579000Y-112661000D01*
X156579000Y-110859000D01*
X158381000Y-110859000D01*
X158381000Y-112661000D01*
G37*
G36*
X171081000Y-112661000D02*
G01*
X169279000Y-112661000D01*
X169279000Y-110859000D01*
X171081000Y-110859000D01*
X171081000Y-112661000D01*
G37*
G36*
X132113512Y-110863927D02*
G01*
X132262812Y-110893624D01*
X132426784Y-110961544D01*
X132574354Y-111060147D01*
X132699853Y-111185646D01*
X132798456Y-111333216D01*
X132866376Y-111497188D01*
X132901000Y-111671259D01*
X132901000Y-111848741D01*
X132866376Y-112022812D01*
X132798456Y-112186784D01*
X132699853Y-112334354D01*
X132574354Y-112459853D01*
X132426784Y-112558456D01*
X132262812Y-112626376D01*
X132113512Y-112656073D01*
X132088742Y-112661000D01*
X131911258Y-112661000D01*
X131886488Y-112656073D01*
X131737188Y-112626376D01*
X131573216Y-112558456D01*
X131425646Y-112459853D01*
X131300147Y-112334354D01*
X131201544Y-112186784D01*
X131133624Y-112022812D01*
X131099000Y-111848741D01*
X131099000Y-111671259D01*
X131133624Y-111497188D01*
X131201544Y-111333216D01*
X131300147Y-111185646D01*
X131425646Y-111060147D01*
X131573216Y-110961544D01*
X131737188Y-110893624D01*
X131886488Y-110863927D01*
X131911258Y-110859000D01*
X132088742Y-110859000D01*
X132113512Y-110863927D01*
G37*
G36*
X172833512Y-110863927D02*
G01*
X172982812Y-110893624D01*
X173146784Y-110961544D01*
X173294354Y-111060147D01*
X173419853Y-111185646D01*
X173518456Y-111333216D01*
X173586376Y-111497188D01*
X173621000Y-111671259D01*
X173621000Y-111848741D01*
X173586376Y-112022812D01*
X173518456Y-112186784D01*
X173419853Y-112334354D01*
X173294354Y-112459853D01*
X173146784Y-112558456D01*
X172982812Y-112626376D01*
X172833512Y-112656073D01*
X172808742Y-112661000D01*
X172631258Y-112661000D01*
X172606488Y-112656073D01*
X172457188Y-112626376D01*
X172293216Y-112558456D01*
X172145646Y-112459853D01*
X172020147Y-112334354D01*
X171921544Y-112186784D01*
X171853624Y-112022812D01*
X171819000Y-111848741D01*
X171819000Y-111671259D01*
X171853624Y-111497188D01*
X171921544Y-111333216D01*
X172020147Y-111185646D01*
X172145646Y-111060147D01*
X172293216Y-110961544D01*
X172457188Y-110893624D01*
X172606488Y-110863927D01*
X172631258Y-110859000D01*
X172808742Y-110859000D01*
X172833512Y-110863927D01*
G37*
G36*
X132113512Y-108323927D02*
G01*
X132262812Y-108353624D01*
X132426784Y-108421544D01*
X132574354Y-108520147D01*
X132699853Y-108645646D01*
X132798456Y-108793216D01*
X132866376Y-108957188D01*
X132901000Y-109131259D01*
X132901000Y-109308741D01*
X132866376Y-109482812D01*
X132798456Y-109646784D01*
X132699853Y-109794354D01*
X132574354Y-109919853D01*
X132426784Y-110018456D01*
X132262812Y-110086376D01*
X132113512Y-110116073D01*
X132088742Y-110121000D01*
X131911258Y-110121000D01*
X131886488Y-110116073D01*
X131737188Y-110086376D01*
X131573216Y-110018456D01*
X131425646Y-109919853D01*
X131300147Y-109794354D01*
X131201544Y-109646784D01*
X131133624Y-109482812D01*
X131099000Y-109308741D01*
X131099000Y-109131259D01*
X131133624Y-108957188D01*
X131201544Y-108793216D01*
X131300147Y-108645646D01*
X131425646Y-108520147D01*
X131573216Y-108421544D01*
X131737188Y-108353624D01*
X131886488Y-108323927D01*
X131911258Y-108319000D01*
X132088742Y-108319000D01*
X132113512Y-108323927D01*
G37*
G36*
X172833512Y-108323927D02*
G01*
X172982812Y-108353624D01*
X173146784Y-108421544D01*
X173294354Y-108520147D01*
X173419853Y-108645646D01*
X173518456Y-108793216D01*
X173586376Y-108957188D01*
X173621000Y-109131259D01*
X173621000Y-109308741D01*
X173586376Y-109482812D01*
X173518456Y-109646784D01*
X173419853Y-109794354D01*
X173294354Y-109919853D01*
X173146784Y-110018456D01*
X172982812Y-110086376D01*
X172833512Y-110116073D01*
X172808742Y-110121000D01*
X172631258Y-110121000D01*
X172606488Y-110116073D01*
X172457188Y-110086376D01*
X172293216Y-110018456D01*
X172145646Y-109919853D01*
X172020147Y-109794354D01*
X171921544Y-109646784D01*
X171853624Y-109482812D01*
X171819000Y-109308741D01*
X171819000Y-109131259D01*
X171853624Y-108957188D01*
X171921544Y-108793216D01*
X172020147Y-108645646D01*
X172145646Y-108520147D01*
X172293216Y-108421544D01*
X172457188Y-108353624D01*
X172606488Y-108323927D01*
X172631258Y-108319000D01*
X172808742Y-108319000D01*
X172833512Y-108323927D01*
G37*
G36*
X170293512Y-108323927D02*
G01*
X170442812Y-108353624D01*
X170606784Y-108421544D01*
X170754354Y-108520147D01*
X170879853Y-108645646D01*
X170978456Y-108793216D01*
X171046376Y-108957188D01*
X171081000Y-109131259D01*
X171081000Y-109308741D01*
X171046376Y-109482812D01*
X170978456Y-109646784D01*
X170879853Y-109794354D01*
X170754354Y-109919853D01*
X170606784Y-110018456D01*
X170442812Y-110086376D01*
X170293512Y-110116073D01*
X170268742Y-110121000D01*
X170091258Y-110121000D01*
X170066488Y-110116073D01*
X169917188Y-110086376D01*
X169753216Y-110018456D01*
X169605646Y-109919853D01*
X169480147Y-109794354D01*
X169381544Y-109646784D01*
X169313624Y-109482812D01*
X169279000Y-109308741D01*
X169279000Y-109131259D01*
X169313624Y-108957188D01*
X169381544Y-108793216D01*
X169480147Y-108645646D01*
X169605646Y-108520147D01*
X169753216Y-108421544D01*
X169917188Y-108353624D01*
X170066488Y-108323927D01*
X170091258Y-108319000D01*
X170268742Y-108319000D01*
X170293512Y-108323927D01*
G37*
G36*
X132113512Y-105783927D02*
G01*
X132262812Y-105813624D01*
X132426784Y-105881544D01*
X132574354Y-105980147D01*
X132699853Y-106105646D01*
X132798456Y-106253216D01*
X132866376Y-106417188D01*
X132901000Y-106591259D01*
X132901000Y-106768741D01*
X132866376Y-106942812D01*
X132798456Y-107106784D01*
X132699853Y-107254354D01*
X132574354Y-107379853D01*
X132426784Y-107478456D01*
X132262812Y-107546376D01*
X132113512Y-107576073D01*
X132088742Y-107581000D01*
X131911258Y-107581000D01*
X131886488Y-107576073D01*
X131737188Y-107546376D01*
X131573216Y-107478456D01*
X131425646Y-107379853D01*
X131300147Y-107254354D01*
X131201544Y-107106784D01*
X131133624Y-106942812D01*
X131099000Y-106768741D01*
X131099000Y-106591259D01*
X131133624Y-106417188D01*
X131201544Y-106253216D01*
X131300147Y-106105646D01*
X131425646Y-105980147D01*
X131573216Y-105881544D01*
X131737188Y-105813624D01*
X131886488Y-105783927D01*
X131911258Y-105779000D01*
X132088742Y-105779000D01*
X132113512Y-105783927D01*
G37*
G36*
X167463786Y-104882746D02*
G01*
X167494461Y-104892051D01*
X167522729Y-104907161D01*
X167547506Y-104927494D01*
X167567839Y-104952271D01*
X167582949Y-104980539D01*
X167592254Y-105011214D01*
X167596000Y-105049251D01*
X167596000Y-107060749D01*
X167592254Y-107098786D01*
X167582949Y-107129461D01*
X167567839Y-107157729D01*
X167547506Y-107182506D01*
X167522729Y-107202839D01*
X167494461Y-107217949D01*
X167463786Y-107227254D01*
X167425749Y-107231000D01*
X165314251Y-107231000D01*
X165276214Y-107227254D01*
X165245539Y-107217949D01*
X165217271Y-107202839D01*
X165192494Y-107182506D01*
X165172161Y-107157729D01*
X165157051Y-107129461D01*
X165147746Y-107098786D01*
X165144000Y-107060749D01*
X165144000Y-105049251D01*
X165147746Y-105011214D01*
X165157051Y-104980539D01*
X165172161Y-104952271D01*
X165192494Y-104927494D01*
X165217271Y-104907161D01*
X165245539Y-104892051D01*
X165276214Y-104882746D01*
X165314251Y-104879000D01*
X167425749Y-104879000D01*
X167463786Y-104882746D01*
G37*
G36*
X172833512Y-103243927D02*
G01*
X172982812Y-103273624D01*
X173146784Y-103341544D01*
X173294354Y-103440147D01*
X173419853Y-103565646D01*
X173518456Y-103713216D01*
X173586376Y-103877188D01*
X173621000Y-104051259D01*
X173621000Y-104228741D01*
X173586376Y-104402812D01*
X173518456Y-104566784D01*
X173419853Y-104714354D01*
X173294354Y-104839853D01*
X173146784Y-104938456D01*
X172982812Y-105006376D01*
X172833512Y-105036073D01*
X172808742Y-105041000D01*
X172631258Y-105041000D01*
X172606488Y-105036073D01*
X172457188Y-105006376D01*
X172293216Y-104938456D01*
X172145646Y-104839853D01*
X172020147Y-104714354D01*
X171921544Y-104566784D01*
X171853624Y-104402812D01*
X171819000Y-104228741D01*
X171819000Y-104051259D01*
X171853624Y-103877188D01*
X171921544Y-103713216D01*
X172020147Y-103565646D01*
X172145646Y-103440147D01*
X172293216Y-103341544D01*
X172457188Y-103273624D01*
X172606488Y-103243927D01*
X172631258Y-103239000D01*
X172808742Y-103239000D01*
X172833512Y-103243927D01*
G37*
G36*
X171081000Y-105041000D02*
G01*
X169279000Y-105041000D01*
X169279000Y-103239000D01*
X171081000Y-103239000D01*
X171081000Y-105041000D01*
G37*
G36*
X132113512Y-103243927D02*
G01*
X132262812Y-103273624D01*
X132426784Y-103341544D01*
X132574354Y-103440147D01*
X132699853Y-103565646D01*
X132798456Y-103713216D01*
X132866376Y-103877188D01*
X132901000Y-104051259D01*
X132901000Y-104228741D01*
X132866376Y-104402812D01*
X132798456Y-104566784D01*
X132699853Y-104714354D01*
X132574354Y-104839853D01*
X132426784Y-104938456D01*
X132262812Y-105006376D01*
X132113512Y-105036073D01*
X132088742Y-105041000D01*
X131911258Y-105041000D01*
X131886488Y-105036073D01*
X131737188Y-105006376D01*
X131573216Y-104938456D01*
X131425646Y-104839853D01*
X131300147Y-104714354D01*
X131201544Y-104566784D01*
X131133624Y-104402812D01*
X131099000Y-104228741D01*
X131099000Y-104051259D01*
X131133624Y-103877188D01*
X131201544Y-103713216D01*
X131300147Y-103565646D01*
X131425646Y-103440147D01*
X131573216Y-103341544D01*
X131737188Y-103273624D01*
X131886488Y-103243927D01*
X131911258Y-103239000D01*
X132088742Y-103239000D01*
X132113512Y-103243927D01*
G37*
G36*
X162616000Y-104551000D02*
G01*
X161864000Y-104551000D01*
X161864000Y-103389000D01*
X162616000Y-103389000D01*
X162616000Y-104551000D01*
G37*
G36*
X160716000Y-104551000D02*
G01*
X159964000Y-104551000D01*
X159964000Y-103389000D01*
X160716000Y-103389000D01*
X160716000Y-104551000D01*
G37*
G36*
X170293512Y-100703927D02*
G01*
X170442812Y-100733624D01*
X170606784Y-100801544D01*
X170754354Y-100900147D01*
X170879853Y-101025646D01*
X170978456Y-101173216D01*
X171046376Y-101337188D01*
X171081000Y-101511259D01*
X171081000Y-101688741D01*
X171046376Y-101862812D01*
X170978456Y-102026784D01*
X170879853Y-102174354D01*
X170754354Y-102299853D01*
X170606784Y-102398456D01*
X170442812Y-102466376D01*
X170293512Y-102496073D01*
X170268742Y-102501000D01*
X170091258Y-102501000D01*
X170066488Y-102496073D01*
X169917188Y-102466376D01*
X169753216Y-102398456D01*
X169605646Y-102299853D01*
X169480147Y-102174354D01*
X169381544Y-102026784D01*
X169313624Y-101862812D01*
X169279000Y-101688741D01*
X169279000Y-101511259D01*
X169313624Y-101337188D01*
X169381544Y-101173216D01*
X169480147Y-101025646D01*
X169605646Y-100900147D01*
X169753216Y-100801544D01*
X169917188Y-100733624D01*
X170066488Y-100703927D01*
X170091258Y-100699000D01*
X170268742Y-100699000D01*
X170293512Y-100703927D01*
G37*
G36*
X132113512Y-100703927D02*
G01*
X132262812Y-100733624D01*
X132426784Y-100801544D01*
X132574354Y-100900147D01*
X132699853Y-101025646D01*
X132798456Y-101173216D01*
X132866376Y-101337188D01*
X132901000Y-101511259D01*
X132901000Y-101688741D01*
X132866376Y-101862812D01*
X132798456Y-102026784D01*
X132699853Y-102174354D01*
X132574354Y-102299853D01*
X132426784Y-102398456D01*
X132262812Y-102466376D01*
X132113512Y-102496073D01*
X132088742Y-102501000D01*
X131911258Y-102501000D01*
X131886488Y-102496073D01*
X131737188Y-102466376D01*
X131573216Y-102398456D01*
X131425646Y-102299853D01*
X131300147Y-102174354D01*
X131201544Y-102026784D01*
X131133624Y-101862812D01*
X131099000Y-101688741D01*
X131099000Y-101511259D01*
X131133624Y-101337188D01*
X131201544Y-101173216D01*
X131300147Y-101025646D01*
X131425646Y-100900147D01*
X131573216Y-100801544D01*
X131737188Y-100733624D01*
X131886488Y-100703927D01*
X131911258Y-100699000D01*
X132088742Y-100699000D01*
X132113512Y-100703927D01*
G37*
G36*
X172833512Y-100703927D02*
G01*
X172982812Y-100733624D01*
X173146784Y-100801544D01*
X173294354Y-100900147D01*
X173419853Y-101025646D01*
X173518456Y-101173216D01*
X173586376Y-101337188D01*
X173621000Y-101511259D01*
X173621000Y-101688741D01*
X173586376Y-101862812D01*
X173518456Y-102026784D01*
X173419853Y-102174354D01*
X173294354Y-102299853D01*
X173146784Y-102398456D01*
X172982812Y-102466376D01*
X172833512Y-102496073D01*
X172808742Y-102501000D01*
X172631258Y-102501000D01*
X172606488Y-102496073D01*
X172457188Y-102466376D01*
X172293216Y-102398456D01*
X172145646Y-102299853D01*
X172020147Y-102174354D01*
X171921544Y-102026784D01*
X171853624Y-101862812D01*
X171819000Y-101688741D01*
X171819000Y-101511259D01*
X171853624Y-101337188D01*
X171921544Y-101173216D01*
X172020147Y-101025646D01*
X172145646Y-100900147D01*
X172293216Y-100801544D01*
X172457188Y-100733624D01*
X172606488Y-100703927D01*
X172631258Y-100699000D01*
X172808742Y-100699000D01*
X172833512Y-100703927D01*
G37*
G36*
X162616000Y-102351000D02*
G01*
X159964000Y-102351000D01*
X159964000Y-101189000D01*
X162616000Y-101189000D01*
X162616000Y-102351000D01*
G37*
G36*
X167463786Y-99782746D02*
G01*
X167494461Y-99792051D01*
X167522729Y-99807161D01*
X167547506Y-99827494D01*
X167567839Y-99852271D01*
X167582949Y-99880539D01*
X167592254Y-99911214D01*
X167596000Y-99949251D01*
X167596000Y-101960749D01*
X167592254Y-101998786D01*
X167582949Y-102029461D01*
X167567839Y-102057729D01*
X167547506Y-102082506D01*
X167522729Y-102102839D01*
X167494461Y-102117949D01*
X167463786Y-102127254D01*
X167425749Y-102131000D01*
X165314251Y-102131000D01*
X165276214Y-102127254D01*
X165245539Y-102117949D01*
X165217271Y-102102839D01*
X165192494Y-102082506D01*
X165172161Y-102057729D01*
X165157051Y-102029461D01*
X165147746Y-101998786D01*
X165144000Y-101960749D01*
X165144000Y-99949251D01*
X165147746Y-99911214D01*
X165157051Y-99880539D01*
X165172161Y-99852271D01*
X165192494Y-99827494D01*
X165217271Y-99807161D01*
X165245539Y-99792051D01*
X165276214Y-99782746D01*
X165314251Y-99779000D01*
X167425749Y-99779000D01*
X167463786Y-99782746D01*
G37*
G36*
X132113512Y-98163927D02*
G01*
X132262812Y-98193624D01*
X132426784Y-98261544D01*
X132574354Y-98360147D01*
X132699853Y-98485646D01*
X132798456Y-98633216D01*
X132866376Y-98797188D01*
X132901000Y-98971259D01*
X132901000Y-99148741D01*
X132866376Y-99322812D01*
X132798456Y-99486784D01*
X132699853Y-99634354D01*
X132574354Y-99759853D01*
X132426784Y-99858456D01*
X132262812Y-99926376D01*
X132113512Y-99956073D01*
X132088742Y-99961000D01*
X131911258Y-99961000D01*
X131886488Y-99956073D01*
X131737188Y-99926376D01*
X131573216Y-99858456D01*
X131425646Y-99759853D01*
X131300147Y-99634354D01*
X131201544Y-99486784D01*
X131133624Y-99322812D01*
X131099000Y-99148741D01*
X131099000Y-98971259D01*
X131133624Y-98797188D01*
X131201544Y-98633216D01*
X131300147Y-98485646D01*
X131425646Y-98360147D01*
X131573216Y-98261544D01*
X131737188Y-98193624D01*
X131886488Y-98163927D01*
X131911258Y-98159000D01*
X132088742Y-98159000D01*
X132113512Y-98163927D01*
G37*
G36*
X160771000Y-98481000D02*
G01*
X159609000Y-98481000D01*
X159609000Y-97729000D01*
X160771000Y-97729000D01*
X160771000Y-98481000D01*
G37*
G36*
X162971000Y-98481000D02*
G01*
X161809000Y-98481000D01*
X161809000Y-95829000D01*
X162971000Y-95829000D01*
X162971000Y-98481000D01*
G37*
G36*
X152163786Y-95297746D02*
G01*
X152194461Y-95307051D01*
X152222729Y-95322161D01*
X152247506Y-95342494D01*
X152267839Y-95367271D01*
X152282949Y-95395539D01*
X152292254Y-95426214D01*
X152296000Y-95464251D01*
X152296000Y-97575749D01*
X152292254Y-97613786D01*
X152282949Y-97644461D01*
X152267839Y-97672729D01*
X152247506Y-97697506D01*
X152222729Y-97717839D01*
X152194461Y-97732949D01*
X152163786Y-97742254D01*
X152125749Y-97746000D01*
X150114251Y-97746000D01*
X150076214Y-97742254D01*
X150045539Y-97732949D01*
X150017271Y-97717839D01*
X149992494Y-97697506D01*
X149972161Y-97672729D01*
X149957051Y-97644461D01*
X149947746Y-97613786D01*
X149944000Y-97575749D01*
X149944000Y-95464251D01*
X149947746Y-95426214D01*
X149957051Y-95395539D01*
X149972161Y-95367271D01*
X149992494Y-95342494D01*
X150017271Y-95322161D01*
X150045539Y-95307051D01*
X150076214Y-95297746D01*
X150114251Y-95294000D01*
X152125749Y-95294000D01*
X152163786Y-95297746D01*
G37*
G36*
X157263786Y-95297746D02*
G01*
X157294461Y-95307051D01*
X157322729Y-95322161D01*
X157347506Y-95342494D01*
X157367839Y-95367271D01*
X157382949Y-95395539D01*
X157392254Y-95426214D01*
X157396000Y-95464251D01*
X157396000Y-97575749D01*
X157392254Y-97613786D01*
X157382949Y-97644461D01*
X157367839Y-97672729D01*
X157347506Y-97697506D01*
X157322729Y-97717839D01*
X157294461Y-97732949D01*
X157263786Y-97742254D01*
X157225749Y-97746000D01*
X155214251Y-97746000D01*
X155176214Y-97742254D01*
X155145539Y-97732949D01*
X155117271Y-97717839D01*
X155092494Y-97697506D01*
X155072161Y-97672729D01*
X155057051Y-97644461D01*
X155047746Y-97613786D01*
X155044000Y-97575749D01*
X155044000Y-95464251D01*
X155047746Y-95426214D01*
X155057051Y-95395539D01*
X155072161Y-95367271D01*
X155092494Y-95342494D01*
X155117271Y-95322161D01*
X155145539Y-95307051D01*
X155176214Y-95297746D01*
X155214251Y-95294000D01*
X157225749Y-95294000D01*
X157263786Y-95297746D01*
G37*
G36*
X171081000Y-97421000D02*
G01*
X169279000Y-97421000D01*
X169279000Y-95619000D01*
X171081000Y-95619000D01*
X171081000Y-97421000D01*
G37*
G36*
X132113512Y-95623927D02*
G01*
X132262812Y-95653624D01*
X132426784Y-95721544D01*
X132574354Y-95820147D01*
X132699853Y-95945646D01*
X132798456Y-96093216D01*
X132866376Y-96257188D01*
X132901000Y-96431259D01*
X132901000Y-96608741D01*
X132866376Y-96782812D01*
X132798456Y-96946784D01*
X132699853Y-97094354D01*
X132574354Y-97219853D01*
X132426784Y-97318456D01*
X132262812Y-97386376D01*
X132113512Y-97416073D01*
X132088742Y-97421000D01*
X131911258Y-97421000D01*
X131886488Y-97416073D01*
X131737188Y-97386376D01*
X131573216Y-97318456D01*
X131425646Y-97219853D01*
X131300147Y-97094354D01*
X131201544Y-96946784D01*
X131133624Y-96782812D01*
X131099000Y-96608741D01*
X131099000Y-96431259D01*
X131133624Y-96257188D01*
X131201544Y-96093216D01*
X131300147Y-95945646D01*
X131425646Y-95820147D01*
X131573216Y-95721544D01*
X131737188Y-95653624D01*
X131886488Y-95623927D01*
X131911258Y-95619000D01*
X132088742Y-95619000D01*
X132113512Y-95623927D01*
G37*
G36*
X172833512Y-95623927D02*
G01*
X172982812Y-95653624D01*
X173146784Y-95721544D01*
X173294354Y-95820147D01*
X173419853Y-95945646D01*
X173518456Y-96093216D01*
X173586376Y-96257188D01*
X173621000Y-96431259D01*
X173621000Y-96608741D01*
X173586376Y-96782812D01*
X173518456Y-96946784D01*
X173419853Y-97094354D01*
X173294354Y-97219853D01*
X173146784Y-97318456D01*
X172982812Y-97386376D01*
X172833512Y-97416073D01*
X172808742Y-97421000D01*
X172631258Y-97421000D01*
X172606488Y-97416073D01*
X172457188Y-97386376D01*
X172293216Y-97318456D01*
X172145646Y-97219853D01*
X172020147Y-97094354D01*
X171921544Y-96946784D01*
X171853624Y-96782812D01*
X171819000Y-96608741D01*
X171819000Y-96431259D01*
X171853624Y-96257188D01*
X171921544Y-96093216D01*
X172020147Y-95945646D01*
X172145646Y-95820147D01*
X172293216Y-95721544D01*
X172457188Y-95653624D01*
X172606488Y-95623927D01*
X172631258Y-95619000D01*
X172808742Y-95619000D01*
X172833512Y-95623927D01*
G37*
G36*
X167463786Y-94722746D02*
G01*
X167494461Y-94732051D01*
X167522729Y-94747161D01*
X167547506Y-94767494D01*
X167567839Y-94792271D01*
X167582949Y-94820539D01*
X167592254Y-94851214D01*
X167596000Y-94889251D01*
X167596000Y-96900749D01*
X167592254Y-96938786D01*
X167582949Y-96969461D01*
X167567839Y-96997729D01*
X167547506Y-97022506D01*
X167522729Y-97042839D01*
X167494461Y-97057949D01*
X167463786Y-97067254D01*
X167425749Y-97071000D01*
X165314251Y-97071000D01*
X165276214Y-97067254D01*
X165245539Y-97057949D01*
X165217271Y-97042839D01*
X165192494Y-97022506D01*
X165172161Y-96997729D01*
X165157051Y-96969461D01*
X165147746Y-96938786D01*
X165144000Y-96900749D01*
X165144000Y-94889251D01*
X165147746Y-94851214D01*
X165157051Y-94820539D01*
X165172161Y-94792271D01*
X165192494Y-94767494D01*
X165217271Y-94747161D01*
X165245539Y-94732051D01*
X165276214Y-94722746D01*
X165314251Y-94719000D01*
X167425749Y-94719000D01*
X167463786Y-94722746D01*
G37*
G36*
X160771000Y-96581000D02*
G01*
X159609000Y-96581000D01*
X159609000Y-95829000D01*
X160771000Y-95829000D01*
X160771000Y-96581000D01*
G37*
G36*
X132113512Y-93083927D02*
G01*
X132262812Y-93113624D01*
X132426784Y-93181544D01*
X132574354Y-93280147D01*
X132699853Y-93405646D01*
X132798456Y-93553216D01*
X132866376Y-93717188D01*
X132901000Y-93891259D01*
X132901000Y-94068741D01*
X132866376Y-94242812D01*
X132798456Y-94406784D01*
X132699853Y-94554354D01*
X132574354Y-94679853D01*
X132426784Y-94778456D01*
X132262812Y-94846376D01*
X132113512Y-94876073D01*
X132088742Y-94881000D01*
X131911258Y-94881000D01*
X131886488Y-94876073D01*
X131737188Y-94846376D01*
X131573216Y-94778456D01*
X131425646Y-94679853D01*
X131300147Y-94554354D01*
X131201544Y-94406784D01*
X131133624Y-94242812D01*
X131099000Y-94068741D01*
X131099000Y-93891259D01*
X131133624Y-93717188D01*
X131201544Y-93553216D01*
X131300147Y-93405646D01*
X131425646Y-93280147D01*
X131573216Y-93181544D01*
X131737188Y-93113624D01*
X131886488Y-93083927D01*
X131911258Y-93079000D01*
X132088742Y-93079000D01*
X132113512Y-93083927D01*
G37*
G36*
X170293512Y-93083927D02*
G01*
X170442812Y-93113624D01*
X170606784Y-93181544D01*
X170754354Y-93280147D01*
X170879853Y-93405646D01*
X170978456Y-93553216D01*
X171046376Y-93717188D01*
X171081000Y-93891259D01*
X171081000Y-94068741D01*
X171046376Y-94242812D01*
X170978456Y-94406784D01*
X170879853Y-94554354D01*
X170754354Y-94679853D01*
X170606784Y-94778456D01*
X170442812Y-94846376D01*
X170293512Y-94876073D01*
X170268742Y-94881000D01*
X170091258Y-94881000D01*
X170066488Y-94876073D01*
X169917188Y-94846376D01*
X169753216Y-94778456D01*
X169605646Y-94679853D01*
X169480147Y-94554354D01*
X169381544Y-94406784D01*
X169313624Y-94242812D01*
X169279000Y-94068741D01*
X169279000Y-93891259D01*
X169313624Y-93717188D01*
X169381544Y-93553216D01*
X169480147Y-93405646D01*
X169605646Y-93280147D01*
X169753216Y-93181544D01*
X169917188Y-93113624D01*
X170066488Y-93083927D01*
X170091258Y-93079000D01*
X170268742Y-93079000D01*
X170293512Y-93083927D01*
G37*
G36*
X172833512Y-93083927D02*
G01*
X172982812Y-93113624D01*
X173146784Y-93181544D01*
X173294354Y-93280147D01*
X173419853Y-93405646D01*
X173518456Y-93553216D01*
X173586376Y-93717188D01*
X173621000Y-93891259D01*
X173621000Y-94068741D01*
X173586376Y-94242812D01*
X173518456Y-94406784D01*
X173419853Y-94554354D01*
X173294354Y-94679853D01*
X173146784Y-94778456D01*
X172982812Y-94846376D01*
X172833512Y-94876073D01*
X172808742Y-94881000D01*
X172631258Y-94881000D01*
X172606488Y-94876073D01*
X172457188Y-94846376D01*
X172293216Y-94778456D01*
X172145646Y-94679853D01*
X172020147Y-94554354D01*
X171921544Y-94406784D01*
X171853624Y-94242812D01*
X171819000Y-94068741D01*
X171819000Y-93891259D01*
X171853624Y-93717188D01*
X171921544Y-93553216D01*
X172020147Y-93405646D01*
X172145646Y-93280147D01*
X172293216Y-93181544D01*
X172457188Y-93113624D01*
X172606488Y-93083927D01*
X172631258Y-93079000D01*
X172808742Y-93079000D01*
X172833512Y-93083927D01*
G37*
G36*
X163361468Y-93233565D02*
G01*
X163400138Y-93245296D01*
X163435777Y-93264346D01*
X163467017Y-93289983D01*
X163492654Y-93321223D01*
X163511704Y-93356862D01*
X163523435Y-93395532D01*
X163528000Y-93441888D01*
X163528000Y-94518112D01*
X163523435Y-94564468D01*
X163511704Y-94603138D01*
X163492654Y-94638777D01*
X163467017Y-94670017D01*
X163435777Y-94695654D01*
X163400138Y-94714704D01*
X163361468Y-94726435D01*
X163315112Y-94731000D01*
X162663888Y-94731000D01*
X162617532Y-94726435D01*
X162578862Y-94714704D01*
X162543223Y-94695654D01*
X162511983Y-94670017D01*
X162486346Y-94638777D01*
X162467296Y-94603138D01*
X162455565Y-94564468D01*
X162451000Y-94518112D01*
X162451000Y-93441888D01*
X162455565Y-93395532D01*
X162467296Y-93356862D01*
X162486346Y-93321223D01*
X162511983Y-93289983D01*
X162543223Y-93264346D01*
X162578862Y-93245296D01*
X162617532Y-93233565D01*
X162663888Y-93229000D01*
X163315112Y-93229000D01*
X163361468Y-93233565D01*
G37*
G36*
X161486468Y-93233565D02*
G01*
X161525138Y-93245296D01*
X161560777Y-93264346D01*
X161592017Y-93289983D01*
X161617654Y-93321223D01*
X161636704Y-93356862D01*
X161648435Y-93395532D01*
X161653000Y-93441888D01*
X161653000Y-94518112D01*
X161648435Y-94564468D01*
X161636704Y-94603138D01*
X161617654Y-94638777D01*
X161592017Y-94670017D01*
X161560777Y-94695654D01*
X161525138Y-94714704D01*
X161486468Y-94726435D01*
X161440112Y-94731000D01*
X160788888Y-94731000D01*
X160742532Y-94726435D01*
X160703862Y-94714704D01*
X160668223Y-94695654D01*
X160636983Y-94670017D01*
X160611346Y-94638777D01*
X160592296Y-94603138D01*
X160580565Y-94564468D01*
X160576000Y-94518112D01*
X160576000Y-93441888D01*
X160580565Y-93395532D01*
X160592296Y-93356862D01*
X160611346Y-93321223D01*
X160636983Y-93289983D01*
X160668223Y-93264346D01*
X160703862Y-93245296D01*
X160742532Y-93233565D01*
X160788888Y-93229000D01*
X161440112Y-93229000D01*
X161486468Y-93233565D01*
G37*
G36*
X156726000Y-92486000D02*
G01*
X150224000Y-92486000D01*
X150224000Y-86584000D01*
X156726000Y-86584000D01*
X156726000Y-92486000D01*
G37*
G36*
X160926000Y-92466000D02*
G01*
X158624000Y-92466000D01*
X158624000Y-91164000D01*
X160926000Y-91164000D01*
X160926000Y-92466000D01*
G37*
G36*
X132113512Y-90543927D02*
G01*
X132262812Y-90573624D01*
X132426784Y-90641544D01*
X132574354Y-90740147D01*
X132699853Y-90865646D01*
X132798456Y-91013216D01*
X132866376Y-91177188D01*
X132901000Y-91351259D01*
X132901000Y-91528741D01*
X132866376Y-91702812D01*
X132798456Y-91866784D01*
X132699853Y-92014354D01*
X132574354Y-92139853D01*
X132426784Y-92238456D01*
X132262812Y-92306376D01*
X132113512Y-92336073D01*
X132088742Y-92341000D01*
X131911258Y-92341000D01*
X131886488Y-92336073D01*
X131737188Y-92306376D01*
X131573216Y-92238456D01*
X131425646Y-92139853D01*
X131300147Y-92014354D01*
X131201544Y-91866784D01*
X131133624Y-91702812D01*
X131099000Y-91528741D01*
X131099000Y-91351259D01*
X131133624Y-91177188D01*
X131201544Y-91013216D01*
X131300147Y-90865646D01*
X131425646Y-90740147D01*
X131573216Y-90641544D01*
X131737188Y-90573624D01*
X131886488Y-90543927D01*
X131911258Y-90539000D01*
X132088742Y-90539000D01*
X132113512Y-90543927D01*
G37*
G36*
X167463786Y-89622746D02*
G01*
X167494461Y-89632051D01*
X167522729Y-89647161D01*
X167547506Y-89667494D01*
X167567839Y-89692271D01*
X167582949Y-89720539D01*
X167592254Y-89751214D01*
X167596000Y-89789251D01*
X167596000Y-91800749D01*
X167592254Y-91838786D01*
X167582949Y-91869461D01*
X167567839Y-91897729D01*
X167547506Y-91922506D01*
X167522729Y-91942839D01*
X167494461Y-91957949D01*
X167463786Y-91967254D01*
X167425749Y-91971000D01*
X165314251Y-91971000D01*
X165276214Y-91967254D01*
X165245539Y-91957949D01*
X165217271Y-91942839D01*
X165192494Y-91922506D01*
X165172161Y-91897729D01*
X165157051Y-91869461D01*
X165147746Y-91838786D01*
X165144000Y-91800749D01*
X165144000Y-89789251D01*
X165147746Y-89751214D01*
X165157051Y-89720539D01*
X165172161Y-89692271D01*
X165192494Y-89667494D01*
X165217271Y-89647161D01*
X165245539Y-89632051D01*
X165276214Y-89622746D01*
X165314251Y-89619000D01*
X167425749Y-89619000D01*
X167463786Y-89622746D01*
G37*
G36*
X161486468Y-88661565D02*
G01*
X161525138Y-88673296D01*
X161560777Y-88692346D01*
X161592017Y-88717983D01*
X161617654Y-88749223D01*
X161636704Y-88784862D01*
X161648435Y-88823532D01*
X161653000Y-88869888D01*
X161653000Y-89946112D01*
X161648435Y-89992468D01*
X161636704Y-90031138D01*
X161617654Y-90066777D01*
X161592017Y-90098017D01*
X161560777Y-90123654D01*
X161525138Y-90142704D01*
X161486468Y-90154435D01*
X161440112Y-90159000D01*
X160788888Y-90159000D01*
X160742532Y-90154435D01*
X160703862Y-90142704D01*
X160668223Y-90123654D01*
X160636983Y-90098017D01*
X160611346Y-90066777D01*
X160592296Y-90031138D01*
X160580565Y-89992468D01*
X160576000Y-89946112D01*
X160576000Y-88869888D01*
X160580565Y-88823532D01*
X160592296Y-88784862D01*
X160611346Y-88749223D01*
X160636983Y-88717983D01*
X160668223Y-88692346D01*
X160703862Y-88673296D01*
X160742532Y-88661565D01*
X160788888Y-88657000D01*
X161440112Y-88657000D01*
X161486468Y-88661565D01*
G37*
G36*
X163361468Y-88661565D02*
G01*
X163400138Y-88673296D01*
X163435777Y-88692346D01*
X163467017Y-88717983D01*
X163492654Y-88749223D01*
X163511704Y-88784862D01*
X163523435Y-88823532D01*
X163528000Y-88869888D01*
X163528000Y-89946112D01*
X163523435Y-89992468D01*
X163511704Y-90031138D01*
X163492654Y-90066777D01*
X163467017Y-90098017D01*
X163435777Y-90123654D01*
X163400138Y-90142704D01*
X163361468Y-90154435D01*
X163315112Y-90159000D01*
X162663888Y-90159000D01*
X162617532Y-90154435D01*
X162578862Y-90142704D01*
X162543223Y-90123654D01*
X162511983Y-90098017D01*
X162486346Y-90066777D01*
X162467296Y-90031138D01*
X162455565Y-89992468D01*
X162451000Y-89946112D01*
X162451000Y-88869888D01*
X162455565Y-88823532D01*
X162467296Y-88784862D01*
X162486346Y-88749223D01*
X162511983Y-88717983D01*
X162543223Y-88692346D01*
X162578862Y-88673296D01*
X162617532Y-88661565D01*
X162663888Y-88657000D01*
X163315112Y-88657000D01*
X163361468Y-88661565D01*
G37*
G36*
X132901000Y-89801000D02*
G01*
X131099000Y-89801000D01*
X131099000Y-87999000D01*
X132901000Y-87999000D01*
X132901000Y-89801000D01*
G37*
G36*
X172658228Y-86811703D02*
G01*
X172813100Y-86875853D01*
X172952481Y-86968985D01*
X173071015Y-87087519D01*
X173164147Y-87226900D01*
X173228297Y-87381772D01*
X173261000Y-87546184D01*
X173261000Y-87713816D01*
X173228297Y-87878228D01*
X173164147Y-88033100D01*
X173071015Y-88172481D01*
X172952481Y-88291015D01*
X172813100Y-88384147D01*
X172658228Y-88448297D01*
X172493816Y-88481000D01*
X172326184Y-88481000D01*
X172161772Y-88448297D01*
X172006900Y-88384147D01*
X171867519Y-88291015D01*
X171748985Y-88172481D01*
X171655853Y-88033100D01*
X171591703Y-87878228D01*
X171559000Y-87713816D01*
X171559000Y-87546184D01*
X171591703Y-87381772D01*
X171655853Y-87226900D01*
X171748985Y-87087519D01*
X171867519Y-86968985D01*
X172006900Y-86875853D01*
X172161772Y-86811703D01*
X172326184Y-86779000D01*
X172493816Y-86779000D01*
X172658228Y-86811703D01*
G37*
G36*
X169761000Y-88481000D02*
G01*
X168059000Y-88481000D01*
X168059000Y-86779000D01*
X169761000Y-86779000D01*
X169761000Y-88481000D01*
G37*
G36*
X160926000Y-87906000D02*
G01*
X158624000Y-87906000D01*
X158624000Y-86604000D01*
X160926000Y-86604000D01*
X160926000Y-87906000D01*
G37*
G36*
X162416000Y-84136000D02*
G01*
X158814000Y-84136000D01*
X158814000Y-82234000D01*
X162416000Y-82234000D01*
X162416000Y-84136000D01*
G37*
G36*
X157416000Y-84136000D02*
G01*
X153814000Y-84136000D01*
X153814000Y-82234000D01*
X157416000Y-82234000D01*
X157416000Y-84136000D01*
G37*
G36*
X132193512Y-80383927D02*
G01*
X132342812Y-80413624D01*
X132506784Y-80481544D01*
X132654354Y-80580147D01*
X132779853Y-80705646D01*
X132878456Y-80853216D01*
X132946376Y-81017188D01*
X132981000Y-81191259D01*
X132981000Y-81368741D01*
X132946376Y-81542812D01*
X132878456Y-81706784D01*
X132779853Y-81854354D01*
X132654354Y-81979853D01*
X132506784Y-82078456D01*
X132342812Y-82146376D01*
X132193512Y-82176073D01*
X132168742Y-82181000D01*
X131991258Y-82181000D01*
X131966488Y-82176073D01*
X131817188Y-82146376D01*
X131653216Y-82078456D01*
X131505646Y-81979853D01*
X131380147Y-81854354D01*
X131281544Y-81706784D01*
X131213624Y-81542812D01*
X131179000Y-81368741D01*
X131179000Y-81191259D01*
X131213624Y-81017188D01*
X131281544Y-80853216D01*
X131380147Y-80705646D01*
X131505646Y-80580147D01*
X131653216Y-80481544D01*
X131817188Y-80413624D01*
X131966488Y-80383927D01*
X131991258Y-80379000D01*
X132168742Y-80379000D01*
X132193512Y-80383927D01*
G37*
G36*
X171081000Y-82181000D02*
G01*
X169279000Y-82181000D01*
X169279000Y-80379000D01*
X171081000Y-80379000D01*
X171081000Y-82181000D01*
G37*
G36*
X172833512Y-80383927D02*
G01*
X172982812Y-80413624D01*
X173146784Y-80481544D01*
X173294354Y-80580147D01*
X173419853Y-80705646D01*
X173518456Y-80853216D01*
X173586376Y-81017188D01*
X173621000Y-81191259D01*
X173621000Y-81368741D01*
X173586376Y-81542812D01*
X173518456Y-81706784D01*
X173419853Y-81854354D01*
X173294354Y-81979853D01*
X173146784Y-82078456D01*
X172982812Y-82146376D01*
X172833512Y-82176073D01*
X172808742Y-82181000D01*
X172631258Y-82181000D01*
X172606488Y-82176073D01*
X172457188Y-82146376D01*
X172293216Y-82078456D01*
X172145646Y-81979853D01*
X172020147Y-81854354D01*
X171921544Y-81706784D01*
X171853624Y-81542812D01*
X171819000Y-81368741D01*
X171819000Y-81191259D01*
X171853624Y-81017188D01*
X171921544Y-80853216D01*
X172020147Y-80705646D01*
X172145646Y-80580147D01*
X172293216Y-80481544D01*
X172457188Y-80413624D01*
X172606488Y-80383927D01*
X172631258Y-80379000D01*
X172808742Y-80379000D01*
X172833512Y-80383927D01*
G37*
G36*
X167456000Y-80461000D02*
G01*
X166354000Y-80461000D01*
X166354000Y-79559000D01*
X167456000Y-79559000D01*
X167456000Y-80461000D01*
G37*
G36*
X161306000Y-80461000D02*
G01*
X160204000Y-80461000D01*
X160204000Y-79559000D01*
X161306000Y-79559000D01*
X161306000Y-80461000D01*
G37*
G36*
X170293512Y-77843927D02*
G01*
X170442812Y-77873624D01*
X170606784Y-77941544D01*
X170754354Y-78040147D01*
X170879853Y-78165646D01*
X170978456Y-78313216D01*
X171046376Y-78477188D01*
X171081000Y-78651259D01*
X171081000Y-78828741D01*
X171046376Y-79002812D01*
X170978456Y-79166784D01*
X170879853Y-79314354D01*
X170754354Y-79439853D01*
X170606784Y-79538456D01*
X170442812Y-79606376D01*
X170293512Y-79636073D01*
X170268742Y-79641000D01*
X170091258Y-79641000D01*
X170066488Y-79636073D01*
X169917188Y-79606376D01*
X169753216Y-79538456D01*
X169605646Y-79439853D01*
X169480147Y-79314354D01*
X169381544Y-79166784D01*
X169313624Y-79002812D01*
X169279000Y-78828741D01*
X169279000Y-78651259D01*
X169313624Y-78477188D01*
X169381544Y-78313216D01*
X169480147Y-78165646D01*
X169605646Y-78040147D01*
X169753216Y-77941544D01*
X169917188Y-77873624D01*
X170066488Y-77843927D01*
X170091258Y-77839000D01*
X170268742Y-77839000D01*
X170293512Y-77843927D01*
G37*
G36*
X132193512Y-77843927D02*
G01*
X132342812Y-77873624D01*
X132506784Y-77941544D01*
X132654354Y-78040147D01*
X132779853Y-78165646D01*
X132878456Y-78313216D01*
X132946376Y-78477188D01*
X132981000Y-78651259D01*
X132981000Y-78828741D01*
X132946376Y-79002812D01*
X132878456Y-79166784D01*
X132779853Y-79314354D01*
X132654354Y-79439853D01*
X132506784Y-79538456D01*
X132342812Y-79606376D01*
X132193512Y-79636073D01*
X132168742Y-79641000D01*
X131991258Y-79641000D01*
X131966488Y-79636073D01*
X131817188Y-79606376D01*
X131653216Y-79538456D01*
X131505646Y-79439853D01*
X131380147Y-79314354D01*
X131281544Y-79166784D01*
X131213624Y-79002812D01*
X131179000Y-78828741D01*
X131179000Y-78651259D01*
X131213624Y-78477188D01*
X131281544Y-78313216D01*
X131380147Y-78165646D01*
X131505646Y-78040147D01*
X131653216Y-77941544D01*
X131817188Y-77873624D01*
X131966488Y-77843927D01*
X131991258Y-77839000D01*
X132168742Y-77839000D01*
X132193512Y-77843927D01*
G37*
G36*
X172833512Y-77843927D02*
G01*
X172982812Y-77873624D01*
X173146784Y-77941544D01*
X173294354Y-78040147D01*
X173419853Y-78165646D01*
X173518456Y-78313216D01*
X173586376Y-78477188D01*
X173621000Y-78651259D01*
X173621000Y-78828741D01*
X173586376Y-79002812D01*
X173518456Y-79166784D01*
X173419853Y-79314354D01*
X173294354Y-79439853D01*
X173146784Y-79538456D01*
X172982812Y-79606376D01*
X172833512Y-79636073D01*
X172808742Y-79641000D01*
X172631258Y-79641000D01*
X172606488Y-79636073D01*
X172457188Y-79606376D01*
X172293216Y-79538456D01*
X172145646Y-79439853D01*
X172020147Y-79314354D01*
X171921544Y-79166784D01*
X171853624Y-79002812D01*
X171819000Y-78828741D01*
X171819000Y-78651259D01*
X171853624Y-78477188D01*
X171921544Y-78313216D01*
X172020147Y-78165646D01*
X172145646Y-78040147D01*
X172293216Y-77941544D01*
X172457188Y-77873624D01*
X172606488Y-77843927D01*
X172631258Y-77839000D01*
X172808742Y-77839000D01*
X172833512Y-77843927D01*
G37*
G36*
X161306000Y-77921000D02*
G01*
X160204000Y-77921000D01*
X160204000Y-77019000D01*
X161306000Y-77019000D01*
X161306000Y-77921000D01*
G37*
G36*
X167456000Y-77921000D02*
G01*
X166354000Y-77921000D01*
X166354000Y-77019000D01*
X167456000Y-77019000D01*
X167456000Y-77921000D01*
G37*
G36*
X132193512Y-75303927D02*
G01*
X132342812Y-75333624D01*
X132506784Y-75401544D01*
X132654354Y-75500147D01*
X132779853Y-75625646D01*
X132878456Y-75773216D01*
X132946376Y-75937188D01*
X132981000Y-76111259D01*
X132981000Y-76288741D01*
X132946376Y-76462812D01*
X132878456Y-76626784D01*
X132779853Y-76774354D01*
X132654354Y-76899853D01*
X132506784Y-76998456D01*
X132342812Y-77066376D01*
X132193512Y-77096073D01*
X132168742Y-77101000D01*
X131991258Y-77101000D01*
X131966488Y-77096073D01*
X131817188Y-77066376D01*
X131653216Y-76998456D01*
X131505646Y-76899853D01*
X131380147Y-76774354D01*
X131281544Y-76626784D01*
X131213624Y-76462812D01*
X131179000Y-76288741D01*
X131179000Y-76111259D01*
X131213624Y-75937188D01*
X131281544Y-75773216D01*
X131380147Y-75625646D01*
X131505646Y-75500147D01*
X131653216Y-75401544D01*
X131817188Y-75333624D01*
X131966488Y-75303927D01*
X131991258Y-75299000D01*
X132168742Y-75299000D01*
X132193512Y-75303927D01*
G37*
G36*
X173521468Y-73421565D02*
G01*
X173560138Y-73433296D01*
X173595777Y-73452346D01*
X173627017Y-73477983D01*
X173652654Y-73509223D01*
X173671704Y-73544862D01*
X173683435Y-73583532D01*
X173688000Y-73629888D01*
X173688000Y-74706112D01*
X173683435Y-74752468D01*
X173671704Y-74791138D01*
X173652654Y-74826777D01*
X173627017Y-74858017D01*
X173595777Y-74883654D01*
X173560138Y-74902704D01*
X173521468Y-74914435D01*
X173475112Y-74919000D01*
X172823888Y-74919000D01*
X172777532Y-74914435D01*
X172738862Y-74902704D01*
X172703223Y-74883654D01*
X172671983Y-74858017D01*
X172646346Y-74826777D01*
X172627296Y-74791138D01*
X172615565Y-74752468D01*
X172611000Y-74706112D01*
X172611000Y-73629888D01*
X172615565Y-73583532D01*
X172627296Y-73544862D01*
X172646346Y-73509223D01*
X172671983Y-73477983D01*
X172703223Y-73452346D01*
X172738862Y-73433296D01*
X172777532Y-73421565D01*
X172823888Y-73417000D01*
X173475112Y-73417000D01*
X173521468Y-73421565D01*
G37*
G36*
X171646468Y-73421565D02*
G01*
X171685138Y-73433296D01*
X171720777Y-73452346D01*
X171752017Y-73477983D01*
X171777654Y-73509223D01*
X171796704Y-73544862D01*
X171808435Y-73583532D01*
X171813000Y-73629888D01*
X171813000Y-74706112D01*
X171808435Y-74752468D01*
X171796704Y-74791138D01*
X171777654Y-74826777D01*
X171752017Y-74858017D01*
X171720777Y-74883654D01*
X171685138Y-74902704D01*
X171646468Y-74914435D01*
X171600112Y-74919000D01*
X170948888Y-74919000D01*
X170902532Y-74914435D01*
X170863862Y-74902704D01*
X170828223Y-74883654D01*
X170796983Y-74858017D01*
X170771346Y-74826777D01*
X170752296Y-74791138D01*
X170740565Y-74752468D01*
X170736000Y-74706112D01*
X170736000Y-73629888D01*
X170740565Y-73583532D01*
X170752296Y-73544862D01*
X170771346Y-73509223D01*
X170796983Y-73477983D01*
X170828223Y-73452346D01*
X170863862Y-73433296D01*
X170902532Y-73421565D01*
X170948888Y-73417000D01*
X171600112Y-73417000D01*
X171646468Y-73421565D01*
G37*
G36*
X169457468Y-73421565D02*
G01*
X169496138Y-73433296D01*
X169531777Y-73452346D01*
X169563017Y-73477983D01*
X169588654Y-73509223D01*
X169607704Y-73544862D01*
X169619435Y-73583532D01*
X169624000Y-73629888D01*
X169624000Y-74706112D01*
X169619435Y-74752468D01*
X169607704Y-74791138D01*
X169588654Y-74826777D01*
X169563017Y-74858017D01*
X169531777Y-74883654D01*
X169496138Y-74902704D01*
X169457468Y-74914435D01*
X169411112Y-74919000D01*
X168759888Y-74919000D01*
X168713532Y-74914435D01*
X168674862Y-74902704D01*
X168639223Y-74883654D01*
X168607983Y-74858017D01*
X168582346Y-74826777D01*
X168563296Y-74791138D01*
X168551565Y-74752468D01*
X168547000Y-74706112D01*
X168547000Y-73629888D01*
X168551565Y-73583532D01*
X168563296Y-73544862D01*
X168582346Y-73509223D01*
X168607983Y-73477983D01*
X168639223Y-73452346D01*
X168674862Y-73433296D01*
X168713532Y-73421565D01*
X168759888Y-73417000D01*
X169411112Y-73417000D01*
X169457468Y-73421565D01*
G37*
G36*
X167582468Y-73421565D02*
G01*
X167621138Y-73433296D01*
X167656777Y-73452346D01*
X167688017Y-73477983D01*
X167713654Y-73509223D01*
X167732704Y-73544862D01*
X167744435Y-73583532D01*
X167749000Y-73629888D01*
X167749000Y-74706112D01*
X167744435Y-74752468D01*
X167732704Y-74791138D01*
X167713654Y-74826777D01*
X167688017Y-74858017D01*
X167656777Y-74883654D01*
X167621138Y-74902704D01*
X167582468Y-74914435D01*
X167536112Y-74919000D01*
X166884888Y-74919000D01*
X166838532Y-74914435D01*
X166799862Y-74902704D01*
X166764223Y-74883654D01*
X166732983Y-74858017D01*
X166707346Y-74826777D01*
X166688296Y-74791138D01*
X166676565Y-74752468D01*
X166672000Y-74706112D01*
X166672000Y-73629888D01*
X166676565Y-73583532D01*
X166688296Y-73544862D01*
X166707346Y-73509223D01*
X166732983Y-73477983D01*
X166764223Y-73452346D01*
X166799862Y-73433296D01*
X166838532Y-73421565D01*
X166884888Y-73417000D01*
X167536112Y-73417000D01*
X167582468Y-73421565D01*
G37*
G36*
X132193512Y-72763927D02*
G01*
X132342812Y-72793624D01*
X132506784Y-72861544D01*
X132654354Y-72960147D01*
X132779853Y-73085646D01*
X132878456Y-73233216D01*
X132946376Y-73397188D01*
X132981000Y-73571259D01*
X132981000Y-73748741D01*
X132946376Y-73922812D01*
X132878456Y-74086784D01*
X132779853Y-74234354D01*
X132654354Y-74359853D01*
X132506784Y-74458456D01*
X132342812Y-74526376D01*
X132193512Y-74556073D01*
X132168742Y-74561000D01*
X131991258Y-74561000D01*
X131966488Y-74556073D01*
X131817188Y-74526376D01*
X131653216Y-74458456D01*
X131505646Y-74359853D01*
X131380147Y-74234354D01*
X131281544Y-74086784D01*
X131213624Y-73922812D01*
X131179000Y-73748741D01*
X131179000Y-73571259D01*
X131213624Y-73397188D01*
X131281544Y-73233216D01*
X131380147Y-73085646D01*
X131505646Y-72960147D01*
X131653216Y-72861544D01*
X131817188Y-72793624D01*
X131966488Y-72763927D01*
X131991258Y-72759000D01*
X132168742Y-72759000D01*
X132193512Y-72763927D01*
G37*
G36*
X167753512Y-70223927D02*
G01*
X167902812Y-70253624D01*
X168066784Y-70321544D01*
X168214354Y-70420147D01*
X168339853Y-70545646D01*
X168438456Y-70693216D01*
X168506376Y-70857188D01*
X168541000Y-71031259D01*
X168541000Y-71208741D01*
X168506376Y-71382812D01*
X168438456Y-71546784D01*
X168339853Y-71694354D01*
X168214354Y-71819853D01*
X168066784Y-71918456D01*
X167902812Y-71986376D01*
X167753512Y-72016073D01*
X167728742Y-72021000D01*
X167551258Y-72021000D01*
X167526488Y-72016073D01*
X167377188Y-71986376D01*
X167213216Y-71918456D01*
X167065646Y-71819853D01*
X166940147Y-71694354D01*
X166841544Y-71546784D01*
X166773624Y-71382812D01*
X166739000Y-71208741D01*
X166739000Y-71031259D01*
X166773624Y-70857188D01*
X166841544Y-70693216D01*
X166940147Y-70545646D01*
X167065646Y-70420147D01*
X167213216Y-70321544D01*
X167377188Y-70253624D01*
X167526488Y-70223927D01*
X167551258Y-70219000D01*
X167728742Y-70219000D01*
X167753512Y-70223927D01*
G37*
G36*
X132193512Y-70223927D02*
G01*
X132342812Y-70253624D01*
X132506784Y-70321544D01*
X132654354Y-70420147D01*
X132779853Y-70545646D01*
X132878456Y-70693216D01*
X132946376Y-70857188D01*
X132981000Y-71031259D01*
X132981000Y-71208741D01*
X132946376Y-71382812D01*
X132878456Y-71546784D01*
X132779853Y-71694354D01*
X132654354Y-71819853D01*
X132506784Y-71918456D01*
X132342812Y-71986376D01*
X132193512Y-72016073D01*
X132168742Y-72021000D01*
X131991258Y-72021000D01*
X131966488Y-72016073D01*
X131817188Y-71986376D01*
X131653216Y-71918456D01*
X131505646Y-71819853D01*
X131380147Y-71694354D01*
X131281544Y-71546784D01*
X131213624Y-71382812D01*
X131179000Y-71208741D01*
X131179000Y-71031259D01*
X131213624Y-70857188D01*
X131281544Y-70693216D01*
X131380147Y-70545646D01*
X131505646Y-70420147D01*
X131653216Y-70321544D01*
X131817188Y-70253624D01*
X131966488Y-70223927D01*
X131991258Y-70219000D01*
X132168742Y-70219000D01*
X132193512Y-70223927D01*
G37*
G36*
X172833512Y-70223927D02*
G01*
X172982812Y-70253624D01*
X173146784Y-70321544D01*
X173294354Y-70420147D01*
X173419853Y-70545646D01*
X173518456Y-70693216D01*
X173586376Y-70857188D01*
X173621000Y-71031259D01*
X173621000Y-71208741D01*
X173586376Y-71382812D01*
X173518456Y-71546784D01*
X173419853Y-71694354D01*
X173294354Y-71819853D01*
X173146784Y-71918456D01*
X172982812Y-71986376D01*
X172833512Y-72016073D01*
X172808742Y-72021000D01*
X172631258Y-72021000D01*
X172606488Y-72016073D01*
X172457188Y-71986376D01*
X172293216Y-71918456D01*
X172145646Y-71819853D01*
X172020147Y-71694354D01*
X171921544Y-71546784D01*
X171853624Y-71382812D01*
X171819000Y-71208741D01*
X171819000Y-71031259D01*
X171853624Y-70857188D01*
X171921544Y-70693216D01*
X172020147Y-70545646D01*
X172145646Y-70420147D01*
X172293216Y-70321544D01*
X172457188Y-70253624D01*
X172606488Y-70223927D01*
X172631258Y-70219000D01*
X172808742Y-70219000D01*
X172833512Y-70223927D01*
G37*
G36*
X132193512Y-67683927D02*
G01*
X132342812Y-67713624D01*
X132506784Y-67781544D01*
X132654354Y-67880147D01*
X132779853Y-68005646D01*
X132878456Y-68153216D01*
X132946376Y-68317188D01*
X132981000Y-68491259D01*
X132981000Y-68668741D01*
X132946376Y-68842812D01*
X132878456Y-69006784D01*
X132779853Y-69154354D01*
X132654354Y-69279853D01*
X132506784Y-69378456D01*
X132342812Y-69446376D01*
X132193512Y-69476073D01*
X132168742Y-69481000D01*
X131991258Y-69481000D01*
X131966488Y-69476073D01*
X131817188Y-69446376D01*
X131653216Y-69378456D01*
X131505646Y-69279853D01*
X131380147Y-69154354D01*
X131281544Y-69006784D01*
X131213624Y-68842812D01*
X131179000Y-68668741D01*
X131179000Y-68491259D01*
X131213624Y-68317188D01*
X131281544Y-68153216D01*
X131380147Y-68005646D01*
X131505646Y-67880147D01*
X131653216Y-67781544D01*
X131817188Y-67713624D01*
X131966488Y-67683927D01*
X131991258Y-67679000D01*
X132168742Y-67679000D01*
X132193512Y-67683927D01*
G37*
G36*
X167753512Y-67683927D02*
G01*
X167902812Y-67713624D01*
X168066784Y-67781544D01*
X168214354Y-67880147D01*
X168339853Y-68005646D01*
X168438456Y-68153216D01*
X168506376Y-68317188D01*
X168541000Y-68491259D01*
X168541000Y-68668741D01*
X168506376Y-68842812D01*
X168438456Y-69006784D01*
X168339853Y-69154354D01*
X168214354Y-69279853D01*
X168066784Y-69378456D01*
X167902812Y-69446376D01*
X167753512Y-69476073D01*
X167728742Y-69481000D01*
X167551258Y-69481000D01*
X167526488Y-69476073D01*
X167377188Y-69446376D01*
X167213216Y-69378456D01*
X167065646Y-69279853D01*
X166940147Y-69154354D01*
X166841544Y-69006784D01*
X166773624Y-68842812D01*
X166739000Y-68668741D01*
X166739000Y-68491259D01*
X166773624Y-68317188D01*
X166841544Y-68153216D01*
X166940147Y-68005646D01*
X167065646Y-67880147D01*
X167213216Y-67781544D01*
X167377188Y-67713624D01*
X167526488Y-67683927D01*
X167551258Y-67679000D01*
X167728742Y-67679000D01*
X167753512Y-67683927D01*
G37*
G36*
X172833512Y-67683927D02*
G01*
X172982812Y-67713624D01*
X173146784Y-67781544D01*
X173294354Y-67880147D01*
X173419853Y-68005646D01*
X173518456Y-68153216D01*
X173586376Y-68317188D01*
X173621000Y-68491259D01*
X173621000Y-68668741D01*
X173586376Y-68842812D01*
X173518456Y-69006784D01*
X173419853Y-69154354D01*
X173294354Y-69279853D01*
X173146784Y-69378456D01*
X172982812Y-69446376D01*
X172833512Y-69476073D01*
X172808742Y-69481000D01*
X172631258Y-69481000D01*
X172606488Y-69476073D01*
X172457188Y-69446376D01*
X172293216Y-69378456D01*
X172145646Y-69279853D01*
X172020147Y-69154354D01*
X171921544Y-69006784D01*
X171853624Y-68842812D01*
X171819000Y-68668741D01*
X171819000Y-68491259D01*
X171853624Y-68317188D01*
X171921544Y-68153216D01*
X172020147Y-68005646D01*
X172145646Y-67880147D01*
X172293216Y-67781544D01*
X172457188Y-67713624D01*
X172606488Y-67683927D01*
X172631258Y-67679000D01*
X172808742Y-67679000D01*
X172833512Y-67683927D01*
G37*
G36*
X172833512Y-65143927D02*
G01*
X172982812Y-65173624D01*
X173146784Y-65241544D01*
X173294354Y-65340147D01*
X173419853Y-65465646D01*
X173518456Y-65613216D01*
X173586376Y-65777188D01*
X173621000Y-65951259D01*
X173621000Y-66128741D01*
X173586376Y-66302812D01*
X173518456Y-66466784D01*
X173419853Y-66614354D01*
X173294354Y-66739853D01*
X173146784Y-66838456D01*
X172982812Y-66906376D01*
X172833512Y-66936073D01*
X172808742Y-66941000D01*
X172631258Y-66941000D01*
X172606488Y-66936073D01*
X172457188Y-66906376D01*
X172293216Y-66838456D01*
X172145646Y-66739853D01*
X172020147Y-66614354D01*
X171921544Y-66466784D01*
X171853624Y-66302812D01*
X171819000Y-66128741D01*
X171819000Y-65951259D01*
X171853624Y-65777188D01*
X171921544Y-65613216D01*
X172020147Y-65465646D01*
X172145646Y-65340147D01*
X172293216Y-65241544D01*
X172457188Y-65173624D01*
X172606488Y-65143927D01*
X172631258Y-65139000D01*
X172808742Y-65139000D01*
X172833512Y-65143927D01*
G37*
G36*
X168541000Y-66941000D02*
G01*
X166739000Y-66941000D01*
X166739000Y-65139000D01*
X168541000Y-65139000D01*
X168541000Y-66941000D01*
G37*
G36*
X132193512Y-65143927D02*
G01*
X132342812Y-65173624D01*
X132506784Y-65241544D01*
X132654354Y-65340147D01*
X132779853Y-65465646D01*
X132878456Y-65613216D01*
X132946376Y-65777188D01*
X132981000Y-65951259D01*
X132981000Y-66128741D01*
X132946376Y-66302812D01*
X132878456Y-66466784D01*
X132779853Y-66614354D01*
X132654354Y-66739853D01*
X132506784Y-66838456D01*
X132342812Y-66906376D01*
X132193512Y-66936073D01*
X132168742Y-66941000D01*
X131991258Y-66941000D01*
X131966488Y-66936073D01*
X131817188Y-66906376D01*
X131653216Y-66838456D01*
X131505646Y-66739853D01*
X131380147Y-66614354D01*
X131281544Y-66466784D01*
X131213624Y-66302812D01*
X131179000Y-66128741D01*
X131179000Y-65951259D01*
X131213624Y-65777188D01*
X131281544Y-65613216D01*
X131380147Y-65465646D01*
X131505646Y-65340147D01*
X131653216Y-65241544D01*
X131817188Y-65173624D01*
X131966488Y-65143927D01*
X131991258Y-65139000D01*
X132168742Y-65139000D01*
X132193512Y-65143927D01*
G37*
G36*
X132193512Y-62603927D02*
G01*
X132342812Y-62633624D01*
X132506784Y-62701544D01*
X132654354Y-62800147D01*
X132779853Y-62925646D01*
X132878456Y-63073216D01*
X132946376Y-63237188D01*
X132981000Y-63411259D01*
X132981000Y-63588741D01*
X132946376Y-63762812D01*
X132878456Y-63926784D01*
X132779853Y-64074354D01*
X132654354Y-64199853D01*
X132506784Y-64298456D01*
X132342812Y-64366376D01*
X132193512Y-64396073D01*
X132168742Y-64401000D01*
X131991258Y-64401000D01*
X131966488Y-64396073D01*
X131817188Y-64366376D01*
X131653216Y-64298456D01*
X131505646Y-64199853D01*
X131380147Y-64074354D01*
X131281544Y-63926784D01*
X131213624Y-63762812D01*
X131179000Y-63588741D01*
X131179000Y-63411259D01*
X131213624Y-63237188D01*
X131281544Y-63073216D01*
X131380147Y-62925646D01*
X131505646Y-62800147D01*
X131653216Y-62701544D01*
X131817188Y-62633624D01*
X131966488Y-62603927D01*
X131991258Y-62599000D01*
X132168742Y-62599000D01*
X132193512Y-62603927D01*
G37*
G36*
X172833512Y-62603927D02*
G01*
X172982812Y-62633624D01*
X173146784Y-62701544D01*
X173294354Y-62800147D01*
X173419853Y-62925646D01*
X173518456Y-63073216D01*
X173586376Y-63237188D01*
X173621000Y-63411259D01*
X173621000Y-63588741D01*
X173586376Y-63762812D01*
X173518456Y-63926784D01*
X173419853Y-64074354D01*
X173294354Y-64199853D01*
X173146784Y-64298456D01*
X172982812Y-64366376D01*
X172833512Y-64396073D01*
X172808742Y-64401000D01*
X172631258Y-64401000D01*
X172606488Y-64396073D01*
X172457188Y-64366376D01*
X172293216Y-64298456D01*
X172145646Y-64199853D01*
X172020147Y-64074354D01*
X171921544Y-63926784D01*
X171853624Y-63762812D01*
X171819000Y-63588741D01*
X171819000Y-63411259D01*
X171853624Y-63237188D01*
X171921544Y-63073216D01*
X172020147Y-62925646D01*
X172145646Y-62800147D01*
X172293216Y-62701544D01*
X172457188Y-62633624D01*
X172606488Y-62603927D01*
X172631258Y-62599000D01*
X172808742Y-62599000D01*
X172833512Y-62603927D01*
G37*
G36*
X132193512Y-60063927D02*
G01*
X132342812Y-60093624D01*
X132506784Y-60161544D01*
X132654354Y-60260147D01*
X132779853Y-60385646D01*
X132878456Y-60533216D01*
X132946376Y-60697188D01*
X132981000Y-60871259D01*
X132981000Y-61048741D01*
X132946376Y-61222812D01*
X132878456Y-61386784D01*
X132779853Y-61534354D01*
X132654354Y-61659853D01*
X132506784Y-61758456D01*
X132342812Y-61826376D01*
X132193512Y-61856073D01*
X132168742Y-61861000D01*
X131991258Y-61861000D01*
X131966488Y-61856073D01*
X131817188Y-61826376D01*
X131653216Y-61758456D01*
X131505646Y-61659853D01*
X131380147Y-61534354D01*
X131281544Y-61386784D01*
X131213624Y-61222812D01*
X131179000Y-61048741D01*
X131179000Y-60871259D01*
X131213624Y-60697188D01*
X131281544Y-60533216D01*
X131380147Y-60385646D01*
X131505646Y-60260147D01*
X131653216Y-60161544D01*
X131817188Y-60093624D01*
X131966488Y-60063927D01*
X131991258Y-60059000D01*
X132168742Y-60059000D01*
X132193512Y-60063927D01*
G37*
G36*
X167753512Y-60063927D02*
G01*
X167902812Y-60093624D01*
X168066784Y-60161544D01*
X168214354Y-60260147D01*
X168339853Y-60385646D01*
X168438456Y-60533216D01*
X168506376Y-60697188D01*
X168541000Y-60871259D01*
X168541000Y-61048741D01*
X168506376Y-61222812D01*
X168438456Y-61386784D01*
X168339853Y-61534354D01*
X168214354Y-61659853D01*
X168066784Y-61758456D01*
X167902812Y-61826376D01*
X167753512Y-61856073D01*
X167728742Y-61861000D01*
X167551258Y-61861000D01*
X167526488Y-61856073D01*
X167377188Y-61826376D01*
X167213216Y-61758456D01*
X167065646Y-61659853D01*
X166940147Y-61534354D01*
X166841544Y-61386784D01*
X166773624Y-61222812D01*
X166739000Y-61048741D01*
X166739000Y-60871259D01*
X166773624Y-60697188D01*
X166841544Y-60533216D01*
X166940147Y-60385646D01*
X167065646Y-60260147D01*
X167213216Y-60161544D01*
X167377188Y-60093624D01*
X167526488Y-60063927D01*
X167551258Y-60059000D01*
X167728742Y-60059000D01*
X167753512Y-60063927D01*
G37*
G36*
X172833512Y-60063927D02*
G01*
X172982812Y-60093624D01*
X173146784Y-60161544D01*
X173294354Y-60260147D01*
X173419853Y-60385646D01*
X173518456Y-60533216D01*
X173586376Y-60697188D01*
X173621000Y-60871259D01*
X173621000Y-61048741D01*
X173586376Y-61222812D01*
X173518456Y-61386784D01*
X173419853Y-61534354D01*
X173294354Y-61659853D01*
X173146784Y-61758456D01*
X172982812Y-61826376D01*
X172833512Y-61856073D01*
X172808742Y-61861000D01*
X172631258Y-61861000D01*
X172606488Y-61856073D01*
X172457188Y-61826376D01*
X172293216Y-61758456D01*
X172145646Y-61659853D01*
X172020147Y-61534354D01*
X171921544Y-61386784D01*
X171853624Y-61222812D01*
X171819000Y-61048741D01*
X171819000Y-60871259D01*
X171853624Y-60697188D01*
X171921544Y-60533216D01*
X172020147Y-60385646D01*
X172145646Y-60260147D01*
X172293216Y-60161544D01*
X172457188Y-60093624D01*
X172606488Y-60063927D01*
X172631258Y-60059000D01*
X172808742Y-60059000D01*
X172833512Y-60063927D01*
G37*
G36*
X172833512Y-57523927D02*
G01*
X172982812Y-57553624D01*
X173146784Y-57621544D01*
X173294354Y-57720147D01*
X173419853Y-57845646D01*
X173518456Y-57993216D01*
X173586376Y-58157188D01*
X173621000Y-58331259D01*
X173621000Y-58508741D01*
X173586376Y-58682812D01*
X173518456Y-58846784D01*
X173419853Y-58994354D01*
X173294354Y-59119853D01*
X173146784Y-59218456D01*
X172982812Y-59286376D01*
X172833512Y-59316073D01*
X172808742Y-59321000D01*
X172631258Y-59321000D01*
X172606488Y-59316073D01*
X172457188Y-59286376D01*
X172293216Y-59218456D01*
X172145646Y-59119853D01*
X172020147Y-58994354D01*
X171921544Y-58846784D01*
X171853624Y-58682812D01*
X171819000Y-58508741D01*
X171819000Y-58331259D01*
X171853624Y-58157188D01*
X171921544Y-57993216D01*
X172020147Y-57845646D01*
X172145646Y-57720147D01*
X172293216Y-57621544D01*
X172457188Y-57553624D01*
X172606488Y-57523927D01*
X172631258Y-57519000D01*
X172808742Y-57519000D01*
X172833512Y-57523927D01*
G37*
G36*
X132193512Y-57523927D02*
G01*
X132342812Y-57553624D01*
X132506784Y-57621544D01*
X132654354Y-57720147D01*
X132779853Y-57845646D01*
X132878456Y-57993216D01*
X132946376Y-58157188D01*
X132981000Y-58331259D01*
X132981000Y-58508741D01*
X132946376Y-58682812D01*
X132878456Y-58846784D01*
X132779853Y-58994354D01*
X132654354Y-59119853D01*
X132506784Y-59218456D01*
X132342812Y-59286376D01*
X132193512Y-59316073D01*
X132168742Y-59321000D01*
X131991258Y-59321000D01*
X131966488Y-59316073D01*
X131817188Y-59286376D01*
X131653216Y-59218456D01*
X131505646Y-59119853D01*
X131380147Y-58994354D01*
X131281544Y-58846784D01*
X131213624Y-58682812D01*
X131179000Y-58508741D01*
X131179000Y-58331259D01*
X131213624Y-58157188D01*
X131281544Y-57993216D01*
X131380147Y-57845646D01*
X131505646Y-57720147D01*
X131653216Y-57621544D01*
X131817188Y-57553624D01*
X131966488Y-57523927D01*
X131991258Y-57519000D01*
X132168742Y-57519000D01*
X132193512Y-57523927D01*
G37*
G36*
X167753512Y-57523927D02*
G01*
X167902812Y-57553624D01*
X168066784Y-57621544D01*
X168214354Y-57720147D01*
X168339853Y-57845646D01*
X168438456Y-57993216D01*
X168506376Y-58157188D01*
X168541000Y-58331259D01*
X168541000Y-58508741D01*
X168506376Y-58682812D01*
X168438456Y-58846784D01*
X168339853Y-58994354D01*
X168214354Y-59119853D01*
X168066784Y-59218456D01*
X167902812Y-59286376D01*
X167753512Y-59316073D01*
X167728742Y-59321000D01*
X167551258Y-59321000D01*
X167526488Y-59316073D01*
X167377188Y-59286376D01*
X167213216Y-59218456D01*
X167065646Y-59119853D01*
X166940147Y-58994354D01*
X166841544Y-58846784D01*
X166773624Y-58682812D01*
X166739000Y-58508741D01*
X166739000Y-58331259D01*
X166773624Y-58157188D01*
X166841544Y-57993216D01*
X166940147Y-57845646D01*
X167065646Y-57720147D01*
X167213216Y-57621544D01*
X167377188Y-57553624D01*
X167526488Y-57523927D01*
X167551258Y-57519000D01*
X167728742Y-57519000D01*
X167753512Y-57523927D01*
G37*
G36*
X172833512Y-54983927D02*
G01*
X172982812Y-55013624D01*
X173146784Y-55081544D01*
X173294354Y-55180147D01*
X173419853Y-55305646D01*
X173518456Y-55453216D01*
X173586376Y-55617188D01*
X173621000Y-55791259D01*
X173621000Y-55968741D01*
X173586376Y-56142812D01*
X173518456Y-56306784D01*
X173419853Y-56454354D01*
X173294354Y-56579853D01*
X173146784Y-56678456D01*
X172982812Y-56746376D01*
X172833512Y-56776073D01*
X172808742Y-56781000D01*
X172631258Y-56781000D01*
X172606488Y-56776073D01*
X172457188Y-56746376D01*
X172293216Y-56678456D01*
X172145646Y-56579853D01*
X172020147Y-56454354D01*
X171921544Y-56306784D01*
X171853624Y-56142812D01*
X171819000Y-55968741D01*
X171819000Y-55791259D01*
X171853624Y-55617188D01*
X171921544Y-55453216D01*
X172020147Y-55305646D01*
X172145646Y-55180147D01*
X172293216Y-55081544D01*
X172457188Y-55013624D01*
X172606488Y-54983927D01*
X172631258Y-54979000D01*
X172808742Y-54979000D01*
X172833512Y-54983927D01*
G37*
G36*
X168541000Y-56781000D02*
G01*
X166739000Y-56781000D01*
X166739000Y-54979000D01*
X168541000Y-54979000D01*
X168541000Y-56781000D01*
G37*
G36*
X132193512Y-54983927D02*
G01*
X132342812Y-55013624D01*
X132506784Y-55081544D01*
X132654354Y-55180147D01*
X132779853Y-55305646D01*
X132878456Y-55453216D01*
X132946376Y-55617188D01*
X132981000Y-55791259D01*
X132981000Y-55968741D01*
X132946376Y-56142812D01*
X132878456Y-56306784D01*
X132779853Y-56454354D01*
X132654354Y-56579853D01*
X132506784Y-56678456D01*
X132342812Y-56746376D01*
X132193512Y-56776073D01*
X132168742Y-56781000D01*
X131991258Y-56781000D01*
X131966488Y-56776073D01*
X131817188Y-56746376D01*
X131653216Y-56678456D01*
X131505646Y-56579853D01*
X131380147Y-56454354D01*
X131281544Y-56306784D01*
X131213624Y-56142812D01*
X131179000Y-55968741D01*
X131179000Y-55791259D01*
X131213624Y-55617188D01*
X131281544Y-55453216D01*
X131380147Y-55305646D01*
X131505646Y-55180147D01*
X131653216Y-55081544D01*
X131817188Y-55013624D01*
X131966488Y-54983927D01*
X131991258Y-54979000D01*
X132168742Y-54979000D01*
X132193512Y-54983927D01*
G37*
G36*
X173621000Y-54241000D02*
G01*
X171819000Y-54241000D01*
X171819000Y-52439000D01*
X173621000Y-52439000D01*
X173621000Y-54241000D01*
G37*
G36*
X132981000Y-54241000D02*
G01*
X131179000Y-54241000D01*
X131179000Y-52439000D01*
X132981000Y-52439000D01*
X132981000Y-54241000D01*
G37*
M02*
