G04 #@! TF.GenerationSoftware,KiCad,Pcbnew,5.1.5*
G04 #@! TF.CreationDate,2020-02-16T17:08:25+01:00*
G04 #@! TF.ProjectId,feuchtraumabzweigdose,66657563-6874-4726-9175-6d61627a7765,rev?*
G04 #@! TF.SameCoordinates,Original*
G04 #@! TF.FileFunction,Paste,Bot*
G04 #@! TF.FilePolarity,Positive*
%FSLAX46Y46*%
G04 Gerber Fmt 4.6, Leading zero omitted, Abs format (unit mm)*
G04 Created by KiCad (PCBNEW 5.1.5) date 2020-02-16 17:08:25*
%MOMM*%
%LPD*%
G04 APERTURE LIST*
%ADD10R,0.650000X1.060000*%
%ADD11C,0.100000*%
%ADD12R,3.500000X1.800000*%
%ADD13R,2.200000X1.200000*%
%ADD14R,3.050000X2.750000*%
%ADD15R,1.060000X0.650000*%
%ADD16R,1.000000X0.800000*%
G04 APERTURE END LIST*
D10*
X160340000Y-101770000D03*
X161290000Y-101770000D03*
X162240000Y-101770000D03*
X162240000Y-103970000D03*
X160340000Y-103970000D03*
D11*
G36*
X167319505Y-99831204D02*
G01*
X167343773Y-99834804D01*
X167367572Y-99840765D01*
X167390671Y-99849030D01*
X167412850Y-99859520D01*
X167433893Y-99872132D01*
X167453599Y-99886747D01*
X167471777Y-99903223D01*
X167488253Y-99921401D01*
X167502868Y-99941107D01*
X167515480Y-99962150D01*
X167525970Y-99984329D01*
X167534235Y-100007428D01*
X167540196Y-100031227D01*
X167543796Y-100055495D01*
X167545000Y-100079999D01*
X167545000Y-101830001D01*
X167543796Y-101854505D01*
X167540196Y-101878773D01*
X167534235Y-101902572D01*
X167525970Y-101925671D01*
X167515480Y-101947850D01*
X167502868Y-101968893D01*
X167488253Y-101988599D01*
X167471777Y-102006777D01*
X167453599Y-102023253D01*
X167433893Y-102037868D01*
X167412850Y-102050480D01*
X167390671Y-102060970D01*
X167367572Y-102069235D01*
X167343773Y-102075196D01*
X167319505Y-102078796D01*
X167295001Y-102080000D01*
X165444999Y-102080000D01*
X165420495Y-102078796D01*
X165396227Y-102075196D01*
X165372428Y-102069235D01*
X165349329Y-102060970D01*
X165327150Y-102050480D01*
X165306107Y-102037868D01*
X165286401Y-102023253D01*
X165268223Y-102006777D01*
X165251747Y-101988599D01*
X165237132Y-101968893D01*
X165224520Y-101947850D01*
X165214030Y-101925671D01*
X165205765Y-101902572D01*
X165199804Y-101878773D01*
X165196204Y-101854505D01*
X165195000Y-101830001D01*
X165195000Y-100079999D01*
X165196204Y-100055495D01*
X165199804Y-100031227D01*
X165205765Y-100007428D01*
X165214030Y-99984329D01*
X165224520Y-99962150D01*
X165237132Y-99941107D01*
X165251747Y-99921401D01*
X165268223Y-99903223D01*
X165286401Y-99886747D01*
X165306107Y-99872132D01*
X165327150Y-99859520D01*
X165349329Y-99849030D01*
X165372428Y-99840765D01*
X165396227Y-99834804D01*
X165420495Y-99831204D01*
X165444999Y-99830000D01*
X167295001Y-99830000D01*
X167319505Y-99831204D01*
G37*
G36*
X167319505Y-104931204D02*
G01*
X167343773Y-104934804D01*
X167367572Y-104940765D01*
X167390671Y-104949030D01*
X167412850Y-104959520D01*
X167433893Y-104972132D01*
X167453599Y-104986747D01*
X167471777Y-105003223D01*
X167488253Y-105021401D01*
X167502868Y-105041107D01*
X167515480Y-105062150D01*
X167525970Y-105084329D01*
X167534235Y-105107428D01*
X167540196Y-105131227D01*
X167543796Y-105155495D01*
X167545000Y-105179999D01*
X167545000Y-106930001D01*
X167543796Y-106954505D01*
X167540196Y-106978773D01*
X167534235Y-107002572D01*
X167525970Y-107025671D01*
X167515480Y-107047850D01*
X167502868Y-107068893D01*
X167488253Y-107088599D01*
X167471777Y-107106777D01*
X167453599Y-107123253D01*
X167433893Y-107137868D01*
X167412850Y-107150480D01*
X167390671Y-107160970D01*
X167367572Y-107169235D01*
X167343773Y-107175196D01*
X167319505Y-107178796D01*
X167295001Y-107180000D01*
X165444999Y-107180000D01*
X165420495Y-107178796D01*
X165396227Y-107175196D01*
X165372428Y-107169235D01*
X165349329Y-107160970D01*
X165327150Y-107150480D01*
X165306107Y-107137868D01*
X165286401Y-107123253D01*
X165268223Y-107106777D01*
X165251747Y-107088599D01*
X165237132Y-107068893D01*
X165224520Y-107047850D01*
X165214030Y-107025671D01*
X165205765Y-107002572D01*
X165199804Y-106978773D01*
X165196204Y-106954505D01*
X165195000Y-106930001D01*
X165195000Y-105179999D01*
X165196204Y-105155495D01*
X165199804Y-105131227D01*
X165205765Y-105107428D01*
X165214030Y-105084329D01*
X165224520Y-105062150D01*
X165237132Y-105041107D01*
X165251747Y-105021401D01*
X165268223Y-105003223D01*
X165286401Y-104986747D01*
X165306107Y-104972132D01*
X165327150Y-104959520D01*
X165349329Y-104949030D01*
X165372428Y-104940765D01*
X165396227Y-104934804D01*
X165420495Y-104931204D01*
X165444999Y-104930000D01*
X167295001Y-104930000D01*
X167319505Y-104931204D01*
G37*
G36*
X161382142Y-88709174D02*
G01*
X161405803Y-88712684D01*
X161429007Y-88718496D01*
X161451529Y-88726554D01*
X161473153Y-88736782D01*
X161493670Y-88749079D01*
X161512883Y-88763329D01*
X161530607Y-88779393D01*
X161546671Y-88797117D01*
X161560921Y-88816330D01*
X161573218Y-88836847D01*
X161583446Y-88858471D01*
X161591504Y-88880993D01*
X161597316Y-88904197D01*
X161600826Y-88927858D01*
X161602000Y-88951750D01*
X161602000Y-89864250D01*
X161600826Y-89888142D01*
X161597316Y-89911803D01*
X161591504Y-89935007D01*
X161583446Y-89957529D01*
X161573218Y-89979153D01*
X161560921Y-89999670D01*
X161546671Y-90018883D01*
X161530607Y-90036607D01*
X161512883Y-90052671D01*
X161493670Y-90066921D01*
X161473153Y-90079218D01*
X161451529Y-90089446D01*
X161429007Y-90097504D01*
X161405803Y-90103316D01*
X161382142Y-90106826D01*
X161358250Y-90108000D01*
X160870750Y-90108000D01*
X160846858Y-90106826D01*
X160823197Y-90103316D01*
X160799993Y-90097504D01*
X160777471Y-90089446D01*
X160755847Y-90079218D01*
X160735330Y-90066921D01*
X160716117Y-90052671D01*
X160698393Y-90036607D01*
X160682329Y-90018883D01*
X160668079Y-89999670D01*
X160655782Y-89979153D01*
X160645554Y-89957529D01*
X160637496Y-89935007D01*
X160631684Y-89911803D01*
X160628174Y-89888142D01*
X160627000Y-89864250D01*
X160627000Y-88951750D01*
X160628174Y-88927858D01*
X160631684Y-88904197D01*
X160637496Y-88880993D01*
X160645554Y-88858471D01*
X160655782Y-88836847D01*
X160668079Y-88816330D01*
X160682329Y-88797117D01*
X160698393Y-88779393D01*
X160716117Y-88763329D01*
X160735330Y-88749079D01*
X160755847Y-88736782D01*
X160777471Y-88726554D01*
X160799993Y-88718496D01*
X160823197Y-88712684D01*
X160846858Y-88709174D01*
X160870750Y-88708000D01*
X161358250Y-88708000D01*
X161382142Y-88709174D01*
G37*
G36*
X163257142Y-88709174D02*
G01*
X163280803Y-88712684D01*
X163304007Y-88718496D01*
X163326529Y-88726554D01*
X163348153Y-88736782D01*
X163368670Y-88749079D01*
X163387883Y-88763329D01*
X163405607Y-88779393D01*
X163421671Y-88797117D01*
X163435921Y-88816330D01*
X163448218Y-88836847D01*
X163458446Y-88858471D01*
X163466504Y-88880993D01*
X163472316Y-88904197D01*
X163475826Y-88927858D01*
X163477000Y-88951750D01*
X163477000Y-89864250D01*
X163475826Y-89888142D01*
X163472316Y-89911803D01*
X163466504Y-89935007D01*
X163458446Y-89957529D01*
X163448218Y-89979153D01*
X163435921Y-89999670D01*
X163421671Y-90018883D01*
X163405607Y-90036607D01*
X163387883Y-90052671D01*
X163368670Y-90066921D01*
X163348153Y-90079218D01*
X163326529Y-90089446D01*
X163304007Y-90097504D01*
X163280803Y-90103316D01*
X163257142Y-90106826D01*
X163233250Y-90108000D01*
X162745750Y-90108000D01*
X162721858Y-90106826D01*
X162698197Y-90103316D01*
X162674993Y-90097504D01*
X162652471Y-90089446D01*
X162630847Y-90079218D01*
X162610330Y-90066921D01*
X162591117Y-90052671D01*
X162573393Y-90036607D01*
X162557329Y-90018883D01*
X162543079Y-89999670D01*
X162530782Y-89979153D01*
X162520554Y-89957529D01*
X162512496Y-89935007D01*
X162506684Y-89911803D01*
X162503174Y-89888142D01*
X162502000Y-89864250D01*
X162502000Y-88951750D01*
X162503174Y-88927858D01*
X162506684Y-88904197D01*
X162512496Y-88880993D01*
X162520554Y-88858471D01*
X162530782Y-88836847D01*
X162543079Y-88816330D01*
X162557329Y-88797117D01*
X162573393Y-88779393D01*
X162591117Y-88763329D01*
X162610330Y-88749079D01*
X162630847Y-88736782D01*
X162652471Y-88726554D01*
X162674993Y-88718496D01*
X162698197Y-88712684D01*
X162721858Y-88709174D01*
X162745750Y-88708000D01*
X163233250Y-88708000D01*
X163257142Y-88709174D01*
G37*
D12*
X160615000Y-83185000D03*
X155615000Y-83185000D03*
D11*
G36*
X167319505Y-89671204D02*
G01*
X167343773Y-89674804D01*
X167367572Y-89680765D01*
X167390671Y-89689030D01*
X167412850Y-89699520D01*
X167433893Y-89712132D01*
X167453599Y-89726747D01*
X167471777Y-89743223D01*
X167488253Y-89761401D01*
X167502868Y-89781107D01*
X167515480Y-89802150D01*
X167525970Y-89824329D01*
X167534235Y-89847428D01*
X167540196Y-89871227D01*
X167543796Y-89895495D01*
X167545000Y-89919999D01*
X167545000Y-91670001D01*
X167543796Y-91694505D01*
X167540196Y-91718773D01*
X167534235Y-91742572D01*
X167525970Y-91765671D01*
X167515480Y-91787850D01*
X167502868Y-91808893D01*
X167488253Y-91828599D01*
X167471777Y-91846777D01*
X167453599Y-91863253D01*
X167433893Y-91877868D01*
X167412850Y-91890480D01*
X167390671Y-91900970D01*
X167367572Y-91909235D01*
X167343773Y-91915196D01*
X167319505Y-91918796D01*
X167295001Y-91920000D01*
X165444999Y-91920000D01*
X165420495Y-91918796D01*
X165396227Y-91915196D01*
X165372428Y-91909235D01*
X165349329Y-91900970D01*
X165327150Y-91890480D01*
X165306107Y-91877868D01*
X165286401Y-91863253D01*
X165268223Y-91846777D01*
X165251747Y-91828599D01*
X165237132Y-91808893D01*
X165224520Y-91787850D01*
X165214030Y-91765671D01*
X165205765Y-91742572D01*
X165199804Y-91718773D01*
X165196204Y-91694505D01*
X165195000Y-91670001D01*
X165195000Y-89919999D01*
X165196204Y-89895495D01*
X165199804Y-89871227D01*
X165205765Y-89847428D01*
X165214030Y-89824329D01*
X165224520Y-89802150D01*
X165237132Y-89781107D01*
X165251747Y-89761401D01*
X165268223Y-89743223D01*
X165286401Y-89726747D01*
X165306107Y-89712132D01*
X165327150Y-89699520D01*
X165349329Y-89689030D01*
X165372428Y-89680765D01*
X165396227Y-89674804D01*
X165420495Y-89671204D01*
X165444999Y-89670000D01*
X167295001Y-89670000D01*
X167319505Y-89671204D01*
G37*
G36*
X167319505Y-94771204D02*
G01*
X167343773Y-94774804D01*
X167367572Y-94780765D01*
X167390671Y-94789030D01*
X167412850Y-94799520D01*
X167433893Y-94812132D01*
X167453599Y-94826747D01*
X167471777Y-94843223D01*
X167488253Y-94861401D01*
X167502868Y-94881107D01*
X167515480Y-94902150D01*
X167525970Y-94924329D01*
X167534235Y-94947428D01*
X167540196Y-94971227D01*
X167543796Y-94995495D01*
X167545000Y-95019999D01*
X167545000Y-96770001D01*
X167543796Y-96794505D01*
X167540196Y-96818773D01*
X167534235Y-96842572D01*
X167525970Y-96865671D01*
X167515480Y-96887850D01*
X167502868Y-96908893D01*
X167488253Y-96928599D01*
X167471777Y-96946777D01*
X167453599Y-96963253D01*
X167433893Y-96977868D01*
X167412850Y-96990480D01*
X167390671Y-97000970D01*
X167367572Y-97009235D01*
X167343773Y-97015196D01*
X167319505Y-97018796D01*
X167295001Y-97020000D01*
X165444999Y-97020000D01*
X165420495Y-97018796D01*
X165396227Y-97015196D01*
X165372428Y-97009235D01*
X165349329Y-97000970D01*
X165327150Y-96990480D01*
X165306107Y-96977868D01*
X165286401Y-96963253D01*
X165268223Y-96946777D01*
X165251747Y-96928599D01*
X165237132Y-96908893D01*
X165224520Y-96887850D01*
X165214030Y-96865671D01*
X165205765Y-96842572D01*
X165199804Y-96818773D01*
X165196204Y-96794505D01*
X165195000Y-96770001D01*
X165195000Y-95019999D01*
X165196204Y-94995495D01*
X165199804Y-94971227D01*
X165205765Y-94947428D01*
X165214030Y-94924329D01*
X165224520Y-94902150D01*
X165237132Y-94881107D01*
X165251747Y-94861401D01*
X165268223Y-94843223D01*
X165286401Y-94826747D01*
X165306107Y-94812132D01*
X165327150Y-94799520D01*
X165349329Y-94789030D01*
X165372428Y-94780765D01*
X165396227Y-94774804D01*
X165420495Y-94771204D01*
X165444999Y-94770000D01*
X167295001Y-94770000D01*
X167319505Y-94771204D01*
G37*
G36*
X152019505Y-95346204D02*
G01*
X152043773Y-95349804D01*
X152067572Y-95355765D01*
X152090671Y-95364030D01*
X152112850Y-95374520D01*
X152133893Y-95387132D01*
X152153599Y-95401747D01*
X152171777Y-95418223D01*
X152188253Y-95436401D01*
X152202868Y-95456107D01*
X152215480Y-95477150D01*
X152225970Y-95499329D01*
X152234235Y-95522428D01*
X152240196Y-95546227D01*
X152243796Y-95570495D01*
X152245000Y-95594999D01*
X152245000Y-97445001D01*
X152243796Y-97469505D01*
X152240196Y-97493773D01*
X152234235Y-97517572D01*
X152225970Y-97540671D01*
X152215480Y-97562850D01*
X152202868Y-97583893D01*
X152188253Y-97603599D01*
X152171777Y-97621777D01*
X152153599Y-97638253D01*
X152133893Y-97652868D01*
X152112850Y-97665480D01*
X152090671Y-97675970D01*
X152067572Y-97684235D01*
X152043773Y-97690196D01*
X152019505Y-97693796D01*
X151995001Y-97695000D01*
X150244999Y-97695000D01*
X150220495Y-97693796D01*
X150196227Y-97690196D01*
X150172428Y-97684235D01*
X150149329Y-97675970D01*
X150127150Y-97665480D01*
X150106107Y-97652868D01*
X150086401Y-97638253D01*
X150068223Y-97621777D01*
X150051747Y-97603599D01*
X150037132Y-97583893D01*
X150024520Y-97562850D01*
X150014030Y-97540671D01*
X150005765Y-97517572D01*
X149999804Y-97493773D01*
X149996204Y-97469505D01*
X149995000Y-97445001D01*
X149995000Y-95594999D01*
X149996204Y-95570495D01*
X149999804Y-95546227D01*
X150005765Y-95522428D01*
X150014030Y-95499329D01*
X150024520Y-95477150D01*
X150037132Y-95456107D01*
X150051747Y-95436401D01*
X150068223Y-95418223D01*
X150086401Y-95401747D01*
X150106107Y-95387132D01*
X150127150Y-95374520D01*
X150149329Y-95364030D01*
X150172428Y-95355765D01*
X150196227Y-95349804D01*
X150220495Y-95346204D01*
X150244999Y-95345000D01*
X151995001Y-95345000D01*
X152019505Y-95346204D01*
G37*
G36*
X157119505Y-95346204D02*
G01*
X157143773Y-95349804D01*
X157167572Y-95355765D01*
X157190671Y-95364030D01*
X157212850Y-95374520D01*
X157233893Y-95387132D01*
X157253599Y-95401747D01*
X157271777Y-95418223D01*
X157288253Y-95436401D01*
X157302868Y-95456107D01*
X157315480Y-95477150D01*
X157325970Y-95499329D01*
X157334235Y-95522428D01*
X157340196Y-95546227D01*
X157343796Y-95570495D01*
X157345000Y-95594999D01*
X157345000Y-97445001D01*
X157343796Y-97469505D01*
X157340196Y-97493773D01*
X157334235Y-97517572D01*
X157325970Y-97540671D01*
X157315480Y-97562850D01*
X157302868Y-97583893D01*
X157288253Y-97603599D01*
X157271777Y-97621777D01*
X157253599Y-97638253D01*
X157233893Y-97652868D01*
X157212850Y-97665480D01*
X157190671Y-97675970D01*
X157167572Y-97684235D01*
X157143773Y-97690196D01*
X157119505Y-97693796D01*
X157095001Y-97695000D01*
X155344999Y-97695000D01*
X155320495Y-97693796D01*
X155296227Y-97690196D01*
X155272428Y-97684235D01*
X155249329Y-97675970D01*
X155227150Y-97665480D01*
X155206107Y-97652868D01*
X155186401Y-97638253D01*
X155168223Y-97621777D01*
X155151747Y-97603599D01*
X155137132Y-97583893D01*
X155124520Y-97562850D01*
X155114030Y-97540671D01*
X155105765Y-97517572D01*
X155099804Y-97493773D01*
X155096204Y-97469505D01*
X155095000Y-97445001D01*
X155095000Y-95594999D01*
X155096204Y-95570495D01*
X155099804Y-95546227D01*
X155105765Y-95522428D01*
X155114030Y-95499329D01*
X155124520Y-95477150D01*
X155137132Y-95456107D01*
X155151747Y-95436401D01*
X155168223Y-95418223D01*
X155186401Y-95401747D01*
X155206107Y-95387132D01*
X155227150Y-95374520D01*
X155249329Y-95364030D01*
X155272428Y-95355765D01*
X155296227Y-95349804D01*
X155320495Y-95346204D01*
X155344999Y-95345000D01*
X157095001Y-95345000D01*
X157119505Y-95346204D01*
G37*
D13*
X159775000Y-87255000D03*
X159775000Y-91815000D03*
D14*
X151800000Y-91060000D03*
X155150000Y-88010000D03*
X151800000Y-88010000D03*
X155150000Y-91060000D03*
D11*
G36*
X167478142Y-73469174D02*
G01*
X167501803Y-73472684D01*
X167525007Y-73478496D01*
X167547529Y-73486554D01*
X167569153Y-73496782D01*
X167589670Y-73509079D01*
X167608883Y-73523329D01*
X167626607Y-73539393D01*
X167642671Y-73557117D01*
X167656921Y-73576330D01*
X167669218Y-73596847D01*
X167679446Y-73618471D01*
X167687504Y-73640993D01*
X167693316Y-73664197D01*
X167696826Y-73687858D01*
X167698000Y-73711750D01*
X167698000Y-74624250D01*
X167696826Y-74648142D01*
X167693316Y-74671803D01*
X167687504Y-74695007D01*
X167679446Y-74717529D01*
X167669218Y-74739153D01*
X167656921Y-74759670D01*
X167642671Y-74778883D01*
X167626607Y-74796607D01*
X167608883Y-74812671D01*
X167589670Y-74826921D01*
X167569153Y-74839218D01*
X167547529Y-74849446D01*
X167525007Y-74857504D01*
X167501803Y-74863316D01*
X167478142Y-74866826D01*
X167454250Y-74868000D01*
X166966750Y-74868000D01*
X166942858Y-74866826D01*
X166919197Y-74863316D01*
X166895993Y-74857504D01*
X166873471Y-74849446D01*
X166851847Y-74839218D01*
X166831330Y-74826921D01*
X166812117Y-74812671D01*
X166794393Y-74796607D01*
X166778329Y-74778883D01*
X166764079Y-74759670D01*
X166751782Y-74739153D01*
X166741554Y-74717529D01*
X166733496Y-74695007D01*
X166727684Y-74671803D01*
X166724174Y-74648142D01*
X166723000Y-74624250D01*
X166723000Y-73711750D01*
X166724174Y-73687858D01*
X166727684Y-73664197D01*
X166733496Y-73640993D01*
X166741554Y-73618471D01*
X166751782Y-73596847D01*
X166764079Y-73576330D01*
X166778329Y-73557117D01*
X166794393Y-73539393D01*
X166812117Y-73523329D01*
X166831330Y-73509079D01*
X166851847Y-73496782D01*
X166873471Y-73486554D01*
X166895993Y-73478496D01*
X166919197Y-73472684D01*
X166942858Y-73469174D01*
X166966750Y-73468000D01*
X167454250Y-73468000D01*
X167478142Y-73469174D01*
G37*
G36*
X169353142Y-73469174D02*
G01*
X169376803Y-73472684D01*
X169400007Y-73478496D01*
X169422529Y-73486554D01*
X169444153Y-73496782D01*
X169464670Y-73509079D01*
X169483883Y-73523329D01*
X169501607Y-73539393D01*
X169517671Y-73557117D01*
X169531921Y-73576330D01*
X169544218Y-73596847D01*
X169554446Y-73618471D01*
X169562504Y-73640993D01*
X169568316Y-73664197D01*
X169571826Y-73687858D01*
X169573000Y-73711750D01*
X169573000Y-74624250D01*
X169571826Y-74648142D01*
X169568316Y-74671803D01*
X169562504Y-74695007D01*
X169554446Y-74717529D01*
X169544218Y-74739153D01*
X169531921Y-74759670D01*
X169517671Y-74778883D01*
X169501607Y-74796607D01*
X169483883Y-74812671D01*
X169464670Y-74826921D01*
X169444153Y-74839218D01*
X169422529Y-74849446D01*
X169400007Y-74857504D01*
X169376803Y-74863316D01*
X169353142Y-74866826D01*
X169329250Y-74868000D01*
X168841750Y-74868000D01*
X168817858Y-74866826D01*
X168794197Y-74863316D01*
X168770993Y-74857504D01*
X168748471Y-74849446D01*
X168726847Y-74839218D01*
X168706330Y-74826921D01*
X168687117Y-74812671D01*
X168669393Y-74796607D01*
X168653329Y-74778883D01*
X168639079Y-74759670D01*
X168626782Y-74739153D01*
X168616554Y-74717529D01*
X168608496Y-74695007D01*
X168602684Y-74671803D01*
X168599174Y-74648142D01*
X168598000Y-74624250D01*
X168598000Y-73711750D01*
X168599174Y-73687858D01*
X168602684Y-73664197D01*
X168608496Y-73640993D01*
X168616554Y-73618471D01*
X168626782Y-73596847D01*
X168639079Y-73576330D01*
X168653329Y-73557117D01*
X168669393Y-73539393D01*
X168687117Y-73523329D01*
X168706330Y-73509079D01*
X168726847Y-73496782D01*
X168748471Y-73486554D01*
X168770993Y-73478496D01*
X168794197Y-73472684D01*
X168817858Y-73469174D01*
X168841750Y-73468000D01*
X169329250Y-73468000D01*
X169353142Y-73469174D01*
G37*
G36*
X171542142Y-73469174D02*
G01*
X171565803Y-73472684D01*
X171589007Y-73478496D01*
X171611529Y-73486554D01*
X171633153Y-73496782D01*
X171653670Y-73509079D01*
X171672883Y-73523329D01*
X171690607Y-73539393D01*
X171706671Y-73557117D01*
X171720921Y-73576330D01*
X171733218Y-73596847D01*
X171743446Y-73618471D01*
X171751504Y-73640993D01*
X171757316Y-73664197D01*
X171760826Y-73687858D01*
X171762000Y-73711750D01*
X171762000Y-74624250D01*
X171760826Y-74648142D01*
X171757316Y-74671803D01*
X171751504Y-74695007D01*
X171743446Y-74717529D01*
X171733218Y-74739153D01*
X171720921Y-74759670D01*
X171706671Y-74778883D01*
X171690607Y-74796607D01*
X171672883Y-74812671D01*
X171653670Y-74826921D01*
X171633153Y-74839218D01*
X171611529Y-74849446D01*
X171589007Y-74857504D01*
X171565803Y-74863316D01*
X171542142Y-74866826D01*
X171518250Y-74868000D01*
X171030750Y-74868000D01*
X171006858Y-74866826D01*
X170983197Y-74863316D01*
X170959993Y-74857504D01*
X170937471Y-74849446D01*
X170915847Y-74839218D01*
X170895330Y-74826921D01*
X170876117Y-74812671D01*
X170858393Y-74796607D01*
X170842329Y-74778883D01*
X170828079Y-74759670D01*
X170815782Y-74739153D01*
X170805554Y-74717529D01*
X170797496Y-74695007D01*
X170791684Y-74671803D01*
X170788174Y-74648142D01*
X170787000Y-74624250D01*
X170787000Y-73711750D01*
X170788174Y-73687858D01*
X170791684Y-73664197D01*
X170797496Y-73640993D01*
X170805554Y-73618471D01*
X170815782Y-73596847D01*
X170828079Y-73576330D01*
X170842329Y-73557117D01*
X170858393Y-73539393D01*
X170876117Y-73523329D01*
X170895330Y-73509079D01*
X170915847Y-73496782D01*
X170937471Y-73486554D01*
X170959993Y-73478496D01*
X170983197Y-73472684D01*
X171006858Y-73469174D01*
X171030750Y-73468000D01*
X171518250Y-73468000D01*
X171542142Y-73469174D01*
G37*
G36*
X173417142Y-73469174D02*
G01*
X173440803Y-73472684D01*
X173464007Y-73478496D01*
X173486529Y-73486554D01*
X173508153Y-73496782D01*
X173528670Y-73509079D01*
X173547883Y-73523329D01*
X173565607Y-73539393D01*
X173581671Y-73557117D01*
X173595921Y-73576330D01*
X173608218Y-73596847D01*
X173618446Y-73618471D01*
X173626504Y-73640993D01*
X173632316Y-73664197D01*
X173635826Y-73687858D01*
X173637000Y-73711750D01*
X173637000Y-74624250D01*
X173635826Y-74648142D01*
X173632316Y-74671803D01*
X173626504Y-74695007D01*
X173618446Y-74717529D01*
X173608218Y-74739153D01*
X173595921Y-74759670D01*
X173581671Y-74778883D01*
X173565607Y-74796607D01*
X173547883Y-74812671D01*
X173528670Y-74826921D01*
X173508153Y-74839218D01*
X173486529Y-74849446D01*
X173464007Y-74857504D01*
X173440803Y-74863316D01*
X173417142Y-74866826D01*
X173393250Y-74868000D01*
X172905750Y-74868000D01*
X172881858Y-74866826D01*
X172858197Y-74863316D01*
X172834993Y-74857504D01*
X172812471Y-74849446D01*
X172790847Y-74839218D01*
X172770330Y-74826921D01*
X172751117Y-74812671D01*
X172733393Y-74796607D01*
X172717329Y-74778883D01*
X172703079Y-74759670D01*
X172690782Y-74739153D01*
X172680554Y-74717529D01*
X172672496Y-74695007D01*
X172666684Y-74671803D01*
X172663174Y-74648142D01*
X172662000Y-74624250D01*
X172662000Y-73711750D01*
X172663174Y-73687858D01*
X172666684Y-73664197D01*
X172672496Y-73640993D01*
X172680554Y-73618471D01*
X172690782Y-73596847D01*
X172703079Y-73576330D01*
X172717329Y-73557117D01*
X172733393Y-73539393D01*
X172751117Y-73523329D01*
X172770330Y-73509079D01*
X172790847Y-73496782D01*
X172812471Y-73486554D01*
X172834993Y-73478496D01*
X172858197Y-73472684D01*
X172881858Y-73469174D01*
X172905750Y-73468000D01*
X173393250Y-73468000D01*
X173417142Y-73469174D01*
G37*
G36*
X163257142Y-93281174D02*
G01*
X163280803Y-93284684D01*
X163304007Y-93290496D01*
X163326529Y-93298554D01*
X163348153Y-93308782D01*
X163368670Y-93321079D01*
X163387883Y-93335329D01*
X163405607Y-93351393D01*
X163421671Y-93369117D01*
X163435921Y-93388330D01*
X163448218Y-93408847D01*
X163458446Y-93430471D01*
X163466504Y-93452993D01*
X163472316Y-93476197D01*
X163475826Y-93499858D01*
X163477000Y-93523750D01*
X163477000Y-94436250D01*
X163475826Y-94460142D01*
X163472316Y-94483803D01*
X163466504Y-94507007D01*
X163458446Y-94529529D01*
X163448218Y-94551153D01*
X163435921Y-94571670D01*
X163421671Y-94590883D01*
X163405607Y-94608607D01*
X163387883Y-94624671D01*
X163368670Y-94638921D01*
X163348153Y-94651218D01*
X163326529Y-94661446D01*
X163304007Y-94669504D01*
X163280803Y-94675316D01*
X163257142Y-94678826D01*
X163233250Y-94680000D01*
X162745750Y-94680000D01*
X162721858Y-94678826D01*
X162698197Y-94675316D01*
X162674993Y-94669504D01*
X162652471Y-94661446D01*
X162630847Y-94651218D01*
X162610330Y-94638921D01*
X162591117Y-94624671D01*
X162573393Y-94608607D01*
X162557329Y-94590883D01*
X162543079Y-94571670D01*
X162530782Y-94551153D01*
X162520554Y-94529529D01*
X162512496Y-94507007D01*
X162506684Y-94483803D01*
X162503174Y-94460142D01*
X162502000Y-94436250D01*
X162502000Y-93523750D01*
X162503174Y-93499858D01*
X162506684Y-93476197D01*
X162512496Y-93452993D01*
X162520554Y-93430471D01*
X162530782Y-93408847D01*
X162543079Y-93388330D01*
X162557329Y-93369117D01*
X162573393Y-93351393D01*
X162591117Y-93335329D01*
X162610330Y-93321079D01*
X162630847Y-93308782D01*
X162652471Y-93298554D01*
X162674993Y-93290496D01*
X162698197Y-93284684D01*
X162721858Y-93281174D01*
X162745750Y-93280000D01*
X163233250Y-93280000D01*
X163257142Y-93281174D01*
G37*
G36*
X161382142Y-93281174D02*
G01*
X161405803Y-93284684D01*
X161429007Y-93290496D01*
X161451529Y-93298554D01*
X161473153Y-93308782D01*
X161493670Y-93321079D01*
X161512883Y-93335329D01*
X161530607Y-93351393D01*
X161546671Y-93369117D01*
X161560921Y-93388330D01*
X161573218Y-93408847D01*
X161583446Y-93430471D01*
X161591504Y-93452993D01*
X161597316Y-93476197D01*
X161600826Y-93499858D01*
X161602000Y-93523750D01*
X161602000Y-94436250D01*
X161600826Y-94460142D01*
X161597316Y-94483803D01*
X161591504Y-94507007D01*
X161583446Y-94529529D01*
X161573218Y-94551153D01*
X161560921Y-94571670D01*
X161546671Y-94590883D01*
X161530607Y-94608607D01*
X161512883Y-94624671D01*
X161493670Y-94638921D01*
X161473153Y-94651218D01*
X161451529Y-94661446D01*
X161429007Y-94669504D01*
X161405803Y-94675316D01*
X161382142Y-94678826D01*
X161358250Y-94680000D01*
X160870750Y-94680000D01*
X160846858Y-94678826D01*
X160823197Y-94675316D01*
X160799993Y-94669504D01*
X160777471Y-94661446D01*
X160755847Y-94651218D01*
X160735330Y-94638921D01*
X160716117Y-94624671D01*
X160698393Y-94608607D01*
X160682329Y-94590883D01*
X160668079Y-94571670D01*
X160655782Y-94551153D01*
X160645554Y-94529529D01*
X160637496Y-94507007D01*
X160631684Y-94483803D01*
X160628174Y-94460142D01*
X160627000Y-94436250D01*
X160627000Y-93523750D01*
X160628174Y-93499858D01*
X160631684Y-93476197D01*
X160637496Y-93452993D01*
X160645554Y-93430471D01*
X160655782Y-93408847D01*
X160668079Y-93388330D01*
X160682329Y-93369117D01*
X160698393Y-93351393D01*
X160716117Y-93335329D01*
X160735330Y-93321079D01*
X160755847Y-93308782D01*
X160777471Y-93298554D01*
X160799993Y-93290496D01*
X160823197Y-93284684D01*
X160846858Y-93281174D01*
X160870750Y-93280000D01*
X161358250Y-93280000D01*
X161382142Y-93281174D01*
G37*
D15*
X160190000Y-96205000D03*
X160190000Y-98105000D03*
X162390000Y-98105000D03*
X162390000Y-97155000D03*
X162390000Y-96205000D03*
D16*
X160755000Y-77470000D03*
X160755000Y-80010000D03*
X166905000Y-80010000D03*
X166905000Y-77470000D03*
M02*
